<svg width="359" height="479" viewBox="0 0 359 479" fill="none" xmlns="http://www.w3.org/2000/svg">
<path d="M160.092 477.254L3.39166 384.469L196.016 264.756L355.579 360.003L160.092 477.254Z" fill="#8B8B8B" stroke="black" stroke-width="3"/>
<path d="M154.831 391.39L155.233 382.028L85.4131 340.322L96.8318 333.463L114.438 344.027L128.221 335.766L141.5 343.727L227.92 292.108L209.409 281.044L237.729 264.121L256.241 275.186L299.601 249.302L356.997 283.597L201.763 376.32L188.735 368.51L170.374 379.474L169.267 400.001" fill="white"/>
<path d="M254.329 303.123L248.796 299.819L268.967 287.753L274.501 291.057L254.329 303.123Z" fill="black"/>
<path d="M269.067 311.935L263.584 308.63L283.756 296.614L289.289 299.869L269.067 311.935Z" fill="black"/>
<path d="M299.4 251.955L258.202 276.588L296.935 299.668L272.74 314.138L287.277 322.799L352.67 283.747L299.4 251.955Z" fill="#DAC452"/>
<path d="M257.549 318.844L243.866 310.633L251.261 306.227L264.943 314.388L257.549 318.844Z" fill="black"/>
<path d="M102.918 348.683L89.1855 340.472L96.58 336.067L110.313 344.277L102.918 348.683Z" fill="black"/>
<path d="M262.528 308.029L255.385 303.724L275.557 291.708L282.7 295.963L262.528 308.029Z" fill="black"/>
<path d="M247.74 299.168L216.502 280.543L236.724 268.477L267.911 287.152L247.74 299.168Z" fill="black"/>
<path d="M229.832 306.578L218.815 300.019L229.832 293.41L240.848 300.019L229.832 306.578Z" fill="black"/>
<path d="M128.17 351.938L117.154 345.379L128.17 338.77L139.186 345.379L128.17 351.938Z" fill="black"/>
<path d="M214.942 315.439L203.926 308.881L216.552 301.321L227.568 307.929L214.942 315.439Z" fill="#DAC452"/>
<path d="M200.506 324.051L189.489 317.492L202.166 309.932L213.131 316.541L200.506 324.051Z" fill="#DAC452"/>
<path d="M171.129 341.624L160.112 335.015L172.789 327.505L183.755 334.064L171.129 341.624Z" fill="#DAC452"/>
<path d="M188.735 331.11L177.718 324.551L187.728 318.543L198.745 325.152L188.735 331.11Z" fill="black"/>
<path d="M156.742 350.235L145.726 343.627L158.352 336.117L169.368 342.675L156.742 350.235Z" fill="#DAC452"/>
<path d="M257.247 340.723L246.23 334.164L258.856 326.604L269.873 333.213L257.247 340.723Z" fill="#DAC452"/>
<path d="M242.86 349.334L231.844 342.776L244.47 335.216L255.486 341.774L242.86 349.334Z" fill="#DAC452"/>
<path d="M228.423 357.946L217.407 351.387L230.033 343.827L241.049 350.386L228.423 357.946Z" fill="#DAC452"/>
<path d="M202.721 374L188.5 365.483L209.279 353L223.5 361.517L202.721 374Z" fill="#00AB8C"/>
<path d="M131.381 344.376C131.58 344.525 131.929 344.525 132.178 344.376C132.378 344.226 132.378 344.027 132.178 343.928C131.979 343.778 131.63 343.778 131.381 343.928C131.132 344.027 131.132 344.226 131.381 344.376Z" fill="white"/>
<path d="M128.838 345.82L127.492 346.616C127.243 346.766 126.894 346.566 127.143 346.417L128.489 345.62L127.991 345.322L130.334 344.525L130.234 344.475L128.888 344.923C128.589 345.023 128.39 344.774 128.689 344.674L130.135 344.226C130.284 344.177 130.683 344.127 130.982 344.276L131.231 344.425L131.53 344.575C131.83 344.724 131.73 344.973 131.68 345.073L130.882 345.969C130.733 346.168 130.284 346.019 130.484 345.869L131.231 345.073L131.132 345.023L129.835 346.417L129.337 346.118L127.941 346.965C127.692 347.114 127.343 346.915 127.592 346.766L128.988 345.919L128.838 345.82Z" fill="white"/>
<path d="M128.338 342.399C128.039 342.249 127.59 342.249 127.341 342.399L126.144 343.145C125.895 343.295 126.244 343.494 126.493 343.345L127.59 342.697L127.69 342.747L124.599 344.589C124.3 344.789 124.748 345.037 125.047 344.838L126.842 343.743L126.942 343.793L125.147 344.888C124.848 345.087 125.297 345.336 125.596 345.137L128.687 343.295L128.786 343.345L127.69 343.992C127.44 344.141 127.789 344.34 128.039 344.191L129.235 343.444C129.484 343.295 129.534 342.996 129.235 342.847L128.338 342.399Z" fill="white"/>
<path d="M129.235 342.697C129.538 342.697 129.783 342.541 129.783 342.349C129.783 342.156 129.538 342 129.235 342C128.932 342 128.687 342.156 128.687 342.349C128.687 342.541 128.932 342.697 129.235 342.697Z" fill="white"/>
<path d="M232.381 299.376C232.58 299.525 232.929 299.525 233.178 299.376C233.378 299.226 233.378 299.027 233.178 298.927C232.979 298.778 232.63 298.778 232.381 298.927C232.132 299.027 232.132 299.226 232.381 299.376Z" fill="white"/>
<path d="M229.838 300.819L228.492 301.616C228.243 301.765 227.894 301.566 228.143 301.417L229.489 300.62L228.991 300.321L231.334 299.525L231.234 299.475L229.888 299.923C229.589 300.023 229.39 299.774 229.689 299.674L231.135 299.226C231.284 299.176 231.683 299.127 231.982 299.276L232.231 299.425L232.53 299.575C232.83 299.724 232.73 299.973 232.68 300.073L231.882 300.969C231.733 301.168 231.284 301.018 231.484 300.869L232.231 300.073L232.132 300.023L230.835 301.417L230.337 301.118L228.941 301.964C228.692 302.114 228.343 301.915 228.592 301.765L229.988 300.919L229.838 300.819Z" fill="white"/>
<path d="M229.338 297.398C229.039 297.249 228.59 297.249 228.341 297.398L227.144 298.145C226.895 298.295 227.244 298.494 227.493 298.344L228.59 297.697L228.69 297.747L225.599 299.589C225.3 299.788 225.748 300.037 226.047 299.838L227.842 298.743L227.942 298.792L226.147 299.888C225.848 300.087 226.297 300.336 226.596 300.137L229.687 298.295L229.786 298.344L228.69 298.992C228.44 299.141 228.789 299.34 229.039 299.191L230.235 298.444C230.484 298.295 230.534 297.996 230.235 297.847L229.338 297.398Z" fill="white"/>
<path d="M230.235 297.697C230.538 297.697 230.783 297.541 230.783 297.349C230.783 297.156 230.538 297 230.235 297C229.932 297 229.687 297.156 229.687 297.349C229.687 297.541 229.932 297.697 230.235 297.697Z" fill="white"/>
<path d="M269.169 302.272L272.237 300.47C272.539 300.269 272.539 299.969 272.237 299.819L269.169 297.966C268.867 297.766 268.364 297.766 268.062 297.966L264.993 299.769C264.692 299.969 264.692 300.269 264.993 300.42L268.062 302.272C268.364 302.422 268.867 302.472 269.169 302.272ZM268.615 302.022L265.346 300.069L268.565 298.116L271.835 300.069L268.615 302.022Z" fill="white"/>
<path d="M273.193 297.966C273.444 297.816 273.796 298.016 273.545 298.167L272.539 298.767L272.941 298.717C273.193 298.717 273.243 298.968 272.941 298.968L271.935 299.018C271.784 299.018 271.684 298.968 271.684 298.868L271.784 298.267C271.784 298.066 272.237 298.117 272.237 298.267L272.187 298.517L273.193 297.966Z" fill="white"/>
<path d="M270.426 298.016C270.175 298.167 270.527 298.367 270.778 298.217L271.785 297.616L271.734 297.866C271.734 298.016 272.137 298.066 272.187 297.866L272.288 297.265C272.288 297.165 272.187 297.115 272.036 297.115L271.03 297.165C270.728 297.165 270.778 297.416 271.03 297.416L271.432 297.365L270.426 298.016Z" fill="white"/>
<path d="M270.225 300.271L269.622 299.92C269.571 299.87 269.42 299.87 269.32 299.92L268.565 300.371C268.515 300.421 268.515 300.471 268.565 300.471C268.565 300.471 268.565 300.471 268.616 300.521L267.66 301.122C267.509 301.222 267.76 301.372 267.911 301.272L268.867 300.671H268.917L267.962 301.272C267.76 301.372 268.062 301.522 268.213 301.422L269.169 300.821C269.219 300.821 269.219 300.871 269.219 300.871C269.269 300.922 269.37 300.922 269.42 300.871L270.175 300.421C270.276 300.421 270.326 300.321 270.225 300.271Z" fill="white"/>
<path d="M270.175 300.119C270.314 300.119 270.426 300.052 270.426 299.969C270.426 299.886 270.314 299.819 270.175 299.819C270.036 299.819 269.923 299.886 269.923 299.969C269.923 300.052 270.036 300.119 270.175 300.119Z" fill="white"/>
<path d="M268.917 299.519L268.314 299.168C268.263 299.118 268.112 299.118 268.012 299.168L267.257 299.619C267.207 299.669 267.207 299.719 267.257 299.719C267.257 299.719 267.257 299.719 267.307 299.769L266.352 300.37C266.201 300.47 266.452 300.62 266.603 300.52L267.559 299.919H267.609L266.654 300.52C266.452 300.62 266.754 300.771 266.905 300.67L267.861 300.07C267.911 300.07 267.911 300.12 267.911 300.12C267.961 300.17 268.062 300.17 268.112 300.12L268.867 299.669C269.018 299.619 269.018 299.569 268.917 299.519Z" fill="white"/>
<path d="M268.867 299.318C269.006 299.318 269.118 299.251 269.118 299.168C269.118 299.085 269.006 299.018 268.867 299.018C268.728 299.018 268.615 299.085 268.615 299.168C268.615 299.251 268.728 299.318 268.867 299.318Z" fill="white"/>
<path d="M187.729 327.656L190.797 325.853C191.099 325.653 191.099 325.353 190.797 325.202L187.729 323.35C187.427 323.15 186.924 323.15 186.622 323.35L183.554 325.152C183.252 325.353 183.252 325.653 183.554 325.803L186.622 327.656C186.924 327.806 187.377 327.856 187.729 327.656ZM187.175 327.405L183.906 325.453L187.125 323.5L190.395 325.453L187.175 327.405Z" fill="white"/>
<path d="M191.753 323.35C192.004 323.2 192.356 323.4 192.105 323.55L191.099 324.151L191.501 324.101C191.753 324.101 191.803 324.351 191.501 324.351L190.495 324.401C190.344 324.401 190.244 324.351 190.244 324.251L190.344 323.65C190.344 323.45 190.797 323.5 190.797 323.65L190.747 323.901L191.753 323.35Z" fill="white"/>
<path d="M188.936 323.35C188.684 323.5 189.036 323.7 189.288 323.55L190.294 322.949L190.244 323.2C190.244 323.35 190.646 323.4 190.696 323.2L190.797 322.599C190.797 322.499 190.696 322.449 190.545 322.449L189.539 322.499C189.237 322.499 189.288 322.749 189.539 322.749L189.942 322.699L188.936 323.35Z" fill="white"/>
<path d="M188.735 325.654L188.131 325.303C188.081 325.253 187.93 325.253 187.829 325.303L187.075 325.754C187.024 325.804 187.024 325.854 187.075 325.854C187.075 325.854 187.075 325.854 187.125 325.904L186.169 326.505C186.018 326.605 186.27 326.755 186.421 326.655L187.376 326.054H187.427L186.471 326.655C186.27 326.755 186.572 326.905 186.722 326.805L187.678 326.204C187.728 326.204 187.728 326.254 187.728 326.254C187.779 326.304 187.879 326.304 187.93 326.254L188.684 325.804C188.835 325.754 188.835 325.704 188.735 325.654Z" fill="white"/>
<path d="M188.684 325.453C188.823 325.453 188.936 325.385 188.936 325.302C188.936 325.219 188.823 325.152 188.684 325.152C188.545 325.152 188.433 325.219 188.433 325.302C188.433 325.385 188.545 325.453 188.684 325.453Z" fill="white"/>
<path d="M187.477 324.902L186.874 324.552C186.823 324.502 186.672 324.502 186.572 324.552L185.817 325.003C185.767 325.053 185.767 325.103 185.817 325.103C185.817 325.103 185.817 325.103 185.868 325.153L184.912 325.754C184.761 325.854 185.012 326.004 185.163 325.904L186.119 325.303H186.169L185.214 325.904C185.012 326.004 185.314 326.154 185.465 326.054L186.421 325.453C186.471 325.453 186.471 325.503 186.471 325.503C186.521 325.553 186.622 325.553 186.672 325.503L187.427 325.053C187.527 325.003 187.528 324.953 187.477 324.902Z" fill="white"/>
<path d="M187.427 324.702C187.566 324.702 187.678 324.634 187.678 324.551C187.678 324.468 187.566 324.401 187.427 324.401C187.288 324.401 187.175 324.468 187.175 324.551C187.175 324.634 187.288 324.702 187.427 324.702Z" fill="white"/>
<path d="M200.226 362.091L201.461 363L202.768 362.091L204.075 363L205.383 362L206.69 363L207.997 362L209.304 363L210.612 362L212.5 363.455L211.846 364L210.612 363L209.304 364L207.997 363L206.69 364L205.383 363L204.075 364L202.768 363L201.461 364L199.5 362.545L200.226 362.091Z" fill="white"/>
<path d="M100.756 341.223C100.957 341.324 101.309 341.324 101.51 341.223C101.712 341.123 101.712 340.873 101.51 340.773C101.309 340.673 100.957 340.673 100.756 340.773C100.555 340.923 100.555 341.123 100.756 341.223Z" fill="white"/>
<path d="M103.724 342.625L102.818 342.075C102.617 341.975 102.315 341.874 102.064 341.874H100.454L100.705 341.724C101.208 341.424 100.454 340.973 99.9508 341.274L98.9951 341.874H97.5866C97.4357 341.874 97.4357 341.874 97.3351 341.774L96.8823 341.524C96.4296 341.274 95.7757 341.324 95.4739 341.524C95.1721 341.724 94.9708 342.125 95.4739 342.425C95.4739 342.425 96.0775 342.776 96.2284 342.876C96.4296 342.976 96.6811 343.076 97.0333 343.076H101.56C101.661 343.076 101.711 343.076 101.762 343.126C101.762 343.126 102.064 343.326 102.315 343.477C102.567 343.627 103.271 343.677 103.724 343.426C104.126 343.176 104.025 342.776 103.724 342.625ZM102.617 343.226L102.164 342.926C101.963 342.826 101.862 342.776 101.611 342.776H97.0836C96.8823 342.776 96.7314 342.726 96.5805 342.625L95.826 342.175C95.6248 342.075 95.6248 341.874 95.826 341.724C96.0272 341.574 96.329 341.624 96.4799 341.724L96.983 342.025C97.1339 342.125 97.2848 342.125 97.4357 342.125H102.064C102.265 342.125 102.365 342.175 102.516 342.275L103.321 342.726C103.522 342.826 103.422 343.026 103.321 343.126C103.17 343.276 102.868 343.376 102.617 343.226Z" fill="white"/>
<path d="M255.436 311.384C255.637 311.484 255.989 311.484 256.19 311.384C256.391 311.284 256.391 311.034 256.19 310.933C255.989 310.833 255.637 310.833 255.436 310.933C255.184 311.084 255.184 311.284 255.436 311.384Z" fill="white"/>
<path d="M258.404 312.736L257.498 312.185C257.297 312.085 256.995 311.985 256.744 311.985H255.134L255.386 311.835C255.889 311.534 255.134 311.084 254.631 311.384L253.675 311.985H252.267C252.116 311.985 252.116 311.985 252.015 311.885L251.563 311.634C251.11 311.384 250.456 311.434 250.154 311.634C249.802 311.835 249.651 312.235 250.154 312.536C250.154 312.536 250.758 312.886 250.909 312.986C251.11 313.086 251.361 313.186 251.714 313.186H256.241C256.341 313.186 256.392 313.186 256.442 313.236C256.442 313.236 256.744 313.437 256.995 313.587C257.247 313.737 257.951 313.787 258.404 313.537C258.756 313.337 258.655 312.936 258.404 312.736ZM257.247 313.387L256.794 313.086C256.593 312.986 256.492 312.936 256.241 312.936H251.714C251.512 312.936 251.361 312.886 251.211 312.786L250.456 312.335C250.255 312.235 250.255 312.035 250.456 311.885C250.657 311.734 250.959 311.785 251.11 311.885L251.613 312.185C251.764 312.285 251.915 312.285 252.066 312.285H256.693C256.895 312.285 256.995 312.335 257.146 312.435L257.951 312.886C258.152 312.986 258.052 313.186 257.951 313.287C257.8 313.437 257.498 313.537 257.247 313.387Z" fill="white"/>
<mask id="path-48-inside-1" fill="white">
<path d="M154.831 391.39L155.233 382.028L85.4131 340.322L96.8318 333.463L114.438 344.027L128.221 335.766L141.5 343.727L227.92 292.108L209.409 281.044L237.729 264.121L256.241 275.186L299.601 249.302L356.997 283.597L201.763 376.32L188.735 368.51L170.374 379.474L169.267 400.001"/>
</mask>
<path d="M151.833 391.261C151.762 392.916 153.046 394.316 154.702 394.387C156.357 394.458 157.757 393.174 157.828 391.519L151.833 391.261ZM155.233 382.028L158.23 382.156L158.307 380.369L156.771 379.452L155.233 382.028ZM85.4131 340.322L83.8683 337.751L79.575 340.33L83.8747 342.898L85.4131 340.322ZM96.8318 333.463L98.3753 330.891L96.8309 329.964L95.287 330.892L96.8318 333.463ZM114.438 344.027L112.894 346.6L114.437 347.525L115.98 346.6L114.438 344.027ZM128.221 335.766L129.763 333.193L128.221 332.269L126.678 333.193L128.221 335.766ZM141.5 343.727L139.958 346.3L141.498 347.223L143.039 346.302L141.5 343.727ZM227.92 292.108L229.459 294.684L233.769 292.109L229.459 289.533L227.92 292.108ZM209.409 281.044L207.87 278.469L203.561 281.043L207.87 283.619L209.409 281.044ZM237.729 264.121L239.268 261.546L237.73 260.626L236.19 261.546L237.729 264.121ZM256.241 275.186L254.701 277.761L256.24 278.681L257.778 277.762L256.241 275.186ZM299.601 249.302L301.14 246.726L299.602 245.807L298.064 246.726L299.601 249.302ZM356.997 283.597L358.535 286.173L362.846 283.598L358.536 281.022L356.997 283.597ZM201.763 376.32L200.22 378.893L201.76 379.816L203.301 378.896L201.763 376.32ZM188.735 368.51L190.277 365.937L188.738 365.014L187.196 365.934L188.735 368.51ZM170.374 379.474L168.836 376.899L167.464 377.718L167.378 379.313L170.374 379.474ZM166.272 399.84C166.183 401.494 167.452 402.908 169.106 402.997C170.76 403.086 172.174 401.817 172.263 400.163L166.272 399.84ZM157.828 391.519L158.23 382.156L152.236 381.899L151.833 391.261L157.828 391.519ZM156.771 379.452L86.9515 337.747L83.8747 342.898L153.695 384.603L156.771 379.452ZM86.9579 342.894L98.3766 336.035L95.287 330.892L83.8683 337.751L86.9579 342.894ZM95.2882 336.036L112.894 346.6L115.981 341.455L98.3753 330.891L95.2882 336.036ZM115.98 346.6L129.763 338.339L126.678 333.193L112.895 341.454L115.98 346.6ZM126.678 338.339L139.958 346.3L143.043 341.154L129.763 333.193L126.678 338.339ZM143.039 346.302L229.459 294.684L226.382 289.533L139.962 341.151L143.039 346.302ZM229.459 289.533L210.948 278.469L207.87 283.619L226.381 294.684L229.459 289.533ZM210.948 283.619L239.268 266.697L236.19 261.546L207.87 278.469L210.948 283.619ZM236.19 266.696L254.701 277.761L257.78 272.611L239.268 261.546L236.19 266.696ZM257.778 277.762L301.139 251.878L298.064 246.726L254.703 272.61L257.778 277.762ZM298.063 251.877L355.458 286.172L358.536 281.022L301.14 246.726L298.063 251.877ZM355.458 281.022L200.225 373.744L203.301 378.896L358.535 286.173L355.458 281.022ZM203.305 373.747L190.277 365.937L187.192 371.083L200.22 378.893L203.305 373.747ZM187.196 365.934L168.836 376.899L171.912 382.05L190.273 371.085L187.196 365.934ZM167.378 379.313L166.272 399.84L172.263 400.163L173.37 379.636L167.378 379.313Z" fill="black" mask="url(#path-48-inside-1)"/>
<path opacity="0.9" d="M237 223L244.5 218.5L265 314.5L257.5 319L237 223Z" fill="url(#paint0_linear)"/>
<path opacity="0.9" d="M107 270L114.5 265.5L110 344L102.5 348.5L107 270Z" fill="url(#paint1_linear)"/>
<path opacity="0.8" d="M173 314L263.5 257.5L209.5 225.5L119 279L173 314Z" fill="#C4C4C4"/>
<path d="M174.688 218.906L201.028 234.527L210.169 229.094L261.179 259.316L356.517 202.801L301.772 170.396L282.753 181.65L260.147 168.261L174.688 218.906Z" fill="white"/>
<path d="M85.8858 185.919L183.877 243.986L121.859 280.709L23.8672 222.69L85.8858 185.919Z" fill="white"/>
<path d="M106.772 220.798L113.75 224.922L94.0438 236.613L87.0654 232.441L106.772 220.798Z" fill="black"/>
<path d="M200.537 207.167L213.756 214.977L207.024 218.955L193.854 211.145L200.537 207.167Z" fill="black"/>
<path d="M259.214 196.883L266.192 201.006L246.436 212.649L239.458 208.525L259.214 196.883Z" fill="black"/>
<path d="M103.381 228.376C103.58 228.525 103.929 228.525 104.178 228.376C104.378 228.226 104.378 228.027 104.178 227.927C103.979 227.778 103.63 227.778 103.381 227.927C103.132 228.027 103.132 228.226 103.381 228.376Z" fill="white"/>
<path d="M100.838 229.819L99.4923 230.616C99.2431 230.765 98.8941 230.566 99.1434 230.417L100.489 229.62L99.9909 229.321L102.334 228.525L102.234 228.475L100.888 228.923C100.589 229.023 100.39 228.774 100.689 228.674L102.135 228.226C102.284 228.176 102.683 228.127 102.982 228.276L103.231 228.425L103.53 228.575C103.83 228.724 103.73 228.973 103.68 229.073L102.882 229.969C102.733 230.168 102.284 230.019 102.484 229.869L103.231 229.073L103.132 229.023L101.835 230.417L101.337 230.118L99.941 230.965C99.6918 231.114 99.3428 230.915 99.5921 230.765L100.988 229.919L100.838 229.819Z" fill="white"/>
<path d="M100.338 226.398C100.039 226.249 99.5898 226.249 99.3406 226.398L98.1441 227.145C97.8948 227.295 98.2438 227.494 98.4931 227.344L99.5898 226.697L99.6895 226.747L96.5986 228.589C96.2995 228.788 96.7482 229.037 97.0473 228.838L98.842 227.743L98.9417 227.792L97.147 228.888C96.8479 229.087 97.2966 229.336 97.5957 229.137L100.687 227.295L100.786 227.344L99.6895 227.992C99.4403 228.141 99.7892 228.34 100.039 228.191L101.235 227.444C101.484 227.295 101.534 226.996 101.235 226.847L100.338 226.398Z" fill="white"/>
<path d="M101.235 226.697C101.538 226.697 101.783 226.541 101.783 226.349C101.783 226.156 101.538 226 101.235 226C100.932 226 100.687 226.156 100.687 226.349C100.687 226.541 100.932 226.697 101.235 226.697Z" fill="white"/>
<path d="M254.153 203.868C254.349 204.014 254.693 204.014 254.939 203.868C255.135 203.722 255.135 203.528 254.939 203.431C254.742 203.286 254.398 203.286 254.153 203.431C253.907 203.528 253.907 203.771 254.153 203.868Z" fill="white"/>
<path d="M251.646 205.275L250.319 206.051C250.073 206.197 249.729 206.002 249.975 205.857L251.302 205.081L250.811 204.79L253.12 204.014L253.022 203.965L251.695 204.402C251.4 204.499 251.204 204.256 251.499 204.159L252.924 203.722C253.071 203.674 253.464 203.625 253.759 203.771L254.005 203.917L254.3 204.062C254.595 204.208 254.496 204.45 254.447 204.547L253.661 205.42C253.514 205.614 253.071 205.469 253.268 205.323L254.005 204.547L253.907 204.499L252.629 205.857L252.137 205.566L250.761 206.391C250.516 206.536 250.172 206.342 250.417 206.197L251.793 205.372L251.646 205.275Z" fill="white"/>
<path d="M204.96 211.969C204.665 211.824 204.223 211.824 203.977 211.969L202.797 212.697C202.552 212.843 202.896 213.037 203.141 212.891L204.223 212.26L204.321 212.309L201.274 214.104C200.979 214.298 201.421 214.54 201.716 214.346L203.485 213.279L203.584 213.328L201.815 214.395C201.52 214.589 201.962 214.831 202.257 214.637L205.304 212.843L205.402 212.891L204.321 213.522C204.075 213.667 204.419 213.861 204.665 213.716L205.844 212.988C206.09 212.843 206.139 212.551 205.844 212.406L204.96 211.969Z" fill="white"/>
<path d="M205.844 212.26C206.143 212.26 206.385 212.108 206.385 211.921C206.385 211.733 206.143 211.581 205.844 211.581C205.546 211.581 205.304 211.733 205.304 211.921C205.304 212.108 205.546 212.26 205.844 212.26Z" fill="white"/>
<path d="M192.429 211.969L198.67 215.656L186.925 222.593L180.684 218.906L192.429 211.969Z" fill="black"/>
<path d="M188.055 223.272L195.131 227.444L202.552 231.859L214.297 224.922L222.406 220.119L214.936 215.705L206.877 220.507L199.8 216.287L188.055 223.272Z" fill="#DAC452"/>
<path d="M267.568 201.831L281.18 209.883L261.474 221.574L247.861 213.473L267.568 201.831Z" fill="black"/>
<path d="M282.213 210.514L289.241 214.637L269.485 226.328L262.507 222.205L282.213 210.514Z" fill="#FF0000"/>
<path d="M276.021 220.75L279.018 219.003C279.313 218.809 279.313 218.518 279.018 218.373L276.021 216.578C275.726 216.384 275.234 216.384 274.94 216.578L271.942 218.324C271.647 218.518 271.647 218.809 271.942 218.955L274.94 220.75C275.234 220.944 275.726 220.944 276.021 220.75ZM275.48 220.507L272.286 218.615L275.431 216.723L278.625 218.615L275.48 220.507Z" fill="white"/>
<path d="M279.952 216.578C280.198 216.432 280.542 216.626 280.296 216.772L279.313 217.354L279.706 217.306C279.952 217.306 280.001 217.548 279.706 217.548L278.723 217.597C278.576 217.597 278.478 217.548 278.478 217.451L278.576 216.869C278.576 216.675 279.018 216.723 279.018 216.869L278.969 217.111L279.952 216.578Z" fill="white"/>
<path d="M277.249 216.626C277.003 216.772 277.347 216.966 277.593 216.82L278.576 216.238L278.527 216.481C278.527 216.626 278.92 216.675 278.969 216.481L279.067 215.899C279.067 215.802 278.969 215.753 278.822 215.753L277.839 215.802C277.544 215.802 277.593 216.044 277.839 216.044L278.232 215.996L277.249 216.626Z" fill="white"/>
<path d="M277.053 218.809L276.463 218.47C276.414 218.421 276.266 218.421 276.168 218.47L275.431 218.906C275.382 218.955 275.382 219.003 275.431 219.003C275.431 219.003 275.431 219.003 275.48 219.052L274.546 219.634C274.399 219.731 274.645 219.877 274.792 219.78L275.726 219.197H275.775L274.841 219.78C274.645 219.877 274.94 220.022 275.087 219.925L276.021 219.343C276.07 219.343 276.07 219.392 276.07 219.392C276.119 219.44 276.217 219.44 276.266 219.392L277.004 218.955C277.102 218.955 277.102 218.858 277.053 218.809Z" fill="white"/>
<path d="M277.004 218.664C277.139 218.664 277.249 218.599 277.249 218.518C277.249 218.438 277.139 218.373 277.004 218.373C276.868 218.373 276.758 218.438 276.758 218.518C276.758 218.599 276.868 218.664 277.004 218.664Z" fill="white"/>
<path d="M275.775 218.082L275.185 217.742C275.136 217.694 274.989 217.694 274.89 217.742L274.153 218.179C274.104 218.227 274.104 218.276 274.153 218.276C274.153 218.276 274.153 218.276 274.202 218.324L273.269 218.906C273.121 219.003 273.367 219.149 273.514 219.052L274.448 218.47H274.497L273.563 219.052C273.367 219.149 273.662 219.295 273.809 219.198L274.743 218.615C274.792 218.615 274.792 218.664 274.792 218.664C274.841 218.712 274.939 218.712 274.989 218.664L275.726 218.227C275.873 218.179 275.873 218.13 275.775 218.082Z" fill="white"/>
<path d="M275.726 217.888C275.861 217.888 275.971 217.823 275.971 217.742C275.971 217.662 275.861 217.597 275.726 217.597C275.59 217.597 275.48 217.662 275.48 217.742C275.48 217.823 275.59 217.888 275.726 217.888Z" fill="white"/>
<path d="M238.426 184.561L258.133 196.252L238.426 207.943L218.72 196.252L238.426 184.561Z" fill="black"/>
<path d="M295.285 218.227L310.716 227.396L291.009 239.087L284.375 235.109L287.864 222.642L295.285 218.227Z" fill="#DAC452"/>
<path d="M318.382 190.382L297.545 202.704L324.967 218.955L352.094 202.898L327.375 188.199L321.035 191.983L318.382 190.382Z" fill="#DAC452"/>
<path d="M292.729 199.842L313.566 187.52L310.863 185.968L317.202 182.184L301.869 173.112L274.693 189.169L292.729 199.842Z" fill="#DAC452"/>
<path d="M261.229 171.075L280.935 182.766L259.558 195.427L239.852 183.736L261.229 171.075Z" fill="black"/>
<path d="M115.126 225.746L124.857 231.519L105.15 243.162L95.4199 237.437L115.126 225.746Z" fill="black"/>
<path d="M129.082 244.714L139.55 250.923L128.885 257.23L118.418 251.02L129.082 244.714Z" fill="#C8A67C"/>
<path d="M140.828 251.699L153.753 259.364L143.089 265.671L130.164 258.006L140.828 251.699Z" fill="#C8A67C"/>
<path d="M139.304 238.65L130.262 244.035L154.932 258.637L179.7 243.986L151.148 227.056L135.422 236.37L139.304 238.65Z" fill="black"/>
<path d="M129.82 234.43L136.798 238.553L117.092 250.244L110.113 246.121L129.82 234.43Z" fill="black"/>
<path d="M122.4 245.393L125.397 243.647C125.692 243.453 125.692 243.162 125.397 243.016L122.4 241.221C122.105 241.027 121.613 241.027 121.318 241.221L118.321 242.967C118.026 243.162 118.026 243.453 118.321 243.598L121.318 245.393C121.613 245.539 122.056 245.587 122.4 245.393ZM121.859 245.15L118.665 243.259L121.81 241.367L125.004 243.259L121.859 245.15Z" fill="white"/>
<path d="M126.331 241.221C126.576 241.076 126.92 241.27 126.675 241.415L125.692 241.997L126.085 241.949C126.331 241.949 126.38 242.191 126.085 242.191L125.102 242.24C124.955 242.24 124.856 242.191 124.856 242.094L124.955 241.512C124.955 241.318 125.397 241.367 125.397 241.512L125.348 241.755L126.331 241.221Z" fill="white"/>
<path d="M123.579 241.221C123.333 241.367 123.677 241.561 123.923 241.415L124.906 240.833L124.857 241.076C124.857 241.221 125.25 241.27 125.299 241.076L125.397 240.493C125.397 240.396 125.299 240.348 125.152 240.348L124.169 240.396C123.874 240.396 123.923 240.639 124.169 240.639L124.562 240.59L123.579 241.221Z" fill="white"/>
<path d="M123.382 243.453L122.793 243.113C122.743 243.064 122.596 243.064 122.498 243.113L121.761 243.55C121.711 243.598 121.711 243.647 121.761 243.647C121.761 243.647 121.761 243.647 121.81 243.695L120.876 244.277C120.729 244.374 120.974 244.52 121.122 244.423L122.055 243.841H122.105L121.171 244.423C120.974 244.52 121.269 244.665 121.417 244.568L122.35 243.986C122.399 243.986 122.399 244.035 122.399 244.035C122.449 244.083 122.547 244.083 122.596 244.035L123.333 243.598C123.481 243.598 123.481 243.501 123.382 243.453Z" fill="white"/>
<path d="M123.382 243.259C123.518 243.259 123.628 243.193 123.628 243.113C123.628 243.033 123.518 242.968 123.382 242.968C123.247 242.968 123.137 243.033 123.137 243.113C123.137 243.193 123.247 243.259 123.382 243.259Z" fill="white"/>
<path d="M122.154 242.725L121.564 242.385C121.515 242.337 121.368 242.337 121.269 242.385L120.532 242.822C120.483 242.87 120.483 242.919 120.532 242.919C120.532 242.919 120.532 242.919 120.581 242.967L119.648 243.55C119.5 243.647 119.746 243.792 119.893 243.695L120.827 243.113H120.876L119.942 243.695C119.746 243.792 120.041 243.938 120.188 243.841L121.122 243.259C121.171 243.259 121.171 243.307 121.171 243.307C121.22 243.356 121.318 243.356 121.368 243.307L122.105 242.87C122.203 242.822 122.203 242.773 122.154 242.725Z" fill="white"/>
<path d="M122.105 242.531C122.24 242.531 122.35 242.466 122.35 242.385C122.35 242.305 122.24 242.24 122.105 242.24C121.969 242.24 121.859 242.305 121.859 242.385C121.859 242.466 121.969 242.531 122.105 242.531Z" fill="white"/>
<path d="M85.9847 231.859L105.74 220.168L89.867 210.805L106.821 200.763L96.5013 194.699L79.5961 204.693L59.8896 216.384L85.9847 231.859Z" fill="black"/>
<path d="M123.677 210.757L138.322 219.44L122.596 228.754L107.951 220.071L123.677 210.757Z" fill="black"/>
<path d="M63.9189 227.541L94.2894 245.539L80.431 253.737L50.0605 235.74L63.9189 227.541Z" fill="#C8A67C"/>
<path d="M85.886 188.393L95.2724 193.923L58.6608 215.608L49.2744 210.077L85.886 188.393Z" fill="black"/>
<path d="M48.1926 210.757L69.0785 223.127L48.9298 235.06L28.0439 222.69L48.1926 210.757Z" fill="black"/>
<path d="M287.078 200.036L300.494 207.991L293.27 212.26L279.854 204.305L287.078 200.036Z" fill="black"/>
<path d="M291.156 205.032C291.353 205.129 291.697 205.129 291.893 205.032C292.09 204.935 292.09 204.693 291.893 204.596C291.697 204.499 291.353 204.499 291.156 204.596C290.96 204.741 290.96 204.935 291.156 205.032Z" fill="white"/>
<path d="M294.056 206.342L293.171 205.808C292.975 205.711 292.68 205.614 292.434 205.614H290.862L291.107 205.469C291.599 205.178 290.862 204.741 290.37 205.032L289.436 205.614H288.06C287.913 205.614 287.913 205.614 287.815 205.517L287.372 205.275C286.93 205.032 286.291 205.081 285.996 205.275C285.652 205.469 285.505 205.857 285.996 206.148C285.996 206.148 286.586 206.488 286.734 206.585C286.93 206.682 287.176 206.779 287.52 206.779H291.943C292.041 206.779 292.09 206.779 292.139 206.827C292.139 206.827 292.434 207.021 292.68 207.167C292.926 207.312 293.614 207.361 294.056 207.118C294.449 206.924 294.351 206.536 294.056 206.342ZM292.975 206.973L292.532 206.682C292.336 206.585 292.238 206.536 291.992 206.536H287.569C287.372 206.536 287.225 206.488 287.078 206.391L286.34 205.954C286.144 205.857 286.144 205.663 286.34 205.517C286.537 205.372 286.832 205.42 286.979 205.517L287.471 205.808C287.618 205.906 287.766 205.906 287.913 205.906H292.434C292.631 205.906 292.729 205.954 292.876 206.051L293.663 206.488C293.859 206.585 293.761 206.779 293.663 206.876C293.515 207.021 293.22 207.118 292.975 206.973Z" fill="white"/>
<path d="M244.078 218.906L263.047 230.161L255.774 234.43L236.854 223.224L244.078 218.906Z" fill="black"/>
<path d="M250.908 225.601C251.105 225.698 251.449 225.698 251.645 225.601C251.842 225.504 251.842 225.261 251.645 225.164C251.449 225.067 251.105 225.067 250.908 225.164C250.712 225.261 250.712 225.455 250.908 225.601Z" fill="white"/>
<path d="M253.808 226.911L252.923 226.377C252.727 226.28 252.432 226.183 252.186 226.183H250.613L250.859 226.038C251.351 225.746 250.613 225.31 250.122 225.601L249.188 226.183H247.812C247.665 226.183 247.665 226.183 247.567 226.086L247.124 225.843C246.682 225.601 246.043 225.649 245.748 225.843C245.404 226.038 245.257 226.426 245.748 226.717C245.748 226.717 246.338 227.056 246.485 227.153C246.682 227.25 246.928 227.347 247.272 227.347H251.695C251.793 227.347 251.842 227.347 251.891 227.396C251.891 227.396 252.186 227.59 252.432 227.735C252.677 227.881 253.365 227.929 253.808 227.687C254.201 227.444 254.103 227.056 253.808 226.911ZM252.727 227.493L252.284 227.202C252.088 227.105 251.989 227.056 251.744 227.056H247.321C247.124 227.056 246.977 227.008 246.829 226.911L246.092 226.474C245.896 226.377 245.896 226.183 246.092 226.038C246.289 225.892 246.584 225.941 246.731 226.038L247.223 226.329C247.37 226.426 247.517 226.426 247.665 226.426H252.186C252.383 226.426 252.481 226.474 252.628 226.571L253.415 227.008C253.611 227.105 253.513 227.299 253.415 227.396C253.316 227.493 252.972 227.638 252.727 227.493Z" fill="white"/>
<path d="M96.058 254.416L115.027 265.622L107.803 269.939L88.834 258.685L96.058 254.416Z" fill="black"/>
<path d="M102.938 261.062C103.135 261.159 103.479 261.159 103.676 261.062C103.872 260.965 103.872 260.723 103.676 260.626C103.479 260.528 103.135 260.528 102.938 260.626C102.742 260.771 102.742 260.965 102.938 261.062Z" fill="white"/>
<path d="M105.838 262.372L104.953 261.838C104.757 261.741 104.462 261.644 104.216 261.644H102.644L102.889 261.499C103.381 261.208 102.644 260.771 102.152 261.062L101.219 261.644H99.8426C99.6952 261.644 99.6952 261.644 99.5969 261.547L99.1546 261.305C98.7123 261.062 98.0734 261.111 97.7786 261.305C97.4346 261.499 97.2871 261.887 97.7786 262.178C97.7786 262.178 98.3683 262.517 98.5157 262.614C98.7123 262.711 98.958 262.809 99.302 262.809H103.725C103.823 262.809 103.872 262.809 103.921 262.857C103.921 262.857 104.216 263.051 104.462 263.197C104.708 263.342 105.396 263.391 105.838 263.148C106.182 262.954 106.133 262.566 105.838 262.372ZM104.708 263.003L104.265 262.711C104.069 262.614 103.971 262.566 103.725 262.566H99.302C99.1055 262.566 98.958 262.517 98.8106 262.42L98.0734 261.984C97.8769 261.887 97.8769 261.693 98.0734 261.547C98.27 261.402 98.5649 261.45 98.7123 261.547L99.2037 261.838C99.3512 261.935 99.4986 261.935 99.646 261.935H104.167C104.364 261.935 104.462 261.984 104.609 262.081L105.396 262.517C105.592 262.614 105.494 262.809 105.396 262.906C105.297 263.051 104.953 263.148 104.708 263.003Z" fill="white"/>
<path d="M196.458 236.516L207.171 242.919L197.441 248.74L186.679 242.337L196.458 236.516Z" fill="black"/>
<path d="M196.409 245.345L199.407 243.598C199.702 243.404 199.702 243.113 199.407 242.968L196.409 241.173C196.115 240.979 195.623 240.979 195.328 241.173L192.331 242.919C192.036 243.113 192.036 243.404 192.331 243.55L195.328 245.345C195.623 245.49 196.115 245.539 196.409 245.345ZM195.869 245.102L192.675 243.21L195.82 241.318L199.014 243.21L195.869 245.102Z" fill="white"/>
<path d="M200.341 241.173C200.586 241.027 200.93 241.221 200.685 241.367L199.702 241.949L200.095 241.9C200.341 241.9 200.39 242.143 200.095 242.143L199.112 242.191C198.964 242.191 198.866 242.143 198.866 242.046L198.964 241.464C198.964 241.27 199.407 241.318 199.407 241.464L199.358 241.706L200.341 241.173Z" fill="white"/>
<path d="M197.638 241.173C197.392 241.318 197.736 241.512 197.982 241.367L198.965 240.785L198.915 241.027C198.915 241.173 199.309 241.221 199.358 241.027L199.456 240.445C199.456 240.348 199.358 240.3 199.21 240.3L198.227 240.348C197.933 240.348 197.982 240.591 198.227 240.591L198.621 240.542L197.638 241.173Z" fill="white"/>
<path d="M197.441 243.404L196.852 243.065C196.803 243.016 196.655 243.016 196.557 243.065L195.82 243.501C195.771 243.55 195.771 243.598 195.82 243.598C195.82 243.598 195.82 243.598 195.869 243.647L194.935 244.229C194.788 244.326 195.033 244.472 195.181 244.374L196.115 243.792H196.164L195.23 244.374C195.033 244.472 195.328 244.617 195.476 244.52L196.409 243.938C196.459 243.938 196.459 243.986 196.459 243.986C196.508 244.035 196.606 244.035 196.655 243.986L197.392 243.55C197.54 243.501 197.54 243.453 197.441 243.404Z" fill="white"/>
<path d="M197.392 243.21C197.528 243.21 197.638 243.145 197.638 243.065C197.638 242.984 197.528 242.919 197.392 242.919C197.256 242.919 197.146 242.984 197.146 243.065C197.146 243.145 197.256 243.21 197.392 243.21Z" fill="white"/>
<path d="M196.164 242.677L195.574 242.337C195.525 242.289 195.377 242.289 195.279 242.337L194.542 242.774C194.493 242.822 194.493 242.871 194.542 242.871C194.542 242.871 194.542 242.871 194.591 242.919L193.657 243.501C193.51 243.598 193.756 243.744 193.903 243.647L194.837 243.065H194.886L193.952 243.647C193.756 243.744 194.05 243.889 194.198 243.792L195.132 243.21C195.181 243.21 195.181 243.259 195.181 243.259C195.23 243.307 195.328 243.307 195.377 243.259L196.114 242.822C196.262 242.774 196.262 242.725 196.164 242.677Z" fill="white"/>
<path d="M196.164 242.483C196.299 242.483 196.409 242.417 196.409 242.337C196.409 242.257 196.299 242.192 196.164 242.192C196.028 242.192 195.918 242.257 195.918 242.337C195.918 242.417 196.028 242.483 196.164 242.483Z" fill="white"/>
<path d="M210.316 231.422L229.236 242.676L222.012 246.945L203.092 235.739L210.316 231.422Z" fill="black"/>
<path d="M217.147 238.117C217.344 238.214 217.688 238.214 217.885 238.117C218.081 238.02 218.081 237.777 217.885 237.68C217.688 237.583 217.344 237.583 217.147 237.68C216.951 237.777 216.951 237.971 217.147 238.117Z" fill="white"/>
<path d="M220.047 239.426L219.162 238.893C218.966 238.796 218.671 238.699 218.425 238.699H216.853L217.098 238.553C217.59 238.262 216.853 237.825 216.361 238.117L215.428 238.699H214.052C213.904 238.699 213.904 238.699 213.806 238.602L213.364 238.359C212.921 238.117 212.282 238.165 211.988 238.359C211.644 238.553 211.496 238.941 211.988 239.232C211.988 239.232 212.577 239.572 212.725 239.669C212.921 239.766 213.167 239.863 213.511 239.863H217.934C218.032 239.863 218.081 239.863 218.13 239.911C218.13 239.911 218.425 240.105 218.671 240.251C218.917 240.397 219.605 240.445 220.047 240.203C220.44 239.96 220.342 239.572 220.047 239.426ZM218.966 240.008L218.524 239.717C218.327 239.62 218.229 239.572 217.983 239.572H213.56C213.364 239.572 213.216 239.523 213.069 239.426L212.332 238.99C212.135 238.893 212.135 238.699 212.332 238.553C212.528 238.408 212.823 238.456 212.97 238.553L213.462 238.844C213.609 238.941 213.757 238.941 213.904 238.941H218.425C218.622 238.941 218.72 238.99 218.868 239.087L219.654 239.523C219.85 239.62 219.752 239.814 219.654 239.911C219.506 240.057 219.212 240.154 218.966 240.008Z" fill="white"/>
<path d="M210.933 227.803L210.168 227.349L209.402 227.804L201.027 232.782L177.629 218.907L260.148 170.005L281.989 182.941L282.753 183.393L283.517 182.941L301.772 172.139L353.574 202.802L261.179 257.572L210.933 227.803Z" stroke="black" stroke-width="3" stroke-miterlimit="10"/>
<path d="M26.8099 222.689L85.886 187.663L180.934 243.986L121.859 278.966L26.8099 222.689Z" stroke="black" stroke-width="3" stroke-miterlimit="10"/>
<path opacity="0.9" d="M93 181L100.5 176.5L96 255L88.5 259.5L93 181Z" fill="url(#paint2_linear)"/>
<path opacity="0.9" d="M234.5 146L242 141.5L263 230L255.5 234.5L234.5 146Z" fill="url(#paint3_linear)"/>
<path opacity="0.9" d="M272.5 123L280 118.5L301 208L293.5 212.5L272.5 123Z" fill="url(#paint4_linear)"/>
<path opacity="0.9" d="M190.5 146.5L198 142L229 243L221.5 247.5L190.5 146.5Z" fill="url(#paint5_linear)"/>
<path d="M106.938 193.253L169.204 155.912L184.609 165.172L201.11 155.264L185.706 146.053L197.122 139.232L263.576 179.063L356.952 123.101L301.216 89.7419L282.371 101.044L260.236 87.7503L223.445 109.807L187.5 88.4999L158.585 105.826L110.477 76.7968L11.5684 136.095L106.938 193.253Z" fill="white"/>
<path d="M232.169 107.417L276.538 134.004L256.547 146.004L212.178 119.416L232.169 107.417Z" fill="black"/>
<path d="M209.834 104.927L220.752 111.45L209.834 117.972L198.917 111.45L209.834 104.927Z" fill="black"/>
<path d="M213.381 111.375C213.58 111.525 213.929 111.525 214.178 111.375C214.378 111.226 214.378 111.027 214.178 110.927C213.979 110.778 213.63 110.778 213.381 110.927C213.132 111.027 213.132 111.226 213.381 111.375Z" fill="white"/>
<path d="M210.838 112.819L209.492 113.616C209.243 113.765 208.894 113.566 209.143 113.417L210.489 112.62L209.991 112.321L212.334 111.525L212.234 111.475L210.888 111.923C210.589 112.022 210.39 111.773 210.689 111.674L212.135 111.226C212.284 111.176 212.683 111.126 212.982 111.276L213.231 111.425L213.53 111.574C213.83 111.724 213.73 111.973 213.68 112.072L212.882 112.968C212.733 113.168 212.284 113.018 212.484 112.869L213.231 112.072L213.132 112.022L211.835 113.417L211.337 113.118L209.941 113.964C209.692 114.114 209.343 113.914 209.592 113.765L210.988 112.919L210.838 112.819Z" fill="white"/>
<path d="M210.338 109.398C210.039 109.249 209.59 109.249 209.341 109.398L208.144 110.145C207.895 110.294 208.244 110.493 208.493 110.344L209.59 109.697L209.69 109.747L206.599 111.589C206.3 111.788 206.748 112.037 207.047 111.838L208.842 110.742L208.942 110.792L207.147 111.888C206.848 112.087 207.297 112.336 207.596 112.136L210.687 110.294L210.786 110.344L209.69 110.991C209.44 111.141 209.789 111.34 210.039 111.19L211.235 110.444C211.484 110.294 211.534 109.996 211.235 109.846L210.338 109.398Z" fill="white"/>
<path d="M211.235 109.697C211.538 109.697 211.783 109.541 211.783 109.348C211.783 109.156 211.538 109 211.235 109C210.932 109 210.687 109.156 210.687 109.348C210.687 109.541 210.932 109.697 211.235 109.697Z" fill="white"/>
<path d="M74.8822 100.496L85.8001 107.019L74.8822 113.541L63.9644 107.019L74.8822 100.496Z" fill="black"/>
<path d="M77.3808 106.376C77.5802 106.525 77.9292 106.525 78.1784 106.376C78.3779 106.226 78.3779 106.027 78.1784 105.928C77.979 105.778 77.6301 105.778 77.3808 105.928C77.1315 106.027 77.1315 106.226 77.3808 106.376Z" fill="white"/>
<path d="M74.8384 107.819L73.4923 108.616C73.2431 108.765 72.8941 108.566 73.1434 108.417L74.4894 107.62L73.9909 107.322L76.334 106.525L76.2343 106.475L74.8882 106.923C74.5891 107.023 74.3897 106.774 74.6888 106.674L76.1346 106.226C76.2841 106.176 76.683 106.127 76.9821 106.276L77.2313 106.425L77.5305 106.575C77.8296 106.724 77.7299 106.973 77.68 107.073L76.8824 107.969C76.7328 108.168 76.2841 108.019 76.4835 107.869L77.2313 107.073L77.1316 107.023L75.8354 108.417L75.3369 108.118L73.941 108.965C73.6918 109.114 73.3428 108.915 73.5921 108.765L74.9879 107.919L74.8384 107.819Z" fill="white"/>
<path d="M74.3376 104.399C74.0385 104.249 73.5898 104.249 73.3406 104.399L72.1441 105.145C71.8948 105.295 72.2438 105.494 72.4931 105.345L73.5898 104.697L73.6895 104.747L70.5986 106.589C70.2995 106.788 70.7482 107.037 71.0473 106.838L72.842 105.743L72.9417 105.793L71.147 106.888C70.8479 107.087 71.2966 107.336 71.5957 107.137L74.6866 105.295L74.7863 105.345L73.6895 105.992C73.4403 106.141 73.7892 106.34 74.0385 106.191L75.235 105.444C75.4842 105.295 75.5341 104.996 75.235 104.847L74.3376 104.399Z" fill="white"/>
<path d="M75.2349 104.697C75.5378 104.697 75.7833 104.541 75.7833 104.349C75.7833 104.156 75.5378 104 75.2349 104C74.932 104 74.6865 104.156 74.6865 104.349C74.6865 104.541 74.932 104.697 75.2349 104.697Z" fill="white"/>
<path d="M56.6855 111.35L113.369 145.307L93.3774 157.306L36.6943 123.35L56.6855 111.35Z" fill="black"/>
<path d="M114.415 145.954L121.495 150.186L101.503 162.185L94.4243 157.953L114.415 145.954Z" fill="black"/>
<path d="M166.063 155.463L128.175 178.167L122.492 174.782L123.289 163.828L136.849 155.712L166.063 155.463Z" fill="#C8A67C"/>
<path d="M106.788 157.256L109.829 155.463C110.128 155.264 110.128 154.966 109.829 154.816L106.788 152.974C106.489 152.775 105.99 152.775 105.691 152.974L102.65 154.766C102.351 154.966 102.351 155.264 102.65 155.414L105.691 157.256C105.99 157.455 106.439 157.455 106.788 157.256ZM106.24 157.057L102.999 155.115L106.19 153.173L109.43 155.115L106.24 157.057Z" fill="white"/>
<path d="M110.776 153.024C111.026 152.874 111.375 153.073 111.125 153.223L110.128 153.82L110.527 153.77C110.776 153.77 110.826 154.019 110.527 154.019L109.53 154.069C109.38 154.069 109.281 154.019 109.281 153.92L109.38 153.322C109.38 153.123 109.829 153.173 109.829 153.322L109.779 153.571L110.776 153.024Z" fill="white"/>
<path d="M108.034 153.024C107.785 153.173 108.134 153.372 108.383 153.223L109.381 152.625L109.331 152.874C109.331 153.024 109.73 153.073 109.779 152.874L109.879 152.277C109.879 152.177 109.779 152.128 109.63 152.128L108.633 152.177C108.334 152.177 108.383 152.426 108.633 152.426L109.032 152.376L108.034 153.024Z" fill="white"/>
<path d="M107.835 155.264L107.237 154.916C107.187 154.866 107.038 154.866 106.938 154.916L106.19 155.364C106.14 155.413 106.14 155.463 106.19 155.463C106.19 155.463 106.19 155.463 106.24 155.513L105.293 156.11C105.143 156.21 105.392 156.359 105.542 156.26L106.489 155.662H106.539L105.592 156.26C105.392 156.359 105.692 156.509 105.841 156.409L106.788 155.812C106.838 155.812 106.838 155.862 106.838 155.862C106.888 155.911 106.988 155.911 107.038 155.862L107.785 155.413C107.885 155.413 107.885 155.314 107.835 155.264Z" fill="white"/>
<path d="M107.785 155.115C107.923 155.115 108.035 155.048 108.035 154.966C108.035 154.883 107.923 154.816 107.785 154.816C107.648 154.816 107.536 154.883 107.536 154.966C107.536 155.048 107.648 155.115 107.785 155.115Z" fill="white"/>
<path d="M106.539 154.517L105.941 154.169C105.891 154.119 105.741 154.119 105.641 154.169L104.894 154.617C104.844 154.667 104.844 154.716 104.894 154.716C104.894 154.716 104.894 154.716 104.944 154.766L103.996 155.364C103.847 155.463 104.096 155.613 104.246 155.513L105.193 154.916H105.243L104.295 155.513C104.096 155.613 104.395 155.762 104.545 155.662L105.492 155.065C105.542 155.065 105.542 155.115 105.542 155.115C105.592 155.164 105.691 155.164 105.741 155.115L106.489 154.667C106.639 154.667 106.639 154.567 106.539 154.517Z" fill="white"/>
<path d="M106.489 154.368C106.627 154.368 106.738 154.301 106.738 154.219C106.738 154.136 106.627 154.069 106.489 154.069C106.351 154.069 106.24 154.136 106.24 154.219C106.24 154.301 106.351 154.368 106.489 154.368Z" fill="white"/>
<path d="M185.257 148.742L196.175 155.264L184.808 162.085L173.891 155.513L185.257 148.742Z" fill="black"/>
<path d="M184.51 158.202L187.551 156.41C187.85 156.21 187.85 155.912 187.551 155.762L184.51 153.92C184.21 153.721 183.712 153.721 183.413 153.92L180.372 155.713C180.073 155.912 180.073 156.21 180.372 156.36L183.413 158.202C183.712 158.351 184.21 158.401 184.51 158.202ZM183.961 157.953L180.721 156.011L183.911 154.069L187.152 156.011L183.961 157.953Z" fill="white"/>
<path d="M188.498 153.92C188.747 153.771 189.096 153.97 188.847 154.119L187.85 154.717L188.249 154.667C188.498 154.667 188.548 154.916 188.249 154.916L187.252 154.966C187.102 154.966 187.002 154.916 187.002 154.816L187.102 154.219C187.102 154.02 187.551 154.069 187.551 154.219L187.501 154.468L188.498 153.92Z" fill="white"/>
<path d="M185.756 153.97C185.507 154.119 185.856 154.318 186.105 154.169L187.102 153.571L187.052 153.82C187.052 153.97 187.451 154.02 187.501 153.82L187.601 153.223C187.601 153.123 187.501 153.074 187.351 153.074L186.354 153.123C186.055 153.123 186.105 153.372 186.354 153.372L186.753 153.323L185.756 153.97Z" fill="white"/>
<path d="M185.557 156.21L184.959 155.862C184.909 155.812 184.759 155.812 184.66 155.862L183.912 156.31C183.862 156.359 183.862 156.409 183.912 156.409C183.912 156.409 183.912 156.409 183.962 156.459L183.014 157.057C182.865 157.156 183.114 157.305 183.264 157.206L184.211 156.608H184.261L183.314 157.206C183.114 157.305 183.413 157.455 183.563 157.355L184.51 156.758C184.56 156.758 184.56 156.808 184.56 156.808C184.61 156.857 184.709 156.857 184.759 156.808L185.507 156.359C185.607 156.359 185.607 156.26 185.557 156.21Z" fill="white"/>
<path d="M185.507 156.061C185.645 156.061 185.756 155.994 185.756 155.912C185.756 155.829 185.645 155.762 185.507 155.762C185.369 155.762 185.258 155.829 185.258 155.912C185.258 155.994 185.369 156.061 185.507 156.061Z" fill="white"/>
<path d="M184.26 155.463L183.662 155.114C183.612 155.065 183.463 155.065 183.363 155.114L182.615 155.562C182.565 155.612 182.565 155.662 182.615 155.662C182.615 155.662 182.615 155.662 182.665 155.712L181.718 156.309C181.568 156.409 181.818 156.558 181.967 156.459L182.914 155.861H182.964L182.017 156.459C181.818 156.558 182.117 156.708 182.266 156.608L183.214 156.011C183.263 156.011 183.263 156.06 183.263 156.06C183.313 156.11 183.413 156.11 183.463 156.06L184.211 155.612C184.36 155.562 184.36 155.513 184.26 155.463Z" fill="white"/>
<path d="M184.211 155.264C184.348 155.264 184.46 155.197 184.46 155.115C184.46 155.032 184.348 154.966 184.211 154.966C184.073 154.966 183.961 155.032 183.961 155.115C183.961 155.197 184.073 155.264 184.211 155.264Z" fill="white"/>
<path d="M107.636 119.615L123.987 129.424L112.671 136.195L96.269 126.387L107.636 119.615Z" fill="black"/>
<path d="M94.8233 110.255L82.0609 117.873L95.0726 125.64L107.835 118.022L125.383 128.577L159.184 108.313L110.477 79.137L76.7266 99.4011L94.8233 110.255Z" fill="black"/>
<path d="M109.63 130.718L112.671 128.926C112.97 128.727 112.97 128.428 112.671 128.278L109.63 126.436C109.331 126.237 108.832 126.237 108.533 126.436L105.492 128.229C105.193 128.428 105.193 128.727 105.492 128.876L108.533 130.718C108.832 130.917 109.331 130.917 109.63 130.718ZM109.081 130.519L105.841 128.577L109.032 126.635L112.272 128.577L109.081 130.519Z" fill="white"/>
<path d="M113.618 126.436C113.867 126.287 114.216 126.486 113.967 126.636L112.97 127.233L113.369 127.183C113.618 127.183 113.668 127.432 113.369 127.432L112.372 127.482C112.222 127.482 112.123 127.432 112.123 127.333L112.222 126.735C112.222 126.536 112.671 126.586 112.671 126.735L112.621 126.984L113.618 126.436Z" fill="white"/>
<path d="M110.876 126.486C110.627 126.635 110.976 126.835 111.225 126.685L112.222 126.088L112.172 126.337C112.172 126.486 112.571 126.536 112.621 126.337L112.721 125.739C112.721 125.64 112.621 125.59 112.472 125.59L111.475 125.64C111.175 125.64 111.225 125.889 111.475 125.889L111.873 125.839L110.876 126.486Z" fill="white"/>
<path d="M110.677 128.726L110.079 128.378C110.029 128.328 109.879 128.328 109.78 128.378L109.032 128.826C108.982 128.876 108.982 128.926 109.032 128.926C109.032 128.926 109.032 128.926 109.082 128.975L108.134 129.573C107.985 129.672 108.234 129.822 108.384 129.722L109.331 129.125H109.381L108.434 129.722C108.234 129.822 108.533 129.971 108.683 129.872L109.63 129.274C109.68 129.274 109.68 129.324 109.68 129.324C109.73 129.374 109.83 129.374 109.879 129.324L110.627 128.876C110.777 128.876 110.777 128.776 110.677 128.726Z" fill="white"/>
<path d="M110.627 128.577C110.765 128.577 110.876 128.51 110.876 128.428C110.876 128.345 110.765 128.279 110.627 128.279C110.49 128.279 110.378 128.345 110.378 128.428C110.378 128.51 110.49 128.577 110.627 128.577Z" fill="white"/>
<path d="M109.381 127.979L108.782 127.631C108.733 127.581 108.583 127.581 108.483 127.631L107.735 128.079C107.686 128.129 107.686 128.178 107.735 128.178C107.735 128.178 107.735 128.178 107.785 128.228L106.838 128.826C106.689 128.925 106.938 129.075 107.087 128.975L108.035 128.378H108.084L107.137 128.975C106.938 129.075 107.237 129.224 107.386 129.124L108.334 128.527C108.384 128.527 108.384 128.577 108.384 128.577C108.433 128.627 108.533 128.627 108.583 128.577L109.331 128.129C109.48 128.079 109.48 128.029 109.381 127.979Z" fill="white"/>
<path d="M109.331 127.781C109.468 127.781 109.58 127.714 109.58 127.631C109.58 127.549 109.468 127.482 109.331 127.482C109.193 127.482 109.082 127.549 109.082 127.631C109.082 127.714 109.193 127.781 109.331 127.781Z" fill="white"/>
<path d="M260.236 90.5883L280.028 102.438L258.292 115.433L238.55 103.633L260.236 90.5883Z" fill="black"/>
<path d="M277.635 134.652L284.714 138.884L264.723 150.883L257.594 146.651L277.635 134.652Z" fill="#FF0000"/>
<path d="M269.958 145.954L272.999 144.161C273.298 143.962 273.298 143.663 272.999 143.514L269.958 141.672C269.659 141.473 269.16 141.473 268.861 141.672L265.82 143.464C265.521 143.663 265.521 143.962 265.82 144.111L268.861 145.954C269.16 146.153 269.659 146.153 269.958 145.954ZM269.409 145.705L266.169 143.763L269.36 141.821L272.6 143.763L269.409 145.705Z" fill="white"/>
<path d="M273.946 141.672C274.195 141.522 274.544 141.722 274.295 141.871L273.298 142.468L273.697 142.419C273.946 142.419 273.996 142.668 273.697 142.668L272.699 142.717C272.55 142.717 272.45 142.668 272.45 142.568L272.55 141.971C272.55 141.771 272.999 141.821 272.999 141.971L272.949 142.219L273.946 141.672Z" fill="white"/>
<path d="M271.204 141.722C270.955 141.871 271.304 142.07 271.553 141.921L272.55 141.323L272.5 141.572C272.5 141.722 272.899 141.771 272.949 141.572L273.048 140.975C273.048 140.875 272.949 140.825 272.799 140.825L271.802 140.875C271.503 140.875 271.553 141.124 271.802 141.124L272.201 141.074L271.204 141.722Z" fill="white"/>
<path d="M271.005 143.962L270.407 143.613C270.357 143.564 270.207 143.564 270.108 143.613L269.36 144.061C269.31 144.111 269.31 144.161 269.36 144.161C269.36 144.161 269.36 144.161 269.41 144.211L268.463 144.808C268.313 144.908 268.562 145.057 268.712 144.958L269.659 144.36H269.709L268.762 144.958C268.562 145.057 268.861 145.207 269.011 145.107L269.958 144.51C270.008 144.51 270.008 144.559 270.008 144.559C270.058 144.609 270.158 144.609 270.207 144.559L270.955 144.111C271.105 144.111 271.105 144.012 271.005 143.962Z" fill="white"/>
<path d="M270.955 143.813C271.093 143.813 271.205 143.746 271.205 143.663C271.205 143.581 271.093 143.514 270.955 143.514C270.818 143.514 270.706 143.581 270.706 143.663C270.706 143.746 270.818 143.813 270.955 143.813Z" fill="white"/>
<path d="M269.709 143.215L269.111 142.866C269.061 142.816 268.911 142.816 268.811 142.866L268.064 143.314C268.014 143.364 268.014 143.414 268.064 143.414C268.064 143.414 268.064 143.414 268.113 143.464L267.166 144.061C267.017 144.161 267.266 144.31 267.415 144.21L268.363 143.613H268.413L267.465 144.21C267.266 144.31 267.565 144.459 267.715 144.36L268.662 143.762C268.712 143.762 268.712 143.812 268.712 143.812C268.762 143.862 268.861 143.862 268.911 143.812L269.659 143.364C269.808 143.314 269.808 143.264 269.709 143.215Z" fill="white"/>
<path d="M269.709 143.016C269.846 143.016 269.958 142.949 269.958 142.867C269.958 142.784 269.846 142.717 269.709 142.717C269.571 142.717 269.459 142.784 269.459 142.867C269.459 142.949 269.571 143.016 269.709 143.016Z" fill="white"/>
<path d="M241.342 141.821L260.586 153.323L253.257 157.704L234.014 146.203L241.342 141.821Z" fill="black"/>
<path d="M234.812 158.999L263.976 176.474L284.665 164.077L268.612 154.468L256.797 161.538L243.685 153.721L234.812 158.999Z" fill="black"/>
<path d="M289.65 141.871L305.703 151.48L285.711 163.479L269.659 153.82L289.65 141.871Z" fill="#DAC452"/>
<path d="M303.36 133.606L319.412 143.265L307.099 150.634L291.046 141.025L303.36 133.606Z" fill="#DAC452"/>
<path d="M330.667 109L354.497 123.339L326.38 140.168L302.5 125.878L330.667 109Z" fill="#DAC452"/>
<path d="M296.784 122.222L310.993 113.708L314.981 116.148L328.94 107.783L302.667 91.9999L274.5 108.878L296.784 122.222Z" fill="#DAC452"/>
<path d="M248.321 148.642C248.521 148.742 248.87 148.742 249.069 148.642C249.269 148.543 249.269 148.294 249.069 148.194C248.87 148.095 248.521 148.095 248.321 148.194C248.122 148.294 248.122 148.493 248.321 148.642Z" fill="white"/>
<path d="M251.263 149.987L250.365 149.439C250.166 149.339 249.867 149.24 249.618 149.24H248.022L248.272 149.09C248.77 148.792 248.022 148.344 247.524 148.642L246.577 149.24H245.181C245.031 149.24 245.031 149.24 244.931 149.14L244.483 148.891C244.034 148.642 243.386 148.692 243.087 148.891C242.738 149.09 242.588 149.489 243.087 149.787C243.087 149.787 243.685 150.136 243.835 150.236C244.034 150.335 244.283 150.435 244.632 150.435H249.119C249.219 150.435 249.269 150.435 249.318 150.484C249.318 150.484 249.618 150.684 249.867 150.833C250.116 150.982 250.814 151.032 251.263 150.783C251.662 150.584 251.562 150.186 251.263 149.987ZM250.166 150.634L249.717 150.335C249.518 150.236 249.418 150.186 249.169 150.186H244.682C244.483 150.186 244.333 150.136 244.184 150.036L243.436 149.588C243.236 149.489 243.236 149.29 243.436 149.14C243.635 148.991 243.934 149.041 244.084 149.14L244.582 149.439C244.732 149.538 244.882 149.538 245.031 149.538H249.618C249.817 149.538 249.917 149.588 250.066 149.688L250.864 150.136C251.063 150.236 250.964 150.435 250.864 150.534C250.764 150.634 250.365 150.733 250.166 150.634Z" fill="white"/>
<path d="M80.6648 166.168L99.9082 177.719L92.5798 182.101L73.3364 170.599L80.6648 166.168Z" fill="black"/>
<path d="M87.6447 173.039C87.8441 173.138 88.1931 173.138 88.3925 173.039C88.5919 172.939 88.5919 172.69 88.3925 172.591C88.1931 172.491 87.8441 172.491 87.6447 172.591C87.4453 172.69 87.4453 172.89 87.6447 173.039Z" fill="white"/>
<path d="M90.586 174.383L89.6887 173.836C89.4893 173.736 89.1901 173.636 88.9409 173.636H87.3456L87.5948 173.487C88.0934 173.188 87.3456 172.74 86.847 173.039L85.8998 173.636H84.5039C84.3544 173.636 84.3544 173.636 84.2547 173.537L83.806 173.288C83.3573 173.039 82.7092 173.089 82.4101 173.288C82.111 173.487 81.9116 173.885 82.4101 174.184C82.4101 174.184 83.0083 174.533 83.1579 174.632C83.3573 174.732 83.6066 174.831 83.9556 174.831H88.4423C88.5421 174.831 88.5919 174.831 88.6418 174.881C88.6418 174.881 88.9409 175.08 89.1901 175.23C89.4394 175.379 90.1374 175.429 90.586 175.18C90.935 174.931 90.8852 174.533 90.586 174.383ZM89.4893 174.981L89.0406 174.682C88.8412 174.582 88.7415 174.533 88.4922 174.533H84.0054C83.806 174.533 83.6564 174.483 83.5069 174.383L82.7591 173.935C82.5597 173.836 82.5597 173.636 82.7591 173.487C82.9585 173.338 83.2576 173.387 83.4072 173.487L83.9057 173.786C84.0553 173.885 84.2048 173.885 84.3544 173.885H88.9409C89.1403 173.885 89.24 173.935 89.3896 174.035L90.1872 174.483C90.3866 174.582 90.2869 174.782 90.1872 174.881C90.0376 175.031 89.6887 175.13 89.4893 174.981Z" fill="white"/>
<path d="M197.878 142L217.072 153.501L209.743 157.883L190.5 146.381L197.878 142Z" fill="black"/>
<path d="M204.808 148.821C205.007 148.921 205.356 148.921 205.556 148.821C205.755 148.721 205.755 148.472 205.556 148.373C205.356 148.273 205.007 148.273 204.808 148.373C204.608 148.472 204.608 148.672 204.808 148.821Z" fill="white"/>
<path d="M207.749 150.165L206.852 149.618C206.652 149.518 206.353 149.419 206.104 149.419H204.509L204.758 149.269C205.256 148.97 204.509 148.522 204.01 148.821L203.063 149.419H201.667C201.517 149.419 201.517 149.419 201.418 149.319L200.969 149.07C200.52 148.821 199.872 148.871 199.573 149.07C199.274 149.269 199.075 149.667 199.573 149.966C199.573 149.966 200.171 150.315 200.321 150.414C200.52 150.514 200.77 150.613 201.119 150.613H205.605C205.705 150.613 205.755 150.613 205.805 150.663C205.805 150.663 206.104 150.862 206.353 151.012C206.602 151.161 207.3 151.211 207.749 150.962C208.148 150.763 208.048 150.365 207.749 150.165ZM206.652 150.813L206.204 150.514C206.004 150.414 205.905 150.365 205.655 150.365H201.168C200.969 150.365 200.82 150.315 200.67 150.215L199.922 149.767C199.723 149.667 199.723 149.468 199.922 149.319C200.122 149.17 200.421 149.219 200.57 149.319L201.069 149.618C201.218 149.717 201.368 149.717 201.517 149.717H206.104C206.303 149.717 206.403 149.767 206.553 149.867L207.35 150.315C207.55 150.414 207.45 150.613 207.35 150.713C207.201 150.862 206.852 150.912 206.652 150.813Z" fill="white"/>
<path d="M279.18 119.117L298.424 130.668L291.095 135.05L271.852 123.549L279.18 119.117Z" fill="black"/>
<path d="M286.16 125.988C286.36 126.088 286.709 126.088 286.908 125.988C287.107 125.889 287.107 125.64 286.908 125.54C286.709 125.441 286.36 125.441 286.16 125.54C285.961 125.64 285.961 125.839 286.16 125.988Z" fill="white"/>
<path d="M289.102 127.333L288.204 126.785C288.005 126.685 287.706 126.586 287.456 126.586H285.861L286.11 126.437C286.609 126.138 285.861 125.69 285.363 125.988L284.415 126.586H283.02C282.87 126.586 282.87 126.586 282.77 126.486L282.322 126.237C281.873 125.988 281.225 126.038 280.926 126.237C280.577 126.437 280.427 126.835 280.926 127.134C280.926 127.134 281.524 127.482 281.674 127.582C281.873 127.681 282.122 127.781 282.471 127.781H286.958C287.058 127.781 287.107 127.781 287.157 127.831C287.157 127.831 287.456 128.03 287.706 128.179C287.955 128.329 288.653 128.378 289.102 128.129C289.5 127.88 289.401 127.482 289.102 127.333ZM288.005 127.93L287.556 127.631C287.357 127.532 287.257 127.482 287.008 127.482H282.521C282.322 127.482 282.172 127.432 282.022 127.333L281.275 126.885C281.075 126.785 281.075 126.586 281.275 126.437C281.474 126.287 281.773 126.337 281.923 126.437L282.421 126.735C282.571 126.835 282.72 126.835 282.87 126.835H287.456C287.656 126.835 287.756 126.885 287.905 126.984L288.703 127.432C288.902 127.532 288.802 127.731 288.703 127.831C288.603 127.93 288.204 128.08 288.005 127.93Z" fill="white"/>
<path d="M160.729 109.259L185.357 123.997L175.685 129.822L151.058 115.084L160.729 109.259Z" fill="#C8A67C"/>
<path d="M134.058 125.241L158.685 140.029L151.606 144.261L126.979 129.523L134.058 125.241Z" fill="#C8A67C"/>
<path d="M150.908 126.486L166.064 135.597L160.081 139.182L144.926 130.071L150.908 126.486Z" fill="#C8A67C"/>
<path d="M125.582 130.37L150.21 145.107L149.013 145.804L128.773 145.854L114.216 137.141L125.582 130.37Z" fill="#C8A67C"/>
<path d="M165.166 106.62L189.545 108.911L195.477 117.972L186.803 123.2L162.175 108.413L165.166 106.62Z" fill="#C8A67C"/>
<path d="M143.43 129.175L150.858 124.744L167.509 134.751L174.289 130.669L149.662 115.931L135.454 124.395L143.43 129.175Z" fill="#C8A67C"/>
<path d="M14.4859 136.095L110.477 78.5456L157.314 106.613L158.085 107.075L158.856 106.613L187.001 89.7482L222.674 111.094L223.445 111.555L224.216 111.093L260.236 89.4997L281.599 102.33L282.371 102.793L283.143 102.33L301.216 91.4905L354.032 123.101L263.576 177.315L197.893 137.946L197.123 137.484L196.353 137.945L184.936 144.766L182.782 146.053L184.936 147.341L198.192 155.267L184.609 163.422L169.977 154.626L169.205 154.162L168.433 154.625L106.937 191.504L14.4859 136.095Z" stroke="black" stroke-width="3" stroke-miterlimit="10"/>
<path opacity="0.9" d="M179.5 54.5L187 50L217 153.5L209.5 158L179.5 54.5Z" fill="url(#paint6_linear)"/>
<path opacity="0.9" d="M270.5 45.5L278 41L299 130.5L291.5 135L270.5 45.5Z" fill="url(#paint7_linear)"/>
<path opacity="0.8" d="M121.5 18L103.5 29L114.5 35.5L125.5 28.5C125.5 28.5 147 35 175.5 32C204 29 219 16 219 16L225.5 20L234.5 14L218 4.5C218 4.5 203.5 19.5 173.5 23C143.5 26.5 121.5 18 121.5 18Z" fill="#C4C4C4"/>
<path d="M298.159 14.1291L287.971 20.2002L254.887 0.416992L200.691 32.8656L208.253 37.4189L190.136 48.2525L274.264 98.5478L356.818 49.1946L298.159 14.1291Z" fill="white"/>
<path d="M102.384 111.213L3.07812 51.8114L73.8681 9.47119L173.174 68.8731L102.384 111.213Z" fill="white"/>
<path d="M262.081 58.6674L254.624 54.1664L268.961 45.5833L276.418 50.0319L262.081 58.6674Z" fill="black"/>
<path d="M235.246 42.6001L227.789 38.1515L242.178 29.5684L249.635 34.017L235.246 42.6001Z" fill="black"/>
<path d="M81.5352 67.3553L74.0781 62.8544L88.4147 54.2712L95.8718 58.7198L81.5352 67.3553Z" fill="black"/>
<path d="M47.6632 47.1012L40.2061 42.6526L54.5951 34.0171L62.0522 38.4657L47.6632 47.1012Z" fill="black"/>
<path d="M51.7593 39.6695C51.4442 39.5124 50.9716 39.5124 50.709 39.6695L49.4487 40.4022C49.1861 40.5592 49.5537 40.7685 49.8163 40.6115L50.9716 39.9311L51.0766 39.9835L47.8207 41.9199C47.5056 42.1293 47.9782 42.391 48.2933 42.1816L50.1839 41.0302L50.2889 41.0825L48.3984 42.2339C48.0833 42.4433 48.5559 42.705 48.871 42.4956L52.1269 40.5592L52.2319 40.6115L51.0766 41.2919C50.814 41.4489 51.1816 41.6582 51.4442 41.5012L52.7046 40.7162C52.9671 40.5592 53.0197 40.2452 52.7046 40.0881L51.7593 39.6695Z" fill="white"/>
<path d="M52.7569 39.9834C53.0759 39.9834 53.3345 39.8194 53.3345 39.6171C53.3345 39.4148 53.0759 39.2507 52.7569 39.2507C52.4378 39.2507 52.1792 39.4148 52.1792 39.6171C52.1792 39.8194 52.4378 39.9834 52.7569 39.9834Z" fill="white"/>
<path d="M93.8233 82.6899L86.3662 78.2413L107.425 65.6282L114.882 70.0768L93.8233 82.6899Z" fill="black"/>
<path d="M100.755 76.6713L103.959 74.7871C104.274 74.5778 104.274 74.2638 103.959 74.1068L100.755 72.1703C100.44 71.961 99.915 71.961 99.5999 72.1703L96.3965 74.0544C96.0814 74.2638 96.0814 74.5778 96.3965 74.7348L99.5999 76.6713C99.915 76.8806 100.44 76.8806 100.755 76.6713ZM100.178 76.4619L96.7641 74.4208L100.125 72.3797L103.538 74.4208L100.178 76.4619Z" fill="white"/>
<path d="M104.956 72.1702C105.219 72.0132 105.586 72.2225 105.324 72.3795L104.274 73.0076L104.694 72.9552C104.956 72.9552 105.009 73.2169 104.694 73.2169L103.643 73.2692C103.486 73.2692 103.381 73.2169 103.381 73.1122L103.486 72.4842C103.486 72.2748 103.959 72.3272 103.959 72.4842L103.906 72.7459L104.956 72.1702Z" fill="white"/>
<path d="M102.068 72.2226C101.805 72.3796 102.173 72.5889 102.435 72.4319L103.486 71.8039L103.433 72.0656C103.433 72.2226 103.853 72.2749 103.906 72.0656L104.011 71.4375C104.011 71.3329 103.906 71.2805 103.748 71.2805L102.698 71.3329C102.383 71.3329 102.435 71.5945 102.698 71.5945L103.118 71.5422L102.068 72.2226Z" fill="white"/>
<path d="M101.858 74.5768L101.228 74.2105C101.175 74.1581 101.018 74.1581 100.913 74.2105L100.125 74.6815C100.073 74.7338 100.073 74.7862 100.125 74.7862C100.125 74.7862 100.125 74.7862 100.178 74.8385L99.1799 75.4665C99.0224 75.5712 99.285 75.7282 99.4425 75.6235L100.44 74.9955H100.493L99.495 75.6235C99.285 75.7282 99.6 75.8852 99.7576 75.7806L100.755 75.1525C100.808 75.1525 100.808 75.2049 100.808 75.2049C100.86 75.2572 100.965 75.2572 101.018 75.2049L101.806 74.7338C101.963 74.7338 101.963 74.6291 101.858 74.5768Z" fill="white"/>
<path d="M101.806 74.4206C101.951 74.4206 102.068 74.3503 102.068 74.2636C102.068 74.1769 101.951 74.1066 101.806 74.1066C101.661 74.1066 101.543 74.1769 101.543 74.2636C101.543 74.3503 101.661 74.4206 101.806 74.4206Z" fill="white"/>
<path d="M100.545 73.7927L99.915 73.4263C99.8625 73.374 99.7049 73.374 99.5999 73.4263L98.8122 73.8974C98.7597 73.9497 98.7597 74.002 98.8122 74.002C98.8122 74.002 98.8122 74.002 98.8647 74.0544L97.8669 74.6824C97.7094 74.7871 97.972 74.9441 98.1295 74.8394L99.1273 74.2114H99.1798L98.182 74.8394C97.972 74.9441 98.287 75.1011 98.4446 74.9964L99.4424 74.3684C99.4949 74.3684 99.4949 74.4207 99.4949 74.4207C99.5474 74.4731 99.6524 74.4731 99.7049 74.4207L100.493 73.9497C100.598 73.9497 100.598 73.845 100.545 73.7927Z" fill="white"/>
<path d="M100.493 73.5833C100.638 73.5833 100.755 73.513 100.755 73.4263C100.755 73.3396 100.638 73.2693 100.493 73.2693C100.348 73.2693 100.23 73.3396 100.23 73.4263C100.23 73.513 100.348 73.5833 100.493 73.5833Z" fill="white"/>
<path d="M86.2611 60.133C86.4711 60.29 86.8387 60.29 87.1013 60.133C87.3114 59.976 87.3114 59.7666 87.1013 59.662C86.8913 59.5049 86.5236 59.5049 86.2611 59.662C86.051 59.7666 86.051 60.0283 86.2611 60.133Z" fill="white"/>
<path d="M83.5829 61.6508L82.165 62.4881C81.9024 62.6451 81.5348 62.4358 81.7974 62.2788L83.2153 61.4414L82.6901 61.1274L85.1583 60.29L85.0533 60.2377L83.6354 60.7087C83.3203 60.8134 83.1102 60.5517 83.4253 60.447L84.9482 59.976C85.1058 59.9236 85.5259 59.8713 85.841 60.0283L86.1036 60.1853L86.4187 60.3423C86.7337 60.4993 86.6287 60.761 86.5762 60.8657L85.736 61.8078C85.5784 62.0171 85.1058 61.8601 85.3158 61.7031L86.1036 60.8657L85.9985 60.8134L84.6332 62.2788L84.108 61.9648L82.6376 62.8545C82.375 63.0115 82.0074 62.8022 82.27 62.6451L83.7404 61.7554L83.5829 61.6508Z" fill="white"/>
<path d="M175.327 84.4693L163.826 77.5609L175.747 70.4431L187.248 77.2992L175.327 84.4693Z" fill="black"/>
<path d="M175.012 80.3871L178.215 78.503C178.531 78.2936 178.531 77.9796 178.215 77.8226L175.012 75.8861C174.697 75.6768 174.172 75.6768 173.857 75.8861L170.653 77.7702C170.338 77.9796 170.338 78.2936 170.653 78.4506L173.857 80.3871C174.172 80.5441 174.644 80.5964 175.012 80.3871ZM174.434 80.1254L171.021 78.0843L174.382 76.0431L177.795 78.0843L174.434 80.1254Z" fill="white"/>
<path d="M179.213 75.8861C179.476 75.729 179.843 75.9384 179.581 76.0954L178.53 76.7235L178.951 76.6711C179.213 76.6711 179.266 76.9328 178.951 76.9328L177.9 76.9851C177.743 76.9851 177.638 76.9328 177.638 76.8281L177.743 76.2001C177.743 75.9907 178.215 76.0431 178.215 76.2001L178.163 76.4618L179.213 75.8861Z" fill="white"/>
<path d="M176.272 75.9384C176.01 76.0954 176.377 76.3048 176.64 76.1478L177.69 75.5197L177.638 75.7814C177.638 75.9384 178.058 75.9907 178.11 75.7814L178.216 75.1533C178.216 75.0487 178.11 74.9963 177.953 74.9963L176.903 75.0487C176.588 75.0487 176.64 75.3104 176.903 75.3104L177.323 75.258L176.272 75.9384Z" fill="white"/>
<path d="M176.062 78.2929L175.432 77.9265C175.38 77.8742 175.222 77.8742 175.117 77.9265L174.329 78.3976C174.277 78.4499 174.277 78.5022 174.329 78.5022C174.329 78.5022 174.329 78.5022 174.382 78.5546L173.384 79.1826C173.226 79.2873 173.489 79.4443 173.647 79.3396L174.644 78.7116H174.697L173.699 79.3396C173.489 79.4443 173.804 79.6013 173.962 79.4966L174.959 78.8686C175.012 78.8686 175.012 78.9209 175.012 78.9209C175.065 78.9733 175.17 78.9733 175.222 78.9209L176.01 78.4499C176.167 78.4499 176.167 78.3452 176.062 78.2929Z" fill="white"/>
<path d="M176.01 78.1366C176.155 78.1366 176.272 78.0663 176.272 77.9796C176.272 77.8929 176.155 77.8226 176.01 77.8226C175.865 77.8226 175.747 77.8929 175.747 77.9796C175.747 78.0663 175.865 78.1366 176.01 78.1366Z" fill="white"/>
<path d="M174.749 77.5085L174.119 77.1422C174.067 77.0898 173.909 77.0898 173.804 77.1422L173.016 77.6132C172.964 77.6655 172.964 77.7179 173.016 77.7179C173.016 77.7179 173.016 77.7179 173.069 77.7702L172.071 78.3982C171.913 78.5029 172.176 78.6599 172.334 78.5552L173.331 77.9272H173.384L172.386 78.5552C172.176 78.6599 172.491 78.8169 172.649 78.7122L173.646 78.0842C173.699 78.0842 173.699 78.1366 173.699 78.1366C173.751 78.1889 173.857 78.1889 173.909 78.1366L174.697 77.6655C174.802 77.6132 174.802 77.5608 174.749 77.5085Z" fill="white"/>
<path d="M174.697 77.2991C174.842 77.2991 174.959 77.2288 174.959 77.1421C174.959 77.0554 174.842 76.9851 174.697 76.9851C174.552 76.9851 174.434 77.0554 174.434 77.1421C174.434 77.2288 174.552 77.2991 174.697 77.2991Z" fill="white"/>
<path d="M116.3 55.2655L99.0752 44.9552L110.996 37.7852L128.273 48.0954L116.3 55.2655Z" fill="black"/>
<path d="M113.884 36.1104L112.309 37.0524L131.056 48.2524L117.875 56.1552L128.01 62.2263L141.244 54.3234L142.82 53.3814L113.884 36.1104Z" fill="black"/>
<path d="M120.762 98.8056L96.5 84.3084L145.496 55L169.706 69.4972L120.762 98.8056Z" fill="#C8A67C"/>
<path d="M82.796 41.3965L53.8604 24.1254L73.8685 12.1404L102.804 29.4637L82.796 41.3965Z" fill="#C8A67C"/>
<path d="M113.097 49.4562L116.3 47.5721C116.616 47.3627 116.616 47.0487 116.3 46.8917L113.097 44.9552C112.782 44.7459 112.257 44.7459 111.942 44.9552L108.738 46.8393C108.423 47.0487 108.423 47.3627 108.738 47.5197L111.942 49.4562C112.257 49.6132 112.729 49.6132 113.097 49.4562ZM112.519 49.1945L109.106 47.1534L112.467 45.1122L115.88 47.1534L112.519 49.1945Z" fill="white"/>
<path d="M117.298 44.9552C117.561 44.7982 117.928 45.0075 117.666 45.1646L116.615 45.7926L117.036 45.7403C117.298 45.7403 117.351 46.0019 117.036 46.0019L115.985 46.0543C115.828 46.0543 115.723 46.0019 115.723 45.8973L115.828 45.2692C115.828 45.0599 116.3 45.1122 116.3 45.2692L116.248 45.5309L117.298 44.9552Z" fill="white"/>
<path d="M114.41 44.9552C114.147 45.1122 114.515 45.3216 114.777 45.1646L115.828 44.5365L115.775 44.7982C115.775 44.9552 116.195 45.0076 116.248 44.7982L116.353 44.1702C116.353 44.0655 116.248 44.0132 116.09 44.0132L115.04 44.0655C114.725 44.0655 114.777 44.3272 115.04 44.3272L115.46 44.2749L114.41 44.9552Z" fill="white"/>
<path d="M114.199 47.3628L113.569 46.9964C113.517 46.9441 113.359 46.9441 113.254 46.9964L112.466 47.4674C112.414 47.5198 112.414 47.5721 112.466 47.5721C112.466 47.5721 112.466 47.5721 112.519 47.6244L111.521 48.2525C111.364 48.3572 111.626 48.5142 111.784 48.4095L112.782 47.7815H112.834L111.836 48.4095C111.626 48.5142 111.941 48.6712 112.099 48.5665L113.097 47.9385C113.149 47.9385 113.149 47.9908 113.149 47.9908C113.202 48.0431 113.307 48.0431 113.359 47.9908L114.147 47.5198C114.252 47.4674 114.252 47.4151 114.199 47.3628Z" fill="white"/>
<path d="M114.147 47.1534C114.292 47.1534 114.409 47.0831 114.409 46.9964C114.409 46.9096 114.292 46.8394 114.147 46.8394C114.002 46.8394 113.884 46.9096 113.884 46.9964C113.884 47.0831 114.002 47.1534 114.147 47.1534Z" fill="white"/>
<path d="M112.834 46.5244L112.204 46.1581C112.152 46.1058 111.994 46.1058 111.889 46.1581L111.101 46.6291C111.049 46.6815 111.049 46.7338 111.101 46.7338C111.101 46.7338 111.101 46.7338 111.154 46.7861L110.156 47.4142C109.998 47.5188 110.261 47.6758 110.419 47.5712L111.416 46.9431H111.469L110.471 47.5712C110.261 47.6758 110.576 47.8328 110.734 47.7282L111.731 47.1001C111.784 47.1001 111.784 47.1525 111.784 47.1525C111.836 47.2048 111.941 47.2048 111.994 47.1525L112.782 46.6815C112.939 46.6815 112.939 46.5768 112.834 46.5244Z" fill="white"/>
<path d="M112.782 46.3683C112.927 46.3683 113.044 46.298 113.044 46.2113C113.044 46.1246 112.927 46.0543 112.782 46.0543C112.637 46.0543 112.519 46.1246 112.519 46.2113C112.519 46.298 112.637 46.3683 112.782 46.3683Z" fill="white"/>
<path d="M187.09 50.0842L207.361 62.1739L199.641 66.7795L179.37 54.6898L187.09 50.0842Z" fill="black"/>
<path d="M194.442 57.2544C194.652 57.359 195.02 57.359 195.23 57.2544C195.44 57.1497 195.44 56.888 195.23 56.7833C195.02 56.6787 194.652 56.6787 194.442 56.7833C194.232 56.888 194.232 57.0973 194.442 57.2544Z" fill="white"/>
<path d="M197.541 58.6676L196.595 58.0919C196.385 57.9872 196.07 57.8825 195.808 57.8825H194.127L194.39 57.7255C194.915 57.4115 194.127 56.9405 193.602 57.2545L192.604 57.8825H191.134C190.976 57.8825 190.976 57.8825 190.871 57.7779L190.399 57.5162C189.926 57.2545 189.243 57.3068 188.928 57.5162C188.613 57.7255 188.403 58.1442 188.928 58.4582C188.928 58.4582 189.558 58.8246 189.716 58.9293C189.926 59.0339 190.189 59.1386 190.556 59.1386H195.283C195.388 59.1386 195.44 59.1386 195.493 59.191C195.493 59.191 195.808 59.4003 196.07 59.5573C196.333 59.7143 197.068 59.7667 197.541 59.505C197.908 59.2433 197.856 58.8246 197.541 58.6676ZM196.333 59.348L195.86 59.0339C195.65 58.9293 195.545 58.8769 195.283 58.8769H190.556C190.346 58.8769 190.189 58.8246 190.031 58.7199L189.243 58.2489C189.033 58.1442 189.033 57.9349 189.243 57.7779C189.453 57.6209 189.768 57.6732 189.926 57.7779L190.451 58.0919C190.609 58.1966 190.766 58.1966 190.924 58.1966H195.755C195.965 58.1966 196.07 58.2489 196.228 58.3536L197.068 58.8246C197.278 58.9293 197.173 59.1386 197.068 59.2433C196.963 59.348 196.595 59.4526 196.333 59.348Z" fill="white"/>
<path d="M282.772 53.8525L290.229 58.3011L269.171 70.9142L261.714 66.4133L282.772 53.8525Z" fill="#FF0000"/>
<path d="M313.703 51.6543L330.928 61.9646L292.592 84.8879L275.367 74.5777L313.703 51.6543Z" fill="#DAC452"/>
<path d="M297.003 54.2711L276.732 42.129L284.452 37.5234L304.723 49.6655L297.003 54.2711Z" fill="black"/>
<path d="M291.804 44.6936C292.014 44.7982 292.382 44.7982 292.592 44.6936C292.802 44.5889 292.802 44.3272 292.592 44.2225C292.382 44.1179 292.014 44.1179 291.804 44.2225C291.542 44.3796 291.542 44.5889 291.804 44.6936Z" fill="white"/>
<path d="M294.903 46.159L293.958 45.5833C293.748 45.4787 293.433 45.374 293.17 45.374H291.49L291.752 45.217C292.277 44.903 291.49 44.4319 290.964 44.746L289.967 45.374H288.496C288.339 45.374 288.339 45.374 288.234 45.2693L287.761 45.0076C287.288 44.746 286.606 44.7983 286.291 45.0076C285.975 45.217 285.765 45.6357 286.291 45.9497C286.291 45.9497 286.921 46.316 287.078 46.4207C287.288 46.5254 287.551 46.6301 287.919 46.6301H292.645C292.75 46.6301 292.802 46.6301 292.855 46.6824C292.855 46.6824 293.17 46.8917 293.433 47.0488C293.695 47.2058 294.43 47.2581 294.903 46.9964C295.271 46.7347 295.166 46.316 294.903 46.159ZM293.695 46.7871L293.223 46.4731C293.012 46.3684 292.907 46.316 292.645 46.316H287.919C287.708 46.316 287.551 46.2637 287.393 46.159L286.606 45.688C286.396 45.5833 286.396 45.374 286.606 45.217C286.816 45.06 287.131 45.1123 287.288 45.217L287.813 45.531C287.971 45.6357 288.129 45.6357 288.286 45.6357H293.118C293.328 45.6357 293.433 45.688 293.59 45.7927L294.43 46.2637C294.64 46.3684 294.535 46.5777 294.43 46.6824C294.325 46.7871 293.958 46.9441 293.695 46.7871Z" fill="white"/>
<path d="M97.0274 59.4002L81.5881 68.6637L71.8203 62.8544L87.3122 53.5908L63.2079 39.146L47.716 48.4095L38.0008 42.6002L53.4401 33.3366L45.9305 28.8357L24.8721 41.4488L85.2641 77.5609L106.323 64.9478L97.0274 59.4002Z" fill="black"/>
<path d="M239.395 35.1685C239.08 35.0115 238.607 35.0115 238.345 35.1685L237.084 35.9535C236.822 36.1105 237.189 36.3199 237.452 36.1629L238.607 35.4825L238.712 35.5348L235.456 37.4713C235.141 37.6806 235.614 37.9423 235.929 37.733L237.82 36.5816L237.925 36.6339L236.034 37.7853C235.719 37.9946 236.192 38.2563 236.507 38.047L239.763 36.1105L239.868 36.1629L238.712 36.8432C238.45 37.0003 238.817 37.2096 239.08 37.0526L240.34 36.2675C240.603 36.1105 240.655 35.7965 240.34 35.6395L239.395 35.1685Z" fill="white"/>
<path d="M240.34 35.4825C240.659 35.4825 240.918 35.3184 240.918 35.1161C240.918 34.9138 240.659 34.7498 240.34 34.7498C240.021 34.7498 239.763 34.9138 239.763 35.1161C239.763 35.3184 240.021 35.4825 240.34 35.4825Z" fill="white"/>
<path d="M213.743 37.4597L204.5 31.9121L225.558 19.3513L234.801 24.8466L213.743 37.4597Z" fill="#DAC452"/>
<path d="M248.088 22.0206L234.592 13.9607L246.198 7L259.694 15.0598L248.088 22.0206Z" fill="#DAC452"/>
<path d="M266.282 33.1797L250.107 23.4975L269.118 12.0881L285.345 21.7704L266.282 33.1797Z" fill="black"/>
<path d="M324.85 31.1494L299.613 16L279.5 28.0374L304.76 43.1626L324.85 31.1494Z" fill="#DAC452"/>
<path d="M333.76 61.1626L308.5 46.0374L328.613 34L353.873 49.1252L333.76 61.1626Z" fill="#DAC452"/>
<path d="M276.102 64.8956L279.305 63.0115C279.62 62.8021 279.62 62.4881 279.305 62.3311L276.102 60.3947C275.787 60.1853 275.262 60.1853 274.947 60.3947L271.743 62.2788C271.428 62.4881 271.428 62.8021 271.743 62.9592L274.947 64.8956C275.262 65.0526 275.787 65.1049 276.102 64.8956ZM275.524 64.6339L272.111 62.5928L275.472 60.5517L278.885 62.5928L275.524 64.6339Z" fill="white"/>
<path d="M280.303 60.3946C280.566 60.2376 280.933 60.4469 280.671 60.6039L279.62 61.232L280.04 61.1796C280.303 61.1796 280.355 61.4413 280.04 61.4413L278.99 61.4937C278.833 61.4937 278.728 61.4413 278.728 61.3367L278.833 60.7086C278.833 60.4993 279.305 60.5516 279.305 60.7086L279.253 60.9703L280.303 60.3946Z" fill="white"/>
<path d="M277.415 60.447C277.152 60.604 277.52 60.8133 277.782 60.6563L278.833 60.0283L278.78 60.2899C278.78 60.447 279.2 60.4993 279.253 60.2899L279.358 59.6619C279.358 59.5572 279.253 59.5049 279.095 59.5049L278.045 59.5572C277.73 59.5572 277.782 59.8189 278.045 59.8189L278.465 59.7666L277.415 60.447Z" fill="white"/>
<path d="M277.205 62.8022L276.575 62.4358C276.522 62.3835 276.365 62.3835 276.26 62.4358L275.472 62.9068C275.419 62.9592 275.419 63.0115 275.472 63.0115C275.472 63.0115 275.472 63.0115 275.524 63.0638L274.527 63.6919C274.369 63.7965 274.632 63.9535 274.789 63.8489L275.787 63.2208H275.839L274.842 63.8489C274.632 63.9535 274.947 64.1106 275.104 64.0059L276.102 63.3778C276.155 63.3778 276.155 63.4302 276.155 63.4302C276.207 63.4825 276.312 63.4825 276.365 63.4302L277.152 62.9592C277.31 62.9592 277.31 62.8545 277.205 62.8022Z" fill="white"/>
<path d="M277.152 62.5928C277.297 62.5928 277.415 62.5225 277.415 62.4358C277.415 62.3491 277.297 62.2788 277.152 62.2788C277.007 62.2788 276.89 62.3491 276.89 62.4358C276.89 62.5225 277.007 62.5928 277.152 62.5928Z" fill="white"/>
<path d="M275.892 62.017L275.262 61.6506C275.209 61.5983 275.052 61.5983 274.947 61.6506L274.159 62.1217C274.106 62.174 274.106 62.2263 274.159 62.2263C274.159 62.2263 274.159 62.2263 274.211 62.2787L273.214 62.9067C273.056 63.0114 273.319 63.1684 273.476 63.0637L274.474 62.4357H274.526L273.529 63.0637C273.319 63.1684 273.634 63.3254 273.791 63.2207L274.789 62.5927C274.842 62.5927 274.842 62.645 274.842 62.645C274.894 62.6974 274.999 62.6974 275.052 62.645L275.839 62.174C275.944 62.1217 275.944 62.0693 275.892 62.017Z" fill="white"/>
<path d="M275.839 61.8077C275.984 61.8077 276.102 61.7374 276.102 61.6507C276.102 61.5639 275.984 61.4937 275.839 61.4937C275.694 61.4937 275.577 61.5639 275.577 61.6507C275.577 61.7374 275.694 61.8077 275.839 61.8077Z" fill="white"/>
<path d="M266.807 51.445C267.017 51.602 267.385 51.602 267.647 51.445C267.857 51.288 267.857 51.0786 267.647 50.974C267.437 50.8169 267.07 50.8169 266.807 50.974C266.597 51.0786 266.597 51.3403 266.807 51.445Z" fill="white"/>
<path d="M264.129 52.9627L262.711 53.8001C262.448 53.9571 262.081 53.7477 262.343 53.5907L263.761 52.7534L263.236 52.4393L265.704 51.602L265.599 51.5496L264.181 52.0206C263.866 52.1253 263.656 51.8636 263.971 51.759L265.494 51.2879C265.652 51.2356 266.072 51.1833 266.387 51.3403L266.649 51.4973L266.965 51.6543C267.28 51.8113 267.175 52.073 267.122 52.1777L266.282 53.1197C266.124 53.3291 265.652 53.172 265.862 53.015L266.649 52.1777L266.544 52.1253L265.179 53.5907L264.654 53.2767L263.183 54.1664C262.921 54.3234 262.553 54.1141 262.816 53.9571L264.286 53.0674L264.129 52.9627Z" fill="white"/>
<path d="M277.573 50.7124L262.133 59.976L252.366 54.1666L267.858 44.9031L250.79 34.6975L235.351 43.961L225.583 38.1517L241.075 28.8881L236.874 26.376L215.815 38.9891L260.61 65.7853L281.669 53.1722L277.573 50.7124Z" fill="black"/>
<path d="M353.894 49.1946L274.264 96.8002L193.059 48.2524L209.023 38.7063L211.169 37.4233L209.027 36.1338L203.605 32.8692L254.887 2.165L287.201 21.4876L287.969 21.9471L288.739 21.4887L298.157 15.876L353.894 49.1946Z" stroke="black" stroke-width="3" stroke-miterlimit="10"/>
<path d="M102.384 109.465L6.00026 51.8114L73.868 11.219L170.251 68.873L102.384 109.465Z" stroke="black" stroke-width="3" stroke-miterlimit="10"/>
<path d="M106.5 57.4999L87.5 45L123 23.6631C123 23.6631 146 30.5 173 28C200 25.5 220 10.5 220 10.5L275.5 44.9999C275.5 44.9999 275.5 148.688 275.5 210" stroke="#FF0000" stroke-width="3" stroke-linecap="round" stroke-dasharray="7 7"/>
<path fill-rule="evenodd" clip-rule="evenodd" d="M111.289 58.8438C114.817 58.2346 117.5 55.1681 117.5 51.4769C117.5 47.3475 114.142 44 110 44C105.858 44 102.5 47.3475 102.5 51.4769C102.5 55.1681 105.183 58.2346 108.711 58.8438L110 64L111.289 58.8438Z" fill="black"/>
<path fill-rule="evenodd" clip-rule="evenodd" d="M111.289 56.8438C114.817 56.2346 117.5 53.1681 117.5 49.4769C117.5 45.3475 114.142 42 110 42C105.858 42 102.5 45.3475 102.5 49.4769C102.5 53.1681 105.183 56.2346 108.711 56.8438L110 62L111.289 56.8438Z" fill="#FF0000"/>
<ellipse cx="110" cy="49.4769" rx="2.5" ry="2.49231" fill="white"/>
<path fill-rule="evenodd" clip-rule="evenodd" d="M283.289 218.844C286.817 218.235 289.5 215.168 289.5 211.477C289.5 207.348 286.142 204 282 204C277.858 204 274.5 207.348 274.5 211.477C274.5 215.168 277.183 218.235 280.711 218.844L282 224L283.289 218.844Z" fill="black"/>
<path fill-rule="evenodd" clip-rule="evenodd" d="M283.289 216.844C286.817 216.235 289.5 213.168 289.5 209.477C289.5 205.348 286.142 202 282 202C277.858 202 274.5 205.348 274.5 209.477C274.5 213.168 277.183 216.235 280.711 216.844L282 222L283.289 216.844Z" fill="#FF0000"/>
<ellipse cx="282" cy="209.477" rx="2.5" ry="2.49231" fill="white"/>
<defs>
<linearGradient id="paint0_linear" x1="219.5" y1="264" x2="257.5" y2="319" gradientUnits="userSpaceOnUse">
<stop offset="0.41491" stop-color="#003E33"/>
<stop offset="0.569304" stop-color="#00AD8E"/>
</linearGradient>
<linearGradient id="paint1_linear" x1="64.5" y1="291.5" x2="102.5" y2="348.5" gradientUnits="userSpaceOnUse">
<stop offset="0.41491" stop-color="#003E33"/>
<stop offset="0.569304" stop-color="#00AD8E"/>
</linearGradient>
<linearGradient id="paint2_linear" x1="57" y1="210.5" x2="88.5" y2="259.5" gradientUnits="userSpaceOnUse">
<stop offset="0.41491" stop-color="#003E33"/>
<stop offset="0.569304" stop-color="#00AD8E"/>
</linearGradient>
<linearGradient id="paint3_linear" x1="217" y1="174" x2="255.5" y2="234.5" gradientUnits="userSpaceOnUse">
<stop offset="0.41491" stop-color="#003E33"/>
<stop offset="0.569304" stop-color="#00AD8E"/>
</linearGradient>
<linearGradient id="paint4_linear" x1="262" y1="162" x2="293.5" y2="212.5" gradientUnits="userSpaceOnUse">
<stop offset="0.41491" stop-color="#003E33"/>
<stop offset="0.569304" stop-color="#00AD8E"/>
</linearGradient>
<linearGradient id="paint5_linear" x1="169.5" y1="170.5" x2="221.5" y2="247.5" gradientUnits="userSpaceOnUse">
<stop offset="0.41491" stop-color="#003E33"/>
<stop offset="0.569304" stop-color="#00AD8E"/>
</linearGradient>
<linearGradient id="paint6_linear" x1="151.5" y1="59" x2="209.5" y2="158.5" gradientUnits="userSpaceOnUse">
<stop offset="0.41491" stop-color="#003E33"/>
<stop offset="0.569304" stop-color="#00AD8E"/>
</linearGradient>
<linearGradient id="paint7_linear" x1="260" y1="85.5" x2="291.5" y2="135" gradientUnits="userSpaceOnUse">
<stop offset="0.552083" stop-color="#003E33"/>
<stop offset="0.703125" stop-color="#00AD8E"/>
</linearGradient>
</defs>
</svg>
