<svg width="56" height="32" viewBox="0 0 56 32" fill="none" xmlns="http://www.w3.org/2000/svg">
<path d="M2.5 5C2.5 3.61929 3.61929 2.5 5 2.5H36.421C36.7284 2.5 37.0261 2.60757 37.2625 2.80405C39.6028 4.7492 42.9972 4.7492 45.3375 2.80406C45.5739 2.60757 45.8716 2.5 46.179 2.5H51C52.3807 2.5 53.5 3.61929 53.5 5V27C53.5 28.3807 52.3807 29.5 51 29.5H46.179C45.8716 29.5 45.5739 29.3924 45.3375 29.1959C42.9973 27.2508 39.6028 27.2508 37.2625 29.1959L38.8605 31.1185L37.2625 29.1959C37.0261 29.3924 36.7284 29.5 36.421 29.5H4.99999C3.61929 29.5 2.5 28.3807 2.5 27V5Z" stroke="#C8A67C" stroke-width="5"/>
<path d="M11.2012 19.8182H30.1012" stroke="#C8A67C" stroke-width="5"/>
<path d="M11.2012 12.1818H30.1012" stroke="#C8A67C" stroke-width="5"/>
<path d="M42 10.9091V14.7272" stroke="#C8A67C" stroke-width="5"/>
<path d="M42 17.2727V21.0909" stroke="#C8A67C" stroke-width="5"/>
</svg>
