<svg width="22" height="22" viewBox="0 0 22 22" fill="none" xmlns="http://www.w3.org/2000/svg">
<path fill-rule="evenodd" clip-rule="evenodd" d="M5.26514 10.8314C5.26514 7.75733 7.75712 5.26535 10.8311 5.26535C12.3073 5.26535 13.7231 5.85177 14.7669 6.89559C15.8107 7.93942 16.3971 9.35515 16.3971 10.8314C16.3971 13.9054 13.9052 16.3974 10.8311 16.3974C7.75712 16.3974 5.26514 13.9054 5.26514 10.8314ZM7.21573 10.8314C7.21573 12.8281 8.83437 14.4467 10.8311 14.4467C12.8278 14.4467 14.4464 12.8281 14.4464 10.8314C14.4464 8.83467 12.8278 7.21603 10.8311 7.21603C8.83437 7.21603 7.21573 8.83467 7.21573 10.8314Z" fill="#C8A67C"/>
<ellipse cx="16.6172" cy="5.05978" rx="1.298" ry="1.298" fill="#C8A67C"/>
<path fill-rule="evenodd" clip-rule="evenodd" d="M18.179 0.579534C19.6532 1.15024 20.8188 2.31544 21.3896 3.78926C21.7144 4.6547 21.8879 5.56953 21.9025 6.49375C21.9694 7.66025 21.9694 8.03918 21.9694 11.0186C21.9694 13.998 21.9545 14.3695 21.9025 15.5434C21.8837 16.4551 21.7103 17.357 21.3896 18.2107C20.8188 19.6846 19.6532 20.8498 18.179 21.4205C17.325 21.741 16.4228 21.9143 15.5108 21.9331C14.344 22 13.965 22 10.9847 22C8.0044 22 7.63279 21.9851 6.45851 21.9331C5.54438 21.9025 4.64213 21.7165 3.79038 21.3833C2.31612 20.8126 1.15058 19.6474 0.579706 18.1736C0.259089 17.3199 0.0856895 16.418 0.0668891 15.5062C0 14.3398 0 13.9608 0 10.9814C0 8.00203 0.0148642 7.63053 0.0668891 6.4566C0.0856895 5.54489 0.259089 4.64298 0.579706 3.78926C1.15058 2.31544 2.31612 1.15024 3.79038 0.579534C4.64435 0.259012 5.54653 0.0856641 6.45851 0.0668693C7.62536 0 8.0044 0 10.9847 0C13.965 0 14.3366 0.0148598 15.5108 0.0668693C16.4228 0.0856641 17.325 0.259012 18.179 0.579534ZM19.5241 17.4753C19.7685 16.8164 19.8968 16.12 19.9031 15.4172H19.918C19.97 14.2507 19.97 13.9312 19.97 10.9593C19.97 7.99158 19.9552 7.66133 19.9034 6.50631L19.9031 6.50132C19.8942 5.80604 19.766 5.11745 19.5241 4.46552C19.1542 3.50595 18.3955 2.74754 17.4357 2.37771C16.7836 2.13588 16.0948 2.00771 15.3993 1.99878C14.2176 1.93192 13.9128 1.93192 10.94 1.93192C7.97139 1.93192 7.64108 1.94673 6.48568 1.99856L6.48073 1.99878C5.78524 2.00771 5.09645 2.13588 4.44433 2.37771C3.48113 2.74499 2.71928 3.50392 2.34847 4.46552C2.10404 5.12448 1.9758 5.82083 1.96943 6.52361C1.90254 7.70497 1.90254 8.00959 1.90254 10.9816C1.90254 13.9493 1.91736 14.2795 1.96921 15.4346L1.96943 15.4395C1.97836 16.1348 2.10656 16.8234 2.34847 17.4753C2.71928 18.4369 3.48113 19.1958 4.44433 19.5631C5.09645 19.805 5.78524 19.9331 6.48073 19.942C7.66244 20.0089 7.96715 20.0089 10.94 20.0089C13.9086 20.0089 14.2389 19.9941 15.3943 19.9423L15.3993 19.942C16.0948 19.9331 16.7836 19.805 17.4357 19.5631C18.3955 19.1933 19.1542 18.4349 19.5241 17.4753Z" fill="#C8A67C"/>
</svg>
