<svg width="23" height="16" viewBox="0 0 23 16" fill="none" xmlns="http://www.w3.org/2000/svg">
<path fill-rule="evenodd" clip-rule="evenodd" d="M4.3345 0.194132C2.68974 0.393984 1.35332 1.74561 1.17785 3.39315C1.07718 4.33832 0.96936 5.4409 0.96936 8C0.96936 10.5591 1.07718 11.6617 1.17785 12.6069C1.35332 14.2544 2.68974 15.606 4.3345 15.8059C5.14108 15.9039 6.7629 16 11.9694 16C18.1176 16 19.2671 15.866 19.9783 15.7531C21.4609 15.5177 22.7267 14.4894 22.821 12.9911C22.9003 11.7333 22.9694 10.0488 22.9694 8C22.9694 5.95117 22.9003 4.26672 22.821 3.00887C22.7267 1.51062 21.4609 0.482296 19.9783 0.246941C19.2671 0.134046 18.1176 0 11.9694 0C6.7629 0 5.14108 0.0961259 4.3345 0.194132ZM9.96936 11.4452L15.9694 8.41406L9.96936 5.38297V11.4452Z" fill="#C8A67C"/>
</svg>
