<svg width="375" height="220" viewBox="0 0 375 220" fill="none" xmlns="http://www.w3.org/2000/svg">
<g clip-path="url(#clip0)">
<rect width="375" height="220" fill="white"/>
<rect x="47" y="66" width="141" height="38" fill="#C8A67C"/>
<rect x="188" y="66" width="141" height="38" fill="#DAC452"/>
<path d="M126.617 88.9998C128.833 88.9998 130.176 87.629 130.176 85.3563C130.176 83.0907 128.833 81.727 126.639 81.727H124.039V88.9998H126.617ZM125.577 87.6823V83.0445H126.557C127.921 83.0445 128.642 83.7405 128.642 85.3563C128.642 86.9792 127.921 87.6823 126.554 87.6823H125.577ZM132.852 81.727H131.315V88.9998H132.852V81.727ZM140.201 81.727H138.67V86.3009H138.606L135.467 81.727H134.117V88.9998H135.655V84.4223H135.708L138.872 88.9998H140.201V81.727ZM143.009 81.727H141.471V88.9998H143.009V81.727ZM150.357 81.727H148.826V86.3009H148.762L145.623 81.727H144.274V88.9998H145.811V84.4223H145.865L149.029 88.9998H150.357V81.727ZM156.45 84.0779H158.012C157.813 82.6397 156.546 81.6276 154.901 81.6276C152.98 81.6276 151.499 83.0125 151.499 85.3705C151.499 87.6716 152.884 89.0992 154.933 89.0992C156.769 89.0992 158.08 87.938 158.08 86.0239V85.1077H155.036V86.2654H156.599C156.578 87.1674 155.963 87.7391 154.94 87.7391C153.786 87.7391 153.058 86.8762 153.058 85.3563C153.058 83.8435 153.815 82.9877 154.926 82.9877C155.718 82.9877 156.254 83.3961 156.45 84.0779ZM162.735 79.3833H162.185V91.3435H162.735V79.3833ZM173.366 84.2732C173.164 82.5935 171.893 81.6276 170.209 81.6276C168.288 81.6276 166.822 82.9841 166.822 85.3634C166.822 87.7356 168.263 89.0992 170.209 89.0992C172.074 89.0992 173.199 87.8598 173.366 86.5211L171.811 86.514C171.665 87.2917 171.055 87.7391 170.234 87.7391C169.13 87.7391 168.381 86.9188 168.381 85.3634C168.381 83.8506 169.119 82.9877 170.245 82.9877C171.087 82.9877 171.694 83.4742 171.811 84.2732H173.366ZM175.586 88.9998L176.126 87.3414H178.75L179.29 88.9998H180.937L178.43 81.727H176.449L173.938 88.9998H175.586ZM176.516 86.1411L177.411 83.389H177.468L178.363 86.1411H176.516ZM181.813 88.9998H183.35V85.9955H186.309V84.7277H183.35V82.9948H186.628V81.727H181.813V88.9998ZM187.662 88.9998H192.577V87.732H189.2V85.9955H192.311V84.7277H189.2V82.9948H192.563V81.727H187.662V88.9998ZM197.286 79.3833H196.736V91.3435H197.286V79.3833ZM201.5 88.9998H206.156V87.732H203.038V81.727H201.5V88.9998ZM208.712 81.727H207.174V88.9998H208.712V81.727ZM209.977 88.9998H211.514V85.9955H214.473V84.7277H211.514V82.9948H214.792V81.727H209.977V88.9998ZM215.826 88.9998H220.741V87.732H217.364V85.9955H220.475V84.7277H217.364V82.9948H220.727V81.727H215.826V88.9998ZM225.895 83.8186H227.369C227.347 82.5225 226.282 81.6276 224.663 81.6276C223.068 81.6276 221.9 82.5083 221.907 83.8293C221.903 84.9017 222.66 85.5161 223.888 85.8108L224.68 86.0097C225.472 86.2015 225.913 86.4287 225.916 86.9188C225.913 87.4515 225.408 87.8137 224.627 87.8137C223.828 87.8137 223.253 87.4444 223.203 86.7164H221.715C221.754 88.2895 222.88 89.1027 224.645 89.1027C226.42 89.1027 227.464 88.254 227.468 86.9223C227.464 85.7114 226.552 85.0686 225.288 84.7846L224.634 84.6283C224.002 84.4827 223.473 84.2483 223.484 83.7263C223.484 83.2576 223.899 82.9131 224.652 82.9131C225.387 82.9131 225.838 83.2469 225.895 83.8186ZM228.225 82.9948H230.452V88.9998H231.972V82.9948H234.198V81.727H228.225V82.9948ZM234.756 81.727L237.408 86.4287V88.9998H238.935V86.4287L241.588 81.727H239.866L238.207 84.8591H238.136L236.478 81.727H234.756ZM242.428 88.9998H247.084V87.732H243.966V81.727H242.428V88.9998ZM248.102 88.9998H253.017V87.732H249.639V85.9955H252.75V84.7277H249.639V82.9948H253.002V81.727H248.102V88.9998Z" fill="black"/>
<path d="M236.813 51H238.35V47.9957H241.309V46.728H238.35V44.995H241.628V43.7273H236.813V51ZM244.2 43.7273H242.662V51H244.2V43.7273ZM251.548 43.7273H250.018V48.3011H249.954L246.815 43.7273H245.465V51H247.003V46.4226H247.056L250.22 51H251.548V43.7273ZM252.819 51H257.733V49.7322H254.356V47.9957H257.467V46.728H254.356V44.995H257.719V43.7273H252.819V51ZM263.834 51C266.05 51 267.392 49.6293 267.392 47.3565C267.392 45.0909 266.05 43.7273 263.856 43.7273H261.256V51H263.834ZM262.794 49.6825V45.0447H263.774C265.138 45.0447 265.858 45.7408 265.858 47.3565C265.858 48.9794 265.138 49.6825 263.77 49.6825H262.794ZM270.069 43.7273H268.532V51H270.069V43.7273ZM277.417 43.7273H275.887V48.3011H275.823L272.684 43.7273H271.334V51H272.872V46.4226H272.925L276.089 51H277.417V43.7273ZM280.225 43.7273H278.688V51H280.225V43.7273ZM287.574 43.7273H286.043V48.3011H285.979L282.84 43.7273H281.491V51H283.028V46.4226H283.081L286.245 51H287.574V43.7273ZM293.666 46.0781H295.229C295.03 44.6399 293.762 43.6278 292.118 43.6278C290.197 43.6278 288.716 45.0128 288.716 47.3707C288.716 49.6719 290.101 51.0994 292.15 51.0994C293.986 51.0994 295.296 49.9382 295.296 48.0241V47.108H292.253V48.2656H293.816C293.794 49.1676 293.18 49.7393 292.157 49.7393C291.003 49.7393 290.275 48.8764 290.275 47.3565C290.275 45.8438 291.032 44.9879 292.143 44.9879C292.935 44.9879 293.471 45.3963 293.666 46.0781Z" fill="#C4C4C4"/>
<path d="M241.443 122.273C241.24 120.594 239.969 119.628 238.286 119.628C236.364 119.628 234.898 120.984 234.898 123.364C234.898 125.736 236.34 127.099 238.286 127.099C240.15 127.099 241.276 125.86 241.443 124.521L239.887 124.514C239.742 125.292 239.131 125.739 238.31 125.739C237.206 125.739 236.457 124.919 236.457 123.364C236.457 121.851 237.195 120.988 238.321 120.988C239.163 120.988 239.77 121.474 239.887 122.273H241.443ZM243.662 127L244.202 125.342H246.826L247.366 127H249.014L246.506 119.727H244.525L242.014 127H243.662ZM244.592 124.141L245.487 121.389H245.544L246.439 124.141H244.592ZM253.668 121.819H255.142C255.121 120.523 254.055 119.628 252.436 119.628C250.842 119.628 249.673 120.509 249.68 121.83C249.677 122.902 250.433 123.516 251.662 123.811L252.454 124.01C253.246 124.202 253.686 124.429 253.69 124.919C253.686 125.452 253.182 125.814 252.4 125.814C251.601 125.814 251.026 125.445 250.976 124.717H249.489C249.528 126.29 250.653 127.103 252.418 127.103C254.194 127.103 255.238 126.254 255.241 124.923C255.238 123.712 254.325 123.069 253.061 122.785L252.408 122.629C251.775 122.483 251.246 122.249 251.257 121.727C251.257 121.258 251.672 120.913 252.425 120.913C253.16 120.913 253.611 121.247 253.668 121.819ZM260.768 119.727V124.319C260.768 125.15 260.185 125.75 259.291 125.75C258.399 125.75 257.813 125.15 257.813 124.319V119.727H256.276V124.45C256.276 126.041 257.476 127.103 259.291 127.103C261.098 127.103 262.305 126.041 262.305 124.45V119.727H260.768ZM264.824 127L265.364 125.342H267.988L268.528 127H270.176L267.669 119.727H265.687L263.176 127H264.824ZM265.755 124.141L266.649 121.389H266.706L267.601 124.141H265.755ZM271.051 127H275.707V125.732H272.589V119.727H271.051V127ZM279.039 127H280.577V123.996H283.535V122.728H280.577V120.995H283.855V119.727H279.039V127ZM287.091 127.107C287.726 127.107 288.415 126.929 288.951 126.51L289.392 127H290.968L289.875 125.746C290.28 125.21 290.535 124.44 290.535 123.452H289.282C289.282 123.928 289.165 124.351 288.973 124.71L287.772 123.332L288.199 123.026C288.809 122.586 289.165 122.032 289.165 121.347C289.165 120.416 288.444 119.631 287.275 119.631C286.082 119.631 285.29 120.445 285.29 121.499C285.29 122.146 285.603 122.685 285.983 123.168C285.191 123.712 284.658 124.227 284.658 125.068C284.658 126.215 285.578 127.107 287.091 127.107ZM288.135 125.601C287.829 125.789 287.495 125.892 287.165 125.892C286.533 125.892 286.125 125.501 286.125 124.983C286.125 124.706 286.313 124.386 286.714 124.095L286.757 124.067L288.135 125.601ZM287.044 122.469C286.775 122.128 286.586 121.826 286.586 121.524C286.586 121.158 286.863 120.853 287.286 120.849C287.712 120.846 287.954 121.144 287.954 121.432C287.954 121.737 287.787 121.989 287.424 122.22L287.044 122.469ZM291.627 127H294.734C296.368 127 297.238 126.148 297.238 124.99C297.238 123.914 296.467 123.264 295.64 123.225V123.154C296.396 122.984 296.954 122.447 296.954 121.592C296.954 120.501 296.144 119.727 294.539 119.727H291.627V127ZM293.165 125.743V123.811H294.454C295.193 123.811 295.651 124.237 295.651 124.837C295.651 125.384 295.278 125.743 294.418 125.743H293.165ZM293.165 122.771V120.97H294.333C295.015 120.97 295.402 121.322 295.402 121.847C295.402 122.423 294.933 122.771 294.305 122.771H293.165Z" fill="#C4C4C4"/>
<path d="M88.9677 127L89.5075 125.342H92.1317L92.6715 127H94.3192L91.8121 119.727H89.8306L87.32 127H88.9677ZM89.8981 124.141L90.793 121.389H90.8498L91.7447 124.141H89.8981ZM95.1946 119.727V127H96.6861V122.249H96.7464L98.6286 126.964H99.6442L101.526 122.266H101.587V127H103.078V119.727H101.182L99.179 124.614H99.0938L97.0909 119.727H95.1946ZM104.345 127H109.26V125.732H105.883V123.996H108.993V122.728H105.883V120.995H109.246V119.727H104.345V127ZM116.551 119.727H115.021V124.301H114.957L111.817 119.727H110.468V127H112.006V122.423H112.059L115.223 127H116.551V119.727ZM119.359 119.727H117.822V127H119.359V119.727ZM120.347 120.995H122.574V127H124.094V120.995H126.32V119.727H120.347V120.995ZM126.878 119.727L129.531 124.429V127H131.058V124.429L133.71 119.727H131.988L130.33 122.859H130.259L128.6 119.727H126.878Z" fill="#C4C4C4"/>
<path d="M110.84 165H112.378V161.996H115.336V160.728H112.378V158.995H115.655V157.727H110.84V165ZM123.373 161.364C123.373 158.984 121.896 157.628 119.967 157.628C118.028 157.628 116.562 158.984 116.562 161.364C116.562 163.732 118.028 165.099 119.967 165.099C121.896 165.099 123.373 163.743 123.373 161.364ZM121.814 161.364C121.814 162.905 121.082 163.739 119.967 163.739C118.849 163.739 118.121 162.905 118.121 161.364C118.121 159.822 118.849 158.988 119.967 158.988C121.082 158.988 121.814 159.822 121.814 161.364ZM131.195 161.364C131.195 158.984 129.718 157.628 127.79 157.628C125.851 157.628 124.384 158.984 124.384 161.364C124.384 163.732 125.851 165.099 127.79 165.099C129.718 165.099 131.195 163.743 131.195 161.364ZM129.636 161.364C129.636 162.905 128.905 163.739 127.79 163.739C126.671 163.739 125.943 162.905 125.943 161.364C125.943 159.822 126.671 158.988 127.79 158.988C128.905 158.988 129.636 159.822 129.636 161.364ZM134.912 165C137.128 165 138.471 163.629 138.471 161.357C138.471 159.091 137.128 157.727 134.934 157.727H132.334V165H134.912ZM133.872 163.683V159.045H134.852C136.216 159.045 136.937 159.741 136.937 161.357C136.937 162.979 136.216 163.683 134.848 163.683H133.872ZM145.869 159.819H147.343C147.322 158.523 146.256 157.628 144.637 157.628C143.043 157.628 141.874 158.509 141.881 159.83C141.878 160.902 142.634 161.516 143.863 161.811L144.655 162.01C145.447 162.202 145.887 162.429 145.891 162.919C145.887 163.452 145.383 163.814 144.602 163.814C143.803 163.814 143.227 163.445 143.178 162.717H141.69C141.729 164.29 142.854 165.103 144.619 165.103C146.395 165.103 147.439 164.254 147.443 162.923C147.439 161.712 146.526 161.069 145.262 160.785L144.609 160.629C143.977 160.483 143.448 160.249 143.458 159.727C143.458 159.258 143.874 158.913 144.627 158.913C145.362 158.913 145.813 159.247 145.869 159.819ZM148.2 158.995H150.426V165H151.946V158.995H154.173V157.727H148.2V158.995ZM155.157 165H156.694V162.422H157.816L159.194 165H160.892L159.347 162.173C160.174 161.818 160.632 161.097 160.632 160.103C160.632 158.658 159.677 157.727 158.026 157.727H155.157V165ZM156.694 161.186V158.984H157.731C158.619 158.984 159.049 159.379 159.049 160.103C159.049 160.824 158.619 161.186 157.738 161.186H156.694ZM161.719 165H166.634V163.732H163.257V161.996H166.367V160.728H163.257V158.995H166.62V157.727H161.719V165ZM167.842 165H172.757V163.732H169.38V161.996H172.491V160.728H169.38V158.995H172.743V157.727H167.842V165ZM173.688 158.995H175.915V165H177.435V158.995H179.661V157.727H173.688V158.995ZM184.145 155.384H183.595V167.344H184.145V155.384ZM193.182 160.078H194.745C194.546 158.64 193.278 157.628 191.634 157.628C189.713 157.628 188.232 159.013 188.232 161.371C188.232 163.672 189.617 165.099 191.666 165.099C193.502 165.099 194.812 163.938 194.812 162.024V161.108H191.769V162.266H193.331C193.31 163.168 192.696 163.739 191.673 163.739C190.519 163.739 189.791 162.876 189.791 161.357C189.791 159.844 190.547 158.988 191.659 158.988C192.451 158.988 192.987 159.396 193.182 160.078ZM202.65 161.364C202.65 158.984 201.173 157.628 199.245 157.628C197.306 157.628 195.839 158.984 195.839 161.364C195.839 163.732 197.306 165.099 199.245 165.099C201.173 165.099 202.65 163.743 202.65 161.364ZM201.091 161.364C201.091 162.905 200.36 163.739 199.245 163.739C198.126 163.739 197.398 162.905 197.398 161.364C197.398 159.822 198.126 158.988 199.245 158.988C200.36 158.988 201.091 159.822 201.091 161.364ZM203.789 165H208.445V163.732H205.327V157.727H203.789V165ZM209.463 165H211.001V161.996H213.959V160.728H211.001V158.995H214.278V157.727H209.463V165ZM218.881 165L219.421 163.342H222.045L222.585 165H224.232L221.725 157.727H219.744L217.233 165H218.881ZM219.811 162.141L220.706 159.389H220.763L221.658 162.141H219.811ZM231.183 160.273C230.98 158.594 229.709 157.628 228.026 157.628C226.105 157.628 224.638 158.984 224.638 161.364C224.638 163.736 226.08 165.099 228.026 165.099C229.89 165.099 231.016 163.86 231.183 162.521L229.627 162.514C229.482 163.292 228.871 163.739 228.051 163.739C226.946 163.739 226.197 162.919 226.197 161.364C226.197 159.851 226.936 158.988 228.061 158.988C228.903 158.988 229.51 159.474 229.627 160.273H231.183ZM233.402 165L233.942 163.342H236.566L237.106 165H238.754L236.247 157.727H234.265L231.755 165H233.402ZM234.333 162.141L235.228 159.389H235.284L236.179 162.141H234.333ZM242.207 165C244.423 165 245.766 163.629 245.766 161.357C245.766 159.091 244.423 157.727 242.229 157.727H239.629V165H242.207ZM241.167 163.683V159.045H242.147C243.511 159.045 244.231 159.741 244.231 161.357C244.231 162.979 243.511 163.683 242.143 163.683H241.167ZM246.905 165H251.819V163.732H248.442V161.996H251.553V160.728H248.442V158.995H251.805V157.727H246.905V165ZM253.028 157.727V165H254.519V160.249H254.579L256.462 164.964H257.477L259.359 160.266H259.42V165H260.911V157.727H259.015L257.012 162.614H256.927L254.924 157.727H253.028ZM261.752 157.727L264.405 162.429V165H265.932V162.429L268.584 157.727H266.862L265.204 160.859H265.133L263.474 157.727H261.752Z" fill="#C4C4C4"/>
<path d="M85.0501 45.8189H86.5238C86.5025 44.5227 85.4371 43.6278 83.8178 43.6278C82.2234 43.6278 81.055 44.5085 81.0621 45.8295C81.0586 46.902 81.815 47.5163 83.0437 47.8111L83.8356 48.0099C84.6275 48.2017 85.0678 48.429 85.0714 48.919C85.0678 49.4517 84.5636 49.8139 83.7823 49.8139C82.9833 49.8139 82.408 49.4446 82.3583 48.7166H80.8704C80.9094 50.2898 82.0352 51.103 83.8001 51.103C85.5756 51.103 86.6197 50.2543 86.6232 48.9226C86.6197 47.7116 85.707 47.0689 84.4428 46.7848L83.7894 46.6286C83.1573 46.483 82.6282 46.2486 82.6388 45.7266C82.6388 45.2578 83.0543 44.9134 83.8072 44.9134C84.5423 44.9134 84.9933 45.2472 85.0501 45.8189ZM87.6575 51H89.1951V48.642H90.4877C92.1603 48.642 93.1333 47.6442 93.1333 46.1918C93.1333 44.7464 92.1781 43.7273 90.5268 43.7273H87.6575V51ZM89.1951 47.4098V44.9844H90.2321C91.1199 44.9844 91.5495 45.4673 91.5495 46.1918C91.5495 46.9126 91.1199 47.4098 90.2392 47.4098H89.1951ZM94.5458 51L95.0856 49.3416H97.7099L98.2496 51H99.8974L97.3903 43.7273H95.4087L92.8981 51H94.5458ZM95.4762 48.1413L96.3711 45.3892H96.4279L97.3228 48.1413H95.4762ZM104.273 41.3835H103.723V53.3438H104.273V41.3835ZM114.904 46.2734C114.702 44.5938 113.431 43.6278 111.748 43.6278C109.826 43.6278 108.36 44.9844 108.36 47.3636C108.36 49.7358 109.801 51.0994 111.748 51.0994C113.612 51.0994 114.738 49.8601 114.904 48.5213L113.349 48.5142C113.203 49.2919 112.593 49.7393 111.772 49.7393C110.668 49.7393 109.919 48.919 109.919 47.3636C109.919 45.8509 110.657 44.9879 111.783 44.9879C112.625 44.9879 113.232 45.4744 113.349 46.2734H114.904ZM116.007 51H120.663V49.7322H117.545V43.7273H116.007V51ZM123.219 43.7273H121.681V51H123.219V43.7273ZM130.567 43.7273H129.036V48.3011H128.972L125.833 43.7273H124.484V51H126.021V46.4226H126.075L129.239 51H130.567V43.7273ZM133.375 43.7273H131.837V51H133.375V43.7273ZM141.057 46.2734C140.854 44.5938 139.583 43.6278 137.9 43.6278C135.979 43.6278 134.512 44.9844 134.512 47.3636C134.512 49.7358 135.954 51.0994 137.9 51.0994C139.764 51.0994 140.89 49.8601 141.057 48.5213L139.501 48.5142C139.356 49.2919 138.745 49.7393 137.925 49.7393C136.82 49.7393 136.071 48.919 136.071 47.3636C136.071 45.8509 136.81 44.9879 137.935 44.9879C138.777 44.9879 139.384 45.4744 139.501 46.2734H141.057Z" fill="#C4C4C4"/>
<path d="M329.998 179.988H46.5273V217.934H329.998V179.988Z" fill="black"/>
<rect x="330" y="142" width="45" height="78" fill="#006C59"/>
<rect y="104" width="45" height="116" fill="#006C59"/>
<rect y="104" width="45" height="25" fill="#00AB8C"/>
<rect x="330" y="142" width="45" height="25" fill="#00AB8C"/>
<path d="M175 119L202 124V142H175V119Z" fill="#00AB8C"/>
<path d="M174.641 28.1361H46.5273V66.0825H174.641V28.1361Z" stroke="black" stroke-miterlimit="10"/>
<path d="M330 28.1361H201.887V66.0825H330V28.1361Z" stroke="black" stroke-miterlimit="10"/>
<path d="M329.998 104.095H46.5273V142.041H329.998V104.095Z" stroke="black" stroke-miterlimit="10"/>
<path d="M175 105H202V141H175V105Z" stroke="black" stroke-width="3" stroke-miterlimit="10"/>
<path d="M46 1H330V219H46V1Z" stroke="black" stroke-width="3" stroke-miterlimit="10"/>
<path d="M175 65V-2H202V65H175Z" fill="white" stroke="black" stroke-width="3" stroke-miterlimit="10"/>
<path d="M340 105.451V109.204C340 111.777 341.342 114.189 343.597 115.529L347.463 117.888L351.329 115.529C353.531 114.189 354.927 111.777 354.927 109.204V105.451C354.927 101.323 351.598 97.9999 347.463 97.9999C343.329 97.9999 340 101.323 340 105.451Z" stroke="#C4C4C4" stroke-width="4" stroke-miterlimit="10"/>
<path d="M354.927 130.324V126.572C354.927 123.999 353.584 121.587 351.329 120.246L347.463 117.888L343.597 120.246C341.396 121.587 340 123.999 340 126.572V130.324C340 134.452 343.329 137.776 347.463 137.776C351.598 137.776 354.927 134.452 354.927 130.324Z" stroke="#C4C4C4" stroke-width="4" stroke-miterlimit="10"/>
<path d="M29.7536 81.727H28.3082L26.5078 82.8669V84.2306L28.1733 83.1865H28.2159V88.9998H29.7536V81.727ZM31.5247 88.9998H33.0623V85.9955H36.0204V84.7277H33.0623V82.9948H36.34V81.727H31.5247V88.9998Z" fill="black"/>
<path d="M26.5895 51H31.7741V49.7429H28.7202V49.6932L29.782 48.6527C31.277 47.2891 31.6783 46.6072 31.6783 45.7798C31.6783 44.5192 30.6484 43.6278 29.0895 43.6278C27.5625 43.6278 26.5149 44.5405 26.5185 45.968H27.978C27.9744 45.272 28.4148 44.8459 29.0788 44.8459C29.718 44.8459 30.1939 45.2436 30.1939 45.8828C30.1939 46.4616 29.8388 46.8594 29.1783 47.495L26.5895 49.892V51ZM32.9309 51H34.4686V47.9957H37.4267V46.728H34.4686V44.995H37.7463V43.7273H32.9309V51Z" fill="black"/>
<path d="M78.277 18H79.7756L81.157 13.245H81.2138L82.5987 18H84.0973L86.1783 10.7273H84.4986L83.2947 15.7912H83.2308L81.9062 10.7273H80.468L79.1399 15.7805H79.0795L77.8757 10.7273H76.196L78.277 18ZM87.0012 18H91.916V16.7322H88.5389V14.9957H91.6497V13.728H88.5389V11.995H91.9018V10.7273H87.0012V18ZM97.0696 12.8189H98.5433C98.522 11.5227 97.4567 10.6278 95.8374 10.6278C94.2429 10.6278 93.0746 11.5085 93.0817 12.8295C93.0781 13.902 93.8345 14.5163 95.0632 14.8111L95.8551 15.0099C96.647 15.2017 97.0874 15.429 97.0909 15.919C97.0874 16.4517 96.5831 16.8139 95.8018 16.8139C95.0028 16.8139 94.4276 16.4446 94.3778 15.7166H92.8899C92.929 17.2898 94.0547 18.103 95.8196 18.103C97.5952 18.103 98.6392 17.2543 98.6428 15.9226C98.6392 14.7116 97.7266 14.0689 96.4624 13.7848L95.8089 13.6286C95.1768 13.483 94.6477 13.2486 94.6584 12.7266C94.6584 12.2578 95.0739 11.9134 95.8267 11.9134C96.5618 11.9134 97.0128 12.2472 97.0696 12.8189ZM99.4 11.995H101.627V18H103.146V11.995H105.373V10.7273H99.4V11.995ZM108.394 11.995H110.621V18H112.141V11.995H114.367V10.7273H108.394V11.995ZM121.712 14.3636C121.712 11.9844 120.235 10.6278 118.306 10.6278C116.367 10.6278 114.901 11.9844 114.901 14.3636C114.901 16.7322 116.367 18.0994 118.306 18.0994C120.235 18.0994 121.712 16.7429 121.712 14.3636ZM120.153 14.3636C120.153 15.9048 119.421 16.7393 118.306 16.7393C117.188 16.7393 116.46 15.9048 116.46 14.3636C116.46 12.8224 117.188 11.9879 118.306 11.9879C119.421 11.9879 120.153 12.8224 120.153 14.3636ZM124.214 18H125.713L127.094 13.245H127.151L128.536 18H130.035L132.116 10.7273H130.436L129.232 15.7912H129.168L127.844 10.7273H126.406L125.077 15.7805H125.017L123.813 10.7273H122.134L124.214 18ZM132.939 18H137.854V16.7322H134.476V14.9957H137.587V13.728H134.476V11.995H137.839V10.7273H132.939V18ZM139.062 18H140.599V15.4219H141.722L143.099 18H144.797L143.252 15.1733C144.08 14.8182 144.538 14.0973 144.538 13.103C144.538 11.6577 143.582 10.7273 141.931 10.7273H139.062V18ZM140.599 14.1861V11.9844H141.636C142.524 11.9844 142.954 12.3786 142.954 13.103C142.954 13.8239 142.524 14.1861 141.643 14.1861H140.599Z" fill="#C49B67"/>
<path d="M233.663 18H238.578V16.7322H235.201V14.9957H238.312V13.728H235.201V11.995H238.564V10.7273H233.663V18ZM241.04 18L241.58 16.3416H244.204L244.744 18H246.392L243.884 10.7273H241.903L239.392 18H241.04ZM241.97 15.1413L242.865 12.3892H242.922L243.817 15.1413H241.97ZM251.046 12.8189H252.52C252.499 11.5227 251.433 10.6278 249.814 10.6278C248.219 10.6278 247.051 11.5085 247.058 12.8295C247.055 13.902 247.811 14.5163 249.04 14.8111L249.832 15.0099C250.624 15.2017 251.064 15.429 251.067 15.919C251.064 16.4517 250.56 16.8139 249.778 16.8139C248.979 16.8139 248.404 16.4446 248.354 15.7166H246.866C246.906 17.2898 248.031 18.103 249.796 18.103C251.572 18.103 252.616 17.2543 252.619 15.9226C252.616 14.7116 251.703 14.0689 250.439 13.7848L249.786 13.6286C249.153 13.483 248.624 13.2486 248.635 12.7266C248.635 12.2578 249.05 11.9134 249.803 11.9134C250.538 11.9134 250.989 12.2472 251.046 12.8189ZM253.377 11.995H255.603V18H257.123V11.995H259.35V10.7273H253.377V11.995ZM262.371 11.995H264.597V18H266.117V11.995H268.344V10.7273H262.371V11.995ZM275.688 14.3636C275.688 11.9844 274.211 10.6278 272.283 10.6278C270.344 10.6278 268.877 11.9844 268.877 14.3636C268.877 16.7322 270.344 18.0994 272.283 18.0994C274.211 18.0994 275.688 16.7429 275.688 14.3636ZM274.129 14.3636C274.129 15.9048 273.398 16.7393 272.283 16.7393C271.164 16.7393 270.436 15.9048 270.436 14.3636C270.436 12.8224 271.164 11.9879 272.283 11.9879C273.398 11.9879 274.129 12.8224 274.129 14.3636ZM278.191 18H279.69L281.071 13.245H281.128L282.513 18H284.011L286.092 10.7273H284.413L283.209 15.7912H283.145L281.82 10.7273H280.382L279.054 15.7805H278.994L277.79 10.7273H276.11L278.191 18ZM286.915 18H291.83V16.7322H288.453V14.9957H291.564V13.728H288.453V11.995H291.816V10.7273H286.915V18ZM293.038 18H294.576V15.4219H295.698L297.076 18H298.773L297.229 15.1733C298.056 14.8182 298.514 14.0973 298.514 13.103C298.514 11.6577 297.559 10.7273 295.908 10.7273H293.038V18ZM294.576 14.1861V11.9844H295.613C296.501 11.9844 296.93 12.3786 296.93 13.103C296.93 13.8239 296.501 14.1861 295.62 14.1861H294.576Z" fill="#DAC452"/>
<path d="M26.6321 127H29.7393C31.3729 127 32.2429 126.148 32.2429 124.99C32.2429 123.914 31.4723 123.264 30.6449 123.225V123.154C31.4013 122.984 31.9588 122.447 31.9588 121.592C31.9588 120.501 31.1491 119.727 29.544 119.727H26.6321V127ZM28.1697 125.743V123.811H29.4588C30.1974 123.811 30.6555 124.237 30.6555 124.837C30.6555 125.384 30.2827 125.743 29.4233 125.743H28.1697ZM28.1697 122.771V120.97H29.3381C30.0199 120.97 30.407 121.322 30.407 121.847C30.407 122.423 29.9382 122.771 29.3097 122.771H28.1697ZM36.3649 119.727H34.9196L33.1191 120.867V122.231L34.7846 121.187H34.8272V127H36.3649V119.727Z" fill="black"/>
<path d="M26.6321 165H29.7393C31.3729 165 32.2429 164.148 32.2429 162.99C32.2429 161.914 31.4723 161.264 30.6449 161.225V161.154C31.4013 160.984 31.9588 160.447 31.9588 159.592C31.9588 158.501 31.1491 157.727 29.544 157.727H26.6321V165ZM28.1697 163.743V161.811H29.4588C30.1974 161.811 30.6555 162.237 30.6555 162.837C30.6555 163.384 30.2827 163.743 29.4233 163.743H28.1697ZM28.1697 160.771V158.97H29.3381C30.0199 158.97 30.407 159.322 30.407 159.847C30.407 160.423 29.9382 160.771 29.3097 160.771H28.1697ZM33.2008 165H38.3855V163.743H35.3315V163.693L36.3933 162.653C37.8883 161.289 38.2896 160.607 38.2896 159.78C38.2896 158.519 37.2598 157.628 35.7008 157.628C34.1738 157.628 33.1262 158.54 33.1298 159.968H34.5893C34.5858 159.272 35.0261 158.846 35.6902 158.846C36.3294 158.846 36.8052 159.244 36.8052 159.883C36.8052 160.462 36.4501 160.859 35.7896 161.495L33.2008 163.892V165Z" fill="black"/>
<path d="M166.632 203H168.17V200.642H169.462C171.135 200.642 172.108 199.644 172.108 198.192C172.108 196.746 171.153 195.727 169.501 195.727H166.632V203ZM168.17 199.41V196.984H169.207C170.094 196.984 170.524 197.467 170.524 198.192C170.524 198.913 170.094 199.41 169.214 199.41H168.17ZM173.52 203L174.06 201.342H176.684L177.224 203H178.872L176.365 195.727H174.383L171.873 203H173.52ZM174.451 200.141L175.346 197.389H175.403L176.297 200.141H174.451ZM179.747 203H181.285V200.422H182.407L183.785 203H185.482L183.938 200.173C184.765 199.818 185.223 199.097 185.223 198.103C185.223 196.658 184.268 195.727 182.617 195.727H179.747V203ZM181.285 199.186V196.984H182.322C183.21 196.984 183.639 197.379 183.639 198.103C183.639 198.824 183.21 199.186 182.329 199.186H181.285ZM186.31 203H187.847V200.933L188.604 200.01L190.596 203H192.436L189.705 198.984L192.404 195.727H190.561L187.943 198.934H187.847V195.727H186.31V203ZM194.742 195.727H193.204V203H194.742V195.727ZM202.09 195.727H200.56V200.301H200.496L197.357 195.727H196.007V203H197.545V198.423H197.598L200.762 203H202.09V195.727ZM208.183 198.078H209.746C209.547 196.64 208.279 195.628 206.635 195.628C204.714 195.628 203.233 197.013 203.233 199.371C203.233 201.672 204.618 203.099 206.667 203.099C208.503 203.099 209.813 201.938 209.813 200.024V199.108H206.77V200.266H208.332C208.311 201.168 207.697 201.739 206.674 201.739C205.52 201.739 204.792 200.876 204.792 199.357C204.792 197.844 205.548 196.988 206.66 196.988C207.452 196.988 207.988 197.396 208.183 198.078Z" fill="white"/>
<path d="M314.293 130.293C313.902 130.683 313.902 131.317 314.293 131.707L320.657 138.071C321.047 138.462 321.681 138.462 322.071 138.071C322.462 137.681 322.462 137.047 322.071 136.657L316.414 131L322.071 125.343C322.462 124.953 322.462 124.319 322.071 123.929C321.681 123.538 321.047 123.538 320.657 123.929L314.293 130.293ZM375 130C374.954 130 374.908 130 374.863 130C374.817 130 374.771 130 374.725 130C374.679 130 374.633 130 374.587 130C374.541 130 374.495 130 374.448 130C374.402 130 374.356 130 374.31 130C374.264 130 374.217 130 374.171 130C374.125 130 374.078 130 374.032 130C373.985 130 373.939 130 373.892 130C373.846 130 373.799 130 373.752 130C373.706 130 373.659 130 373.612 130C373.566 130 373.519 130 373.472 130C373.425 130 373.378 130 373.331 130C373.285 130 373.238 130 373.191 130C373.144 130 373.097 130 373.049 130C373.002 130 372.955 130 372.908 130C372.861 130 372.814 130 372.766 130C372.719 130 372.672 130 372.624 130C372.577 130 372.53 130 372.482 130C372.435 130 372.387 130 372.34 130C372.292 130 372.245 130 372.197 130C372.149 130 372.102 130 372.054 130C372.006 130 371.959 130 371.911 130C371.863 130 371.815 130 371.767 130C371.719 130 371.671 130 371.623 130C371.576 130 371.528 130 371.479 130C371.431 130 371.383 130 371.335 130C371.287 130 371.239 130 371.191 130C371.143 130 371.094 130 371.046 130C370.998 130 370.949 130 370.901 130C370.853 130 370.804 130 370.756 130C370.707 130 370.659 130 370.61 130C370.562 130 370.513 130 370.465 130C370.416 130 370.368 130 370.319 130C370.27 130 370.222 130 370.173 130C370.124 130 370.075 130 370.026 130C369.978 130 369.929 130 369.88 130C369.831 130 369.782 130 369.733 130C369.684 130 369.635 130 369.586 130C369.537 130 369.488 130 369.439 130C369.39 130 369.341 130 369.291 130C369.242 130 369.193 130 369.144 130C369.095 130 369.045 130 368.996 130C368.947 130 368.897 130 368.848 130C368.798 130 368.749 130 368.7 130C368.65 130 368.601 130 368.551 130C368.502 130 368.452 130 368.402 130C368.353 130 368.303 130 368.254 130C368.204 130 368.154 130 368.104 130C368.055 130 368.005 130 367.955 130C367.905 130 367.856 130 367.806 130C367.756 130 367.706 130 367.656 130C367.606 130 367.556 130 367.506 130C367.456 130 367.406 130 367.356 130C367.306 130 367.256 130 367.206 130C367.156 130 367.106 130 367.056 130C367.006 130 366.955 130 366.905 130C366.855 130 366.805 130 366.754 130C366.704 130 366.654 130 366.603 130C366.553 130 366.503 130 366.452 130C366.402 130 366.352 130 366.301 130C366.251 130 366.2 130 366.15 130C366.099 130 366.049 130 365.998 130C365.948 130 365.897 130 365.846 130C365.796 130 365.745 130 365.694 130C365.644 130 365.593 130 365.542 130C365.492 130 365.441 130 365.39 130C365.339 130 365.289 130 365.238 130C365.187 130 365.136 130 365.085 130C365.034 130 364.984 130 364.933 130C364.882 130 364.831 130 364.78 130C364.729 130 364.678 130 364.627 130C364.576 130 364.525 130 364.474 130C364.423 130 364.372 130 364.32 130C364.269 130 364.218 130 364.167 130C364.116 130 364.065 130 364.014 130C363.962 130 363.911 130 363.86 130C363.809 130 363.757 130 363.706 130C363.655 130 363.603 130 363.552 130C363.501 130 363.449 130 363.398 130C363.347 130 363.295 130 363.244 130C363.193 130 363.141 130 363.09 130C363.038 130 362.987 130 362.935 130C362.884 130 362.832 130 362.781 130C362.729 130 362.678 130 362.626 130C362.574 130 362.523 130 362.471 130C362.42 130 362.368 130 362.316 130C362.265 130 362.213 130 362.161 130C362.11 130 362.058 130 362.006 130C361.955 130 361.903 130 361.851 130C361.799 130 361.748 130 361.696 130C361.644 130 361.592 130 361.54 130C361.489 130 361.437 130 361.385 130C361.333 130 361.281 130 361.229 130C361.177 130 361.125 130 361.074 130C361.022 130 360.97 130 360.918 130C360.866 130 360.814 130 360.762 130C360.71 130 360.658 130 360.606 130C360.554 130 360.502 130 360.45 130C360.398 130 360.346 130 360.294 130C360.242 130 360.19 130 360.138 130C360.085 130 360.033 130 359.981 130C359.929 130 359.877 130 359.825 130C359.773 130 359.721 130 359.668 130C359.616 130 359.564 130 359.512 130C359.46 130 359.408 130 359.355 130C359.303 130 359.251 130 359.199 130C359.146 130 359.094 130 359.042 130C358.99 130 358.937 130 358.885 130C358.833 130 358.781 130 358.728 130C358.676 130 358.624 130 358.571 130C358.519 130 358.467 130 358.415 130C358.362 130 358.31 130 358.258 130C358.205 130 358.153 130 358.1 130C358.048 130 357.996 130 357.943 130C357.891 130 357.839 130 357.786 130C357.734 130 357.681 130 357.629 130C357.577 130 357.524 130 357.472 130C357.419 130 357.367 130 357.314 130C357.262 130 357.21 130 357.157 130C357.105 130 357.052 130 357 130C356.947 130 356.895 130 356.842 130C356.79 130 356.737 130 356.685 130C356.632 130 356.58 130 356.527 130C356.475 130 356.423 130 356.37 130C356.318 130 356.265 130 356.213 130C356.16 130 356.107 130 356.055 130C356.002 130 355.95 130 355.897 130C355.845 130 355.792 130 355.74 130C355.687 130 355.635 130 355.582 130C355.53 130 355.477 130 355.425 130C355.372 130 355.32 130 355.267 130C355.215 130 355.162 130 355.109 130C355.057 130 355.004 130 354.952 130C354.899 130 354.847 130 354.794 130C354.742 130 354.689 130 354.637 130C354.584 130 354.531 130 354.479 130C354.426 130 354.374 130 354.321 130C354.269 130 354.216 130 354.164 130C354.111 130 354.059 130 354.006 130C353.953 130 353.901 130 353.848 130C353.796 130 353.743 130 353.691 130C353.638 130 353.586 130 353.533 130C353.481 130 353.428 130 353.376 130C353.323 130 353.271 130 353.218 130C353.166 130 353.113 130 353.06 130C353.008 130 352.955 130 352.903 130C352.85 130 352.798 130 352.745 130C352.693 130 352.64 130 352.588 130C352.536 130 352.483 130 352.431 130C352.378 130 352.326 130 352.273 130C352.221 130 352.168 130 352.116 130C352.063 130 352.011 130 351.958 130C351.906 130 351.854 130 351.801 130C351.749 130 351.696 130 351.644 130C351.591 130 351.539 130 351.487 130C351.434 130 351.382 130 351.329 130C351.277 130 351.225 130 351.172 130C351.12 130 351.068 130 351.015 130C350.963 130 350.91 130 350.858 130C350.806 130 350.753 130 350.701 130C350.649 130 350.597 130 350.544 130C350.492 130 350.44 130 350.387 130C350.335 130 350.283 130 350.231 130C350.178 130 350.126 130 350.074 130C350.022 130 349.969 130 349.917 130C349.865 130 349.813 130 349.76 130C349.708 130 349.656 130 349.604 130C349.552 130 349.5 130 349.447 130C349.395 130 349.343 130 349.291 130C349.239 130 349.187 130 349.135 130C349.083 130 349.03 130 348.978 130C348.926 130 348.874 130 348.822 130C348.77 130 348.718 130 348.666 130C348.614 130 348.562 130 348.51 130C348.458 130 348.406 130 348.354 130C348.302 130 348.25 130 348.198 130C348.146 130 348.094 130 348.043 130C347.991 130 347.939 130 347.887 130C347.835 130 347.783 130 347.731 130C347.679 130 347.628 130 347.576 130C347.524 130 347.472 130 347.42 130C347.369 130 347.317 130 347.265 130C347.213 130 347.162 130 347.11 130C347.058 130 347.007 130 346.955 130C346.903 130 346.852 130 346.8 130C346.748 130 346.697 130 346.645 130C346.594 130 346.542 130 346.49 130C346.439 130 346.387 130 346.336 130C346.284 130 346.233 130 346.181 130C346.13 130 346.078 130 346.027 130C345.976 130 345.924 130 345.873 130C345.821 130 345.77 130 345.719 130C345.667 130 345.616 130 345.565 130C345.513 130 345.462 130 345.411 130C345.359 130 345.308 130 345.257 130C345.206 130 345.155 130 345.103 130C345.052 130 345.001 130 344.95 130C344.899 130 344.848 130 344.797 130C344.745 130 344.694 130 344.643 130C344.592 130 344.541 130 344.49 130C344.439 130 344.388 130 344.337 130C344.286 130 344.235 130 344.185 130C344.134 130 344.083 130 344.032 130C343.981 130 343.93 130 343.879 130C343.829 130 343.778 130 343.727 130C343.676 130 343.626 130 343.575 130C343.524 130 343.474 130 343.423 130C343.372 130 343.322 130 343.271 130C343.221 130 343.17 130 343.119 130C343.069 130 343.018 130 342.968 130C342.917 130 342.867 130 342.817 130C342.766 130 342.716 130 342.665 130C342.615 130 342.565 130 342.514 130C342.464 130 342.414 130 342.364 130C342.313 130 342.263 130 342.213 130C342.163 130 342.112 130 342.062 130C342.012 130 341.962 130 341.912 130C341.862 130 341.812 130 341.762 130C341.712 130 341.662 130 341.612 130C341.562 130 341.512 130 341.462 130C341.412 130 341.362 130 341.313 130C341.263 130 341.213 130 341.163 130C341.113 130 341.064 130 341.014 130C340.964 130 340.915 130 340.865 130C340.815 130 340.766 130 340.716 130C340.667 130 340.617 130 340.568 130C340.518 130 340.469 130 340.419 130C340.37 130 340.32 130 340.271 130C340.222 130 340.172 130 340.123 130C340.074 130 340.024 130 339.975 130C339.926 130 339.877 130 339.828 130C339.779 130 339.729 130 339.68 130C339.631 130 339.582 130 339.533 130C339.484 130 339.435 130 339.386 130C339.337 130 339.288 130 339.24 130C339.191 130 339.142 130 339.093 130C339.044 130 338.995 130 338.947 130C338.898 130 338.849 130 338.801 130C338.752 130 338.703 130 338.655 130C338.606 130 338.558 130 338.509 130C338.461 130 338.412 130 338.364 130C338.316 130 338.267 130 338.219 130C338.171 130 338.122 130 338.074 130C338.026 130 337.978 130 337.929 130C337.881 130 337.833 130 337.785 130C337.737 130 337.689 130 337.641 130C337.593 130 337.545 130 337.497 130C337.449 130 337.401 130 337.353 130C337.305 130 337.258 130 337.21 130C337.162 130 337.114 130 337.067 130C337.019 130 336.971 130 336.924 130C336.876 130 336.829 130 336.781 130C336.734 130 336.686 130 336.639 130C336.591 130 336.544 130 336.497 130C336.449 130 336.402 130 336.355 130C336.308 130 336.26 130 336.213 130C336.166 130 336.119 130 336.072 130C336.025 130 335.978 130 335.931 130C335.884 130 335.837 130 335.79 130C335.743 130 335.696 130 335.65 130C335.603 130 335.556 130 335.509 130C335.463 130 335.416 130 335.369 130C335.323 130 335.276 130 335.23 130C335.183 130 335.137 130 335.09 130C335.044 130 334.998 130 334.951 130C334.905 130 334.859 130 334.812 130C334.766 130 334.72 130 334.674 130C334.628 130 334.582 130 334.536 130C334.49 130 334.444 130 334.398 130C334.352 130 334.306 130 334.26 130C334.214 130 334.168 130 334.123 130C334.077 130 334.031 130 333.986 130C333.94 130 333.895 130 333.849 130C333.803 130 333.758 130 333.713 130C333.667 130 333.622 130 333.576 130C333.531 130 333.486 130 333.441 130C333.395 130 333.35 130 333.305 130C333.26 130 333.215 130 333.17 130C333.125 130 333.08 130 333.035 130C332.99 130 332.945 130 332.901 130C332.856 130 332.811 130 332.766 130C332.722 130 332.677 130 332.632 130C332.588 130 332.543 130 332.499 130C332.454 130 332.41 130 332.366 130C332.321 130 332.277 130 332.233 130C332.188 130 332.144 130 332.1 130C332.056 130 332.012 130 331.968 130C331.924 130 331.88 130 331.836 130C331.792 130 331.748 130 331.704 130C331.661 130 331.617 130 331.573 130C331.529 130 331.486 130 331.442 130C331.399 130 331.355 130 331.312 130C331.268 130 331.225 130 331.182 130C331.138 130 331.095 130 331.052 130C331.009 130 330.965 130 330.922 130C330.879 130 330.836 130 330.793 130C330.75 130 330.707 130 330.664 130C330.621 130 330.579 130 330.536 130C330.493 130 330.45 130 330.408 130C330.365 130 330.323 130 330.28 130C330.238 130 330.195 130 330.153 130C330.11 130 330.068 130 330.026 130C329.984 130 329.941 130 329.899 130C329.857 130 329.815 130 329.773 130C329.731 130 329.689 130 329.647 130C329.605 130 329.564 130 329.522 130C329.48 130 329.438 130 329.397 130C329.355 130 329.314 130 329.272 130C329.231 130 329.189 130 329.148 130C329.106 130 329.065 130 329.024 130C328.983 130 328.941 130 328.9 130C328.859 130 328.818 130 328.777 130C328.736 130 328.695 130 328.654 130C328.613 130 328.573 130 328.532 130C328.491 130 328.451 130 328.41 130C328.369 130 328.329 130 328.288 130C328.248 130 328.208 130 328.167 130C328.127 130 328.087 130 328.046 130C328.006 130 327.966 130 327.926 130C327.886 130 327.846 130 327.806 130C327.766 130 327.726 130 327.687 130C327.647 130 327.607 130 327.567 130C327.528 130 327.488 130 327.449 130C327.409 130 327.37 130 327.33 130C327.291 130 327.252 130 327.213 130C327.173 130 327.134 130 327.095 130C327.056 130 327.017 130 326.978 130C326.939 130 326.9 130 326.862 130C326.823 130 326.784 130 326.745 130C326.707 130 326.668 130 326.63 130C326.591 130 326.553 130 326.514 130C326.476 130 326.438 130 326.399 130C326.361 130 326.323 130 326.285 130C326.247 130 326.209 130 326.171 130C326.133 130 326.095 130 326.057 130C326.02 130 325.982 130 325.944 130C325.907 130 325.869 130 325.832 130C325.794 130 325.757 130 325.719 130C325.682 130 325.645 130 325.608 130C325.57 130 325.533 130 325.496 130C325.459 130 325.422 130 325.385 130C325.349 130 325.312 130 325.275 130C325.238 130 325.202 130 325.165 130C325.128 130 325.092 130 325.056 130C325.019 130 324.983 130 324.947 130C324.91 130 324.874 130 324.838 130C324.802 130 324.766 130 324.73 130C324.694 130 324.658 130 324.622 130C324.586 130 324.551 130 324.515 130C324.479 130 324.444 130 324.408 130C324.373 130 324.338 130 324.302 130C324.267 130 324.232 130 324.197 130C324.161 130 324.126 130 324.091 130C324.056 130 324.021 130 323.987 130C323.952 130 323.917 130 323.882 130C323.848 130 323.813 130 323.779 130C323.744 130 323.71 130 323.675 130C323.641 130 323.607 130 323.572 130C323.538 130 323.504 130 323.47 130C323.436 130 323.402 130 323.368 130C323.334 130 323.301 130 323.267 130C323.233 130 323.2 130 323.166 130C323.133 130 323.099 130 323.066 130C323.033 130 322.999 130 322.966 130C322.933 130 322.9 130 322.867 130C322.834 130 322.801 130 322.768 130C322.735 130 322.702 130 322.67 130C322.637 130 322.605 130 322.572 130C322.54 130 322.507 130 322.475 130C322.443 130 322.41 130 322.378 130C322.346 130 322.314 130 322.282 130C322.25 130 322.218 130 322.186 130C322.154 130 322.123 130 322.091 130C322.06 130 322.028 130 321.997 130C321.965 130 321.934 130 321.902 130C321.871 130 321.84 130 321.809 130C321.778 130 321.747 130 321.716 130C321.685 130 321.654 130 321.623 130C321.593 130 321.562 130 321.531 130C321.501 130 321.47 130 321.44 130C321.41 130 321.379 130 321.349 130C321.319 130 321.289 130 321.259 130C321.229 130 321.199 130 321.169 130C321.139 130 321.11 130 321.08 130C321.05 130 321.021 130 320.991 130C320.962 130 320.932 130 320.903 130C320.874 130 320.845 130 320.816 130C320.787 130 320.758 130 320.729 130C320.7 130 320.671 130 320.642 130C320.614 130 320.585 130 320.556 130C320.528 130 320.499 130 320.471 130C320.443 130 320.415 130 320.386 130C320.358 130 320.33 130 320.302 130C320.274 130 320.246 130 320.219 130C320.191 130 320.163 130 320.136 130C320.108 130 320.081 130 320.053 130C320.026 130 319.999 130 319.971 130C319.944 130 319.917 130 319.89 130C319.863 130 319.836 130 319.809 130C319.783 130 319.756 130 319.729 130C319.703 130 319.676 130 319.65 130C319.623 130 319.597 130 319.571 130C319.545 130 319.519 130 319.493 130C319.467 130 319.441 130 319.415 130C319.389 130 319.363 130 319.338 130C319.312 130 319.287 130 319.261 130C319.236 130 319.21 130 319.185 130C319.16 130 319.135 130 319.11 130C319.085 130 319.06 130 319.035 130C319.01 130 318.986 130 318.961 130C318.936 130 318.912 130 318.887 130C318.863 130 318.839 130 318.815 130C318.79 130 318.766 130 318.742 130C318.718 130 318.694 130 318.671 130C318.647 130 318.623 130 318.6 130C318.576 130 318.553 130 318.529 130C318.506 130 318.483 130 318.459 130C318.436 130 318.413 130 318.39 130C318.367 130 318.344 130 318.322 130C318.299 130 318.276 130 318.254 130C318.231 130 318.209 130 318.186 130C318.164 130 318.142 130 318.12 130C318.098 130 318.076 130 318.054 130C318.032 130 318.01 130 317.988 130C317.967 130 317.945 130 317.924 130C317.902 130 317.881 130 317.86 130C317.838 130 317.817 130 317.796 130C317.775 130 317.754 130 317.733 130C317.713 130 317.692 130 317.671 130C317.651 130 317.63 130 317.61 130C317.589 130 317.569 130 317.549 130C317.529 130 317.509 130 317.489 130C317.469 130 317.449 130 317.429 130C317.41 130 317.39 130 317.37 130C317.351 130 317.331 130 317.312 130C317.293 130 317.274 130 317.255 130C317.236 130 317.217 130 317.198 130C317.179 130 317.16 130 317.142 130C317.123 130 317.104 130 317.086 130C317.068 130 317.049 130 317.031 130C317.013 130 316.995 130 316.977 130C316.959 130 316.941 130 316.924 130C316.906 130 316.888 130 316.871 130C316.853 130 316.836 130 316.819 130C316.801 130 316.784 130 316.767 130C316.75 130 316.733 130 316.716 130C316.7 130 316.683 130 316.666 130C316.65 130 316.633 130 316.617 130C316.601 130 316.585 130 316.568 130C316.552 130 316.536 130 316.52 130C316.505 130 316.489 130 316.473 130C316.458 130 316.442 130 316.427 130C316.411 130 316.396 130 316.381 130C316.366 130 316.35 130 316.336 130C316.321 130 316.306 130 316.291 130C316.276 130 316.262 130 316.247 130C316.233 130 316.219 130 316.204 130C316.19 130 316.176 130 316.162 130C316.148 130 316.134 130 316.12 130C316.107 130 316.093 130 316.08 130C316.066 130 316.053 130 316.039 130C316.026 130 316.013 130 316 130C315.987 130 315.974 130 315.961 130C315.948 130 315.936 130 315.923 130C315.911 130 315.898 130 315.886 130C315.874 130 315.862 130 315.849 130C315.837 130 315.826 130 315.814 130C315.802 130 315.79 130 315.779 130C315.767 130 315.756 130 315.744 130C315.733 130 315.722 130 315.711 130C315.7 130 315.689 130 315.678 130C315.667 130 315.656 130 315.646 130C315.635 130 315.625 130 315.615 130C315.604 130 315.594 130 315.584 130C315.574 130 315.564 130 315.554 130C315.544 130 315.535 130 315.525 130C315.516 130 315.506 130 315.497 130C315.487 130 315.478 130 315.469 130C315.46 130 315.451 130 315.442 130C315.434 130 315.425 130 315.416 130C315.408 130 315.399 130 315.391 130C315.383 130 315.375 130 315.367 130C315.359 130 315.351 130 315.343 130C315.335 130 315.327 130 315.32 130C315.312 130 315.305 130 315.298 130C315.291 130 315.283 130 315.276 130C315.269 130 315.263 130 315.256 130C315.249 130 315.242 130 315.236 130C315.229 130 315.223 130 315.217 130C315.211 130 315.205 130 315.199 130C315.193 130 315.187 130 315.181 130C315.175 130 315.17 130 315.164 130C315.159 130 315.154 130 315.149 130C315.143 130 315.138 130 315.133 130C315.129 130 315.124 130 315.119 130C315.114 130 315.11 130 315.106 130C315.101 130 315.097 130 315.093 130C315.089 130 315.085 130 315.081 130C315.077 130 315.073 130 315.07 130C315.066 130 315.063 130 315.06 130C315.056 130 315.053 130 315.05 130C315.047 130 315.044 130 315.041 130C315.039 130 315.036 130 315.034 130C315.031 130 315.029 130 315.027 130C315.024 130 315.022 130 315.02 130C315.018 130 315.017 130 315.015 130C315.013 130 315.012 130 315.01 130C315.009 130 315.008 130 315.007 130C315.006 130 315.005 130 315.004 130C315.003 130 315.002 130 315.002 130C315.001 130 315.001 130 315 130C315 130 315 130 315 131C315 132 315 132 315 132C315.001 132 315.001 132 315.002 132C315.002 132 315.003 132 315.004 132C315.005 132 315.006 132 315.007 132C315.008 132 315.009 132 315.01 132C315.012 132 315.013 132 315.015 132C315.017 132 315.018 132 315.02 132C315.022 132 315.024 132 315.027 132C315.029 132 315.031 132 315.034 132C315.036 132 315.039 132 315.041 132C315.044 132 315.047 132 315.05 132C315.053 132 315.056 132 315.06 132C315.063 132 315.066 132 315.07 132C315.073 132 315.077 132 315.081 132C315.085 132 315.089 132 315.093 132C315.097 132 315.101 132 315.106 132C315.11 132 315.114 132 315.119 132C315.124 132 315.129 132 315.133 132C315.138 132 315.143 132 315.149 132C315.154 132 315.159 132 315.164 132C315.17 132 315.175 132 315.181 132C315.187 132 315.193 132 315.199 132C315.205 132 315.211 132 315.217 132C315.223 132 315.229 132 315.236 132C315.242 132 315.249 132 315.256 132C315.263 132 315.269 132 315.276 132C315.283 132 315.291 132 315.298 132C315.305 132 315.312 132 315.32 132C315.327 132 315.335 132 315.343 132C315.351 132 315.359 132 315.367 132C315.375 132 315.383 132 315.391 132C315.399 132 315.408 132 315.416 132C315.425 132 315.434 132 315.442 132C315.451 132 315.46 132 315.469 132C315.478 132 315.487 132 315.497 132C315.506 132 315.516 132 315.525 132C315.535 132 315.544 132 315.554 132C315.564 132 315.574 132 315.584 132C315.594 132 315.604 132 315.615 132C315.625 132 315.635 132 315.646 132C315.656 132 315.667 132 315.678 132C315.689 132 315.7 132 315.711 132C315.722 132 315.733 132 315.744 132C315.756 132 315.767 132 315.779 132C315.79 132 315.802 132 315.814 132C315.826 132 315.837 132 315.849 132C315.862 132 315.874 132 315.886 132C315.898 132 315.911 132 315.923 132C315.936 132 315.948 132 315.961 132C315.974 132 315.987 132 316 132C316.013 132 316.026 132 316.039 132C316.053 132 316.066 132 316.08 132C316.093 132 316.107 132 316.12 132C316.134 132 316.148 132 316.162 132C316.176 132 316.19 132 316.204 132C316.219 132 316.233 132 316.247 132C316.262 132 316.276 132 316.291 132C316.306 132 316.321 132 316.336 132C316.35 132 316.366 132 316.381 132C316.396 132 316.411 132 316.427 132C316.442 132 316.458 132 316.473 132C316.489 132 316.505 132 316.52 132C316.536 132 316.552 132 316.568 132C316.585 132 316.601 132 316.617 132C316.633 132 316.65 132 316.666 132C316.683 132 316.7 132 316.716 132C316.733 132 316.75 132 316.767 132C316.784 132 316.801 132 316.819 132C316.836 132 316.853 132 316.871 132C316.888 132 316.906 132 316.924 132C316.941 132 316.959 132 316.977 132C316.995 132 317.013 132 317.031 132C317.049 132 317.068 132 317.086 132C317.104 132 317.123 132 317.142 132C317.16 132 317.179 132 317.198 132C317.217 132 317.236 132 317.255 132C317.274 132 317.293 132 317.312 132C317.331 132 317.351 132 317.37 132C317.39 132 317.41 132 317.429 132C317.449 132 317.469 132 317.489 132C317.509 132 317.529 132 317.549 132C317.569 132 317.589 132 317.61 132C317.63 132 317.651 132 317.671 132C317.692 132 317.713 132 317.733 132C317.754 132 317.775 132 317.796 132C317.817 132 317.838 132 317.86 132C317.881 132 317.902 132 317.924 132C317.945 132 317.967 132 317.988 132C318.01 132 318.032 132 318.054 132C318.076 132 318.098 132 318.12 132C318.142 132 318.164 132 318.186 132C318.209 132 318.231 132 318.254 132C318.276 132 318.299 132 318.322 132C318.344 132 318.367 132 318.39 132C318.413 132 318.436 132 318.459 132C318.483 132 318.506 132 318.529 132C318.553 132 318.576 132 318.6 132C318.623 132 318.647 132 318.671 132C318.694 132 318.718 132 318.742 132C318.766 132 318.79 132 318.815 132C318.839 132 318.863 132 318.887 132C318.912 132 318.936 132 318.961 132C318.986 132 319.01 132 319.035 132C319.06 132 319.085 132 319.11 132C319.135 132 319.16 132 319.185 132C319.21 132 319.236 132 319.261 132C319.287 132 319.312 132 319.338 132C319.363 132 319.389 132 319.415 132C319.441 132 319.467 132 319.493 132C319.519 132 319.545 132 319.571 132C319.597 132 319.623 132 319.65 132C319.676 132 319.703 132 319.729 132C319.756 132 319.783 132 319.809 132C319.836 132 319.863 132 319.89 132C319.917 132 319.944 132 319.971 132C319.999 132 320.026 132 320.053 132C320.081 132 320.108 132 320.136 132C320.163 132 320.191 132 320.219 132C320.246 132 320.274 132 320.302 132C320.33 132 320.358 132 320.386 132C320.415 132 320.443 132 320.471 132C320.499 132 320.528 132 320.556 132C320.585 132 320.614 132 320.642 132C320.671 132 320.7 132 320.729 132C320.758 132 320.787 132 320.816 132C320.845 132 320.874 132 320.903 132C320.932 132 320.962 132 320.991 132C321.021 132 321.05 132 321.08 132C321.11 132 321.139 132 321.169 132C321.199 132 321.229 132 321.259 132C321.289 132 321.319 132 321.349 132C321.379 132 321.41 132 321.44 132C321.47 132 321.501 132 321.531 132C321.562 132 321.593 132 321.623 132C321.654 132 321.685 132 321.716 132C321.747 132 321.778 132 321.809 132C321.84 132 321.871 132 321.902 132C321.934 132 321.965 132 321.997 132C322.028 132 322.06 132 322.091 132C322.123 132 322.154 132 322.186 132C322.218 132 322.25 132 322.282 132C322.314 132 322.346 132 322.378 132C322.41 132 322.443 132 322.475 132C322.507 132 322.54 132 322.572 132C322.605 132 322.637 132 322.67 132C322.702 132 322.735 132 322.768 132C322.801 132 322.834 132 322.867 132C322.9 132 322.933 132 322.966 132C322.999 132 323.033 132 323.066 132C323.099 132 323.133 132 323.166 132C323.2 132 323.233 132 323.267 132C323.301 132 323.334 132 323.368 132C323.402 132 323.436 132 323.47 132C323.504 132 323.538 132 323.572 132C323.607 132 323.641 132 323.675 132C323.71 132 323.744 132 323.779 132C323.813 132 323.848 132 323.882 132C323.917 132 323.952 132 323.987 132C324.021 132 324.056 132 324.091 132C324.126 132 324.161 132 324.197 132C324.232 132 324.267 132 324.302 132C324.338 132 324.373 132 324.408 132C324.444 132 324.479 132 324.515 132C324.551 132 324.586 132 324.622 132C324.658 132 324.694 132 324.73 132C324.766 132 324.802 132 324.838 132C324.874 132 324.91 132 324.947 132C324.983 132 325.019 132 325.056 132C325.092 132 325.128 132 325.165 132C325.202 132 325.238 132 325.275 132C325.312 132 325.349 132 325.385 132C325.422 132 325.459 132 325.496 132C325.533 132 325.57 132 325.608 132C325.645 132 325.682 132 325.719 132C325.757 132 325.794 132 325.832 132C325.869 132 325.907 132 325.944 132C325.982 132 326.02 132 326.057 132C326.095 132 326.133 132 326.171 132C326.209 132 326.247 132 326.285 132C326.323 132 326.361 132 326.399 132C326.438 132 326.476 132 326.514 132C326.553 132 326.591 132 326.63 132C326.668 132 326.707 132 326.745 132C326.784 132 326.823 132 326.862 132C326.9 132 326.939 132 326.978 132C327.017 132 327.056 132 327.095 132C327.134 132 327.173 132 327.213 132C327.252 132 327.291 132 327.33 132C327.37 132 327.409 132 327.449 132C327.488 132 327.528 132 327.567 132C327.607 132 327.647 132 327.687 132C327.726 132 327.766 132 327.806 132C327.846 132 327.886 132 327.926 132C327.966 132 328.006 132 328.046 132C328.087 132 328.127 132 328.167 132C328.208 132 328.248 132 328.288 132C328.329 132 328.369 132 328.41 132C328.451 132 328.491 132 328.532 132C328.573 132 328.613 132 328.654 132C328.695 132 328.736 132 328.777 132C328.818 132 328.859 132 328.9 132C328.941 132 328.983 132 329.024 132C329.065 132 329.106 132 329.148 132C329.189 132 329.231 132 329.272 132C329.314 132 329.355 132 329.397 132C329.438 132 329.48 132 329.522 132C329.564 132 329.605 132 329.647 132C329.689 132 329.731 132 329.773 132C329.815 132 329.857 132 329.899 132C329.941 132 329.984 132 330.026 132C330.068 132 330.11 132 330.153 132C330.195 132 330.238 132 330.28 132C330.323 132 330.365 132 330.408 132C330.45 132 330.493 132 330.536 132C330.579 132 330.621 132 330.664 132C330.707 132 330.75 132 330.793 132C330.836 132 330.879 132 330.922 132C330.965 132 331.009 132 331.052 132C331.095 132 331.138 132 331.182 132C331.225 132 331.268 132 331.312 132C331.355 132 331.399 132 331.442 132C331.486 132 331.529 132 331.573 132C331.617 132 331.661 132 331.704 132C331.748 132 331.792 132 331.836 132C331.88 132 331.924 132 331.968 132C332.012 132 332.056 132 332.1 132C332.144 132 332.188 132 332.233 132C332.277 132 332.321 132 332.366 132C332.41 132 332.454 132 332.499 132C332.543 132 332.588 132 332.632 132C332.677 132 332.722 132 332.766 132C332.811 132 332.856 132 332.901 132C332.945 132 332.99 132 333.035 132C333.08 132 333.125 132 333.17 132C333.215 132 333.26 132 333.305 132C333.35 132 333.395 132 333.441 132C333.486 132 333.531 132 333.576 132C333.622 132 333.667 132 333.713 132C333.758 132 333.803 132 333.849 132C333.895 132 333.94 132 333.986 132C334.031 132 334.077 132 334.123 132C334.168 132 334.214 132 334.26 132C334.306 132 334.352 132 334.398 132C334.444 132 334.49 132 334.536 132C334.582 132 334.628 132 334.674 132C334.72 132 334.766 132 334.812 132C334.859 132 334.905 132 334.951 132C334.998 132 335.044 132 335.09 132C335.137 132 335.183 132 335.23 132C335.276 132 335.323 132 335.369 132C335.416 132 335.463 132 335.509 132C335.556 132 335.603 132 335.65 132C335.696 132 335.743 132 335.79 132C335.837 132 335.884 132 335.931 132C335.978 132 336.025 132 336.072 132C336.119 132 336.166 132 336.213 132C336.26 132 336.308 132 336.355 132C336.402 132 336.449 132 336.497 132C336.544 132 336.591 132 336.639 132C336.686 132 336.734 132 336.781 132C336.829 132 336.876 132 336.924 132C336.971 132 337.019 132 337.067 132C337.114 132 337.162 132 337.21 132C337.258 132 337.305 132 337.353 132C337.401 132 337.449 132 337.497 132C337.545 132 337.593 132 337.641 132C337.689 132 337.737 132 337.785 132C337.833 132 337.881 132 337.929 132C337.978 132 338.026 132 338.074 132C338.122 132 338.171 132 338.219 132C338.267 132 338.316 132 338.364 132C338.412 132 338.461 132 338.509 132C338.558 132 338.606 132 338.655 132C338.703 132 338.752 132 338.801 132C338.849 132 338.898 132 338.947 132C338.995 132 339.044 132 339.093 132C339.142 132 339.191 132 339.24 132C339.288 132 339.337 132 339.386 132C339.435 132 339.484 132 339.533 132C339.582 132 339.631 132 339.68 132C339.729 132 339.779 132 339.828 132C339.877 132 339.926 132 339.975 132C340.024 132 340.074 132 340.123 132C340.172 132 340.222 132 340.271 132C340.32 132 340.37 132 340.419 132C340.469 132 340.518 132 340.568 132C340.617 132 340.667 132 340.716 132C340.766 132 340.815 132 340.865 132C340.915 132 340.964 132 341.014 132C341.064 132 341.113 132 341.163 132C341.213 132 341.263 132 341.313 132C341.362 132 341.412 132 341.462 132C341.512 132 341.562 132 341.612 132C341.662 132 341.712 132 341.762 132C341.812 132 341.862 132 341.912 132C341.962 132 342.012 132 342.062 132C342.112 132 342.163 132 342.213 132C342.263 132 342.313 132 342.364 132C342.414 132 342.464 132 342.514 132C342.565 132 342.615 132 342.665 132C342.716 132 342.766 132 342.817 132C342.867 132 342.917 132 342.968 132C343.018 132 343.069 132 343.119 132C343.17 132 343.221 132 343.271 132C343.322 132 343.372 132 343.423 132C343.474 132 343.524 132 343.575 132C343.626 132 343.676 132 343.727 132C343.778 132 343.829 132 343.879 132C343.93 132 343.981 132 344.032 132C344.083 132 344.134 132 344.185 132C344.235 132 344.286 132 344.337 132C344.388 132 344.439 132 344.49 132C344.541 132 344.592 132 344.643 132C344.694 132 344.745 132 344.797 132C344.848 132 344.899 132 344.95 132C345.001 132 345.052 132 345.103 132C345.155 132 345.206 132 345.257 132C345.308 132 345.359 132 345.411 132C345.462 132 345.513 132 345.565 132C345.616 132 345.667 132 345.719 132C345.77 132 345.821 132 345.873 132C345.924 132 345.976 132 346.027 132C346.078 132 346.13 132 346.181 132C346.233 132 346.284 132 346.336 132C346.387 132 346.439 132 346.49 132C346.542 132 346.594 132 346.645 132C346.697 132 346.748 132 346.8 132C346.852 132 346.903 132 346.955 132C347.007 132 347.058 132 347.11 132C347.162 132 347.213 132 347.265 132C347.317 132 347.369 132 347.42 132C347.472 132 347.524 132 347.576 132C347.628 132 347.679 132 347.731 132C347.783 132 347.835 132 347.887 132C347.939 132 347.991 132 348.043 132C348.094 132 348.146 132 348.198 132C348.25 132 348.302 132 348.354 132C348.406 132 348.458 132 348.51 132C348.562 132 348.614 132 348.666 132C348.718 132 348.77 132 348.822 132C348.874 132 348.926 132 348.978 132C349.03 132 349.083 132 349.135 132C349.187 132 349.239 132 349.291 132C349.343 132 349.395 132 349.447 132C349.5 132 349.552 132 349.604 132C349.656 132 349.708 132 349.76 132C349.813 132 349.865 132 349.917 132C349.969 132 350.022 132 350.074 132C350.126 132 350.178 132 350.231 132C350.283 132 350.335 132 350.387 132C350.44 132 350.492 132 350.544 132C350.597 132 350.649 132 350.701 132C350.753 132 350.806 132 350.858 132C350.91 132 350.963 132 351.015 132C351.068 132 351.12 132 351.172 132C351.225 132 351.277 132 351.329 132C351.382 132 351.434 132 351.487 132C351.539 132 351.591 132 351.644 132C351.696 132 351.749 132 351.801 132C351.854 132 351.906 132 351.958 132C352.011 132 352.063 132 352.116 132C352.168 132 352.221 132 352.273 132C352.326 132 352.378 132 352.431 132C352.483 132 352.536 132 352.588 132C352.64 132 352.693 132 352.745 132C352.798 132 352.85 132 352.903 132C352.955 132 353.008 132 353.06 132C353.113 132 353.166 132 353.218 132C353.271 132 353.323 132 353.376 132C353.428 132 353.481 132 353.533 132C353.586 132 353.638 132 353.691 132C353.743 132 353.796 132 353.848 132C353.901 132 353.953 132 354.006 132C354.059 132 354.111 132 354.164 132C354.216 132 354.269 132 354.321 132C354.374 132 354.426 132 354.479 132C354.531 132 354.584 132 354.637 132C354.689 132 354.742 132 354.794 132C354.847 132 354.899 132 354.952 132C355.004 132 355.057 132 355.109 132C355.162 132 355.215 132 355.267 132C355.32 132 355.372 132 355.425 132C355.477 132 355.53 132 355.582 132C355.635 132 355.687 132 355.74 132C355.792 132 355.845 132 355.897 132C355.95 132 356.002 132 356.055 132C356.107 132 356.16 132 356.213 132C356.265 132 356.318 132 356.37 132C356.423 132 356.475 132 356.527 132C356.58 132 356.632 132 356.685 132C356.737 132 356.79 132 356.842 132C356.895 132 356.947 132 357 132C357.052 132 357.105 132 357.157 132C357.21 132 357.262 132 357.314 132C357.367 132 357.419 132 357.472 132C357.524 132 357.577 132 357.629 132C357.681 132 357.734 132 357.786 132C357.839 132 357.891 132 357.943 132C357.996 132 358.048 132 358.1 132C358.153 132 358.205 132 358.258 132C358.31 132 358.362 132 358.415 132C358.467 132 358.519 132 358.571 132C358.624 132 358.676 132 358.728 132C358.781 132 358.833 132 358.885 132C358.937 132 358.99 132 359.042 132C359.094 132 359.146 132 359.199 132C359.251 132 359.303 132 359.355 132C359.408 132 359.46 132 359.512 132C359.564 132 359.616 132 359.668 132C359.721 132 359.773 132 359.825 132C359.877 132 359.929 132 359.981 132C360.033 132 360.085 132 360.138 132C360.19 132 360.242 132 360.294 132C360.346 132 360.398 132 360.45 132C360.502 132 360.554 132 360.606 132C360.658 132 360.71 132 360.762 132C360.814 132 360.866 132 360.918 132C360.97 132 361.022 132 361.074 132C361.125 132 361.177 132 361.229 132C361.281 132 361.333 132 361.385 132C361.437 132 361.489 132 361.54 132C361.592 132 361.644 132 361.696 132C361.748 132 361.799 132 361.851 132C361.903 132 361.955 132 362.006 132C362.058 132 362.11 132 362.161 132C362.213 132 362.265 132 362.316 132C362.368 132 362.42 132 362.471 132C362.523 132 362.574 132 362.626 132C362.678 132 362.729 132 362.781 132C362.832 132 362.884 132 362.935 132C362.987 132 363.038 132 363.09 132C363.141 132 363.193 132 363.244 132C363.295 132 363.347 132 363.398 132C363.449 132 363.501 132 363.552 132C363.603 132 363.655 132 363.706 132C363.757 132 363.809 132 363.86 132C363.911 132 363.962 132 364.014 132C364.065 132 364.116 132 364.167 132C364.218 132 364.269 132 364.32 132C364.372 132 364.423 132 364.474 132C364.525 132 364.576 132 364.627 132C364.678 132 364.729 132 364.78 132C364.831 132 364.882 132 364.933 132C364.984 132 365.034 132 365.085 132C365.136 132 365.187 132 365.238 132C365.289 132 365.339 132 365.39 132C365.441 132 365.492 132 365.542 132C365.593 132 365.644 132 365.694 132C365.745 132 365.796 132 365.846 132C365.897 132 365.948 132 365.998 132C366.049 132 366.099 132 366.15 132C366.2 132 366.251 132 366.301 132C366.352 132 366.402 132 366.452 132C366.503 132 366.553 132 366.603 132C366.654 132 366.704 132 366.754 132C366.805 132 366.855 132 366.905 132C366.955 132 367.006 132 367.056 132C367.106 132 367.156 132 367.206 132C367.256 132 367.306 132 367.356 132C367.406 132 367.456 132 367.506 132C367.556 132 367.606 132 367.656 132C367.706 132 367.756 132 367.806 132C367.856 132 367.905 132 367.955 132C368.005 132 368.055 132 368.104 132C368.154 132 368.204 132 368.254 132C368.303 132 368.353 132 368.402 132C368.452 132 368.502 132 368.551 132C368.601 132 368.65 132 368.7 132C368.749 132 368.798 132 368.848 132C368.897 132 368.947 132 368.996 132C369.045 132 369.095 132 369.144 132C369.193 132 369.242 132 369.291 132C369.341 132 369.39 132 369.439 132C369.488 132 369.537 132 369.586 132C369.635 132 369.684 132 369.733 132C369.782 132 369.831 132 369.88 132C369.929 132 369.978 132 370.026 132C370.075 132 370.124 132 370.173 132C370.222 132 370.27 132 370.319 132C370.368 132 370.416 132 370.465 132C370.513 132 370.562 132 370.61 132C370.659 132 370.707 132 370.756 132C370.804 132 370.853 132 370.901 132C370.949 132 370.998 132 371.046 132C371.094 132 371.143 132 371.191 132C371.239 132 371.287 132 371.335 132C371.383 132 371.431 132 371.479 132C371.528 132 371.576 132 371.623 132C371.671 132 371.719 132 371.767 132C371.815 132 371.863 132 371.911 132C371.959 132 372.006 132 372.054 132C372.102 132 372.149 132 372.197 132C372.245 132 372.292 132 372.34 132C372.387 132 372.435 132 372.482 132C372.53 132 372.577 132 372.624 132C372.672 132 372.719 132 372.766 132C372.814 132 372.861 132 372.908 132C372.955 132 373.002 132 373.049 132C373.097 132 373.144 132 373.191 132C373.238 132 373.285 132 373.331 132C373.378 132 373.425 132 373.472 132C373.519 132 373.566 132 373.612 132C373.659 132 373.706 132 373.752 132C373.799 132 373.846 132 373.892 132C373.939 132 373.985 132 374.032 132C374.078 132 374.125 132 374.171 132C374.217 132 374.264 132 374.31 132C374.356 132 374.402 132 374.448 132C374.495 132 374.541 132 374.587 132C374.633 132 374.679 132 374.725 132C374.771 132 374.817 132 374.863 132C374.908 132 374.954 132 375 132L375 130Z" fill="#00AB8C"/>
<path d="M60.7071 94.7071C61.0976 94.3166 61.0976 93.6834 60.7071 93.2929L54.3431 86.9289C53.9526 86.5384 53.3195 86.5384 52.9289 86.9289C52.5384 87.3195 52.5384 87.9526 52.9289 88.3431L58.5858 94L52.9289 99.6569C52.5384 100.047 52.5384 100.681 52.9289 101.071C53.3195 101.462 53.9526 101.462 54.3431 101.071L60.7071 94.7071ZM0 95C0.0457649 95 0.0915794 95 0.137444 95C0.183308 95 0.229221 95 0.275185 95C0.321148 95 0.367161 95 0.413223 95C0.459286 95 0.505398 95 0.551556 95C0.597717 95 0.643925 95 0.690182 95C0.736439 95 0.782742 95 0.829094 95C0.875446 95 0.921848 95 0.968296 95C1.01474 95 1.06124 95 1.10778 95C1.15432 95 1.20091 95 1.24755 95C1.29419 95 1.34087 95 1.3876 95C1.43433 95 1.48111 95 1.52793 95C1.57475 95 1.62162 95 1.66853 95C1.71545 95 1.76241 95 1.80941 95C1.85642 95 1.90347 95 1.95056 95C1.99766 95 2.0448 95 2.09198 95C2.13917 95 2.1864 95 2.23367 95C2.28094 95 2.32826 95 2.37562 95C2.42299 95 2.47039 95 2.51784 95C2.56528 95 2.61278 95 2.66031 95C2.70785 95 2.75543 95 2.80305 95C2.85067 95 2.89833 95 2.94604 95C2.99374 95 3.04149 95 3.08928 95C3.13707 95 3.18491 95 3.23278 95C3.28065 95 3.32857 95 3.37653 95C3.42448 95 3.47248 95 3.52052 95C3.56856 95 3.61664 95 3.66476 95C3.71288 95 3.76104 95 3.80924 95C3.85744 95 3.90568 95 3.95396 95C4.00224 95 4.05056 95 4.09892 95C4.14728 95 4.19568 95 4.24412 95C4.29256 95 4.34103 95 4.38955 95C4.43806 95 4.48662 95 4.53521 95C4.58381 95 4.63244 95 4.68111 95C4.72977 95 4.77848 95 4.82722 95C4.87597 95 4.92475 95 4.97357 95C5.02239 95 5.07124 95 5.12014 95C5.16903 95 5.21796 95 5.26693 95C5.31589 95 5.36489 95 5.41393 95C5.46297 95 5.51205 95 5.56116 95C5.61027 95 5.65941 95 5.7086 95C5.75777 95 5.80699 95 5.85624 95C5.90549 95 5.95478 95 6.0041 95C6.05342 95 6.10278 95 6.15217 95C6.20156 95 6.25098 95 6.30044 95C6.3499 95 6.39939 95 6.44891 95C6.49844 95 6.548 95 6.59759 95C6.64718 95 6.6968 95 6.74646 95C6.79612 95 6.84581 95 6.89553 95C6.94525 95 6.99501 95 7.04479 95C7.09458 95 7.1444 95 7.19425 95C7.2441 95 7.29398 95 7.34389 95C7.39381 95 7.44375 95 7.49372 95C7.5437 95 7.5937 95 7.64374 95C7.69378 95 7.74385 95 7.79394 95C7.84404 95 7.89417 95 7.94432 95C7.99448 95 8.04467 95 8.09488 95C8.1451 95 8.19534 95 8.24562 95C8.29589 95 8.3462 95 8.39653 95C8.44686 95 8.49722 95 8.54761 95C8.598 95 8.64841 95 8.69886 95C8.74931 95 8.79978 95 8.85028 95C8.90078 95 8.95131 95 9.00186 95C9.05242 95 9.103 95 9.15361 95C9.20422 95 9.25485 95 9.30552 95C9.35618 95 9.40687 95 9.45758 95C9.5083 95 9.55904 95 9.6098 95C9.66057 95 9.71136 95 9.76218 95C9.813 95 9.86384 95 9.91471 95C9.96558 95 10.0165 95 10.0674 95C10.1183 95 10.1692 95 10.2202 95C10.2712 95 10.3222 95 10.3732 95C10.4242 95 10.4752 95 10.5263 95C10.5774 95 10.6284 95 10.6795 95C10.7307 95 10.7818 95 10.8329 95C10.8841 95 10.9353 95 10.9865 95C11.0377 95 11.0889 95 11.1401 95C11.1914 95 11.2426 95 11.2939 95C11.3452 95 11.3965 95 11.4478 95C11.4992 95 11.5505 95 11.6019 95C11.6533 95 11.7047 95 11.7561 95C11.8075 95 11.8589 95 11.9104 95C11.9618 95 12.0133 95 12.0648 95C12.1163 95 12.1678 95 12.2193 95C12.2709 95 12.3224 95 12.374 95C12.4256 95 12.4771 95 12.5288 95C12.5804 95 12.632 95 12.6836 95C12.7353 95 12.7869 95 12.8386 95C12.8903 95 12.942 95 12.9937 95C13.0454 95 13.0972 95 13.1489 95C13.2007 95 13.2524 95 13.3042 95C13.356 95 13.4078 95 13.4596 95C13.5115 95 13.5633 95 13.6151 95C13.667 95 13.7189 95 13.7707 95C13.8226 95 13.8745 95 13.9264 95C13.9783 95 14.0303 95 14.0822 95C14.1342 95 14.1861 95 14.2381 95C14.2901 95 14.3421 95 14.3941 95C14.4461 95 14.4981 95 14.5501 95C14.6021 95 14.6542 95 14.7062 95C14.7583 95 14.8104 95 14.8625 95C14.9145 95 14.9666 95 15.0187 95C15.0709 95 15.123 95 15.1751 95C15.2272 95 15.2794 95 15.3316 95C15.3837 95 15.4359 95 15.4881 95C15.5402 95 15.5924 95 15.6446 95C15.6969 95 15.7491 95 15.8013 95C15.8535 95 15.9058 95 15.958 95C16.0103 95 16.0625 95 16.1148 95C16.1671 95 16.2193 95 16.2716 95C16.3239 95 16.3762 95 16.4285 95C16.4808 95 16.5332 95 16.5855 95C16.6378 95 16.6901 95 16.7425 95C16.7948 95 16.8472 95 16.8995 95C16.9519 95 17.0043 95 17.0567 95C17.109 95 17.1614 95 17.2138 95C17.2662 95 17.3186 95 17.371 95C17.4234 95 17.4758 95 17.5283 95C17.5807 95 17.6331 95 17.6855 95C17.738 95 17.7904 95 17.8429 95C17.8953 95 17.9478 95 18.0002 95C18.0527 95 18.1052 95 18.1576 95C18.2101 95 18.2626 95 18.315 95C18.3675 95 18.42 95 18.4725 95C18.525 95 18.5775 95 18.63 95C18.6825 95 18.735 95 18.7875 95C18.84 95 18.8925 95 18.945 95C18.9975 95 19.0501 95 19.1026 95C19.1551 95 19.2076 95 19.2601 95C19.3127 95 19.3652 95 19.4177 95C19.4703 95 19.5228 95 19.5753 95C19.6279 95 19.6804 95 19.7329 95C19.7855 95 19.838 95 19.8906 95C19.9431 95 19.9957 95 20.0482 95C20.1007 95 20.1533 95 20.2058 95C20.2584 95 20.3109 95 20.3635 95C20.416 95 20.4686 95 20.5211 95C20.5737 95 20.6262 95 20.6787 95C20.7313 95 20.7838 95 20.8364 95C20.8889 95 20.9415 95 20.994 95C21.0465 95 21.0991 95 21.1516 95C21.2042 95 21.2567 95 21.3092 95C21.3618 95 21.4143 95 21.4668 95C21.5194 95 21.5719 95 21.6244 95C21.6769 95 21.7295 95 21.782 95C21.8345 95 21.887 95 21.9395 95C21.992 95 22.0445 95 22.097 95C22.1495 95 22.202 95 22.2545 95C22.307 95 22.3595 95 22.412 95C22.4645 95 22.517 95 22.5695 95C22.6219 95 22.6744 95 22.7269 95C22.7793 95 22.8318 95 22.8842 95C22.9367 95 22.9892 95 23.0416 95C23.094 95 23.1465 95 23.1989 95C23.2513 95 23.3038 95 23.3562 95C23.4086 95 23.461 95 23.5134 95C23.5658 95 23.6182 95 23.6706 95C23.723 95 23.7754 95 23.8277 95C23.8801 95 23.9325 95 23.9848 95C24.0372 95 24.0895 95 24.1419 95C24.1942 95 24.2465 95 24.2989 95C24.3512 95 24.4035 95 24.4558 95C24.5081 95 24.5604 95 24.6127 95C24.6649 95 24.7172 95 24.7695 95C24.8217 95 24.874 95 24.9262 95C24.9785 95 25.0307 95 25.0829 95C25.1351 95 25.1874 95 25.2396 95C25.2918 95 25.3439 95 25.3961 95C25.4483 95 25.5004 95 25.5526 95C25.6047 95 25.6569 95 25.709 95C25.7611 95 25.8133 95 25.8654 95C25.9175 95 25.9695 95 26.0216 95C26.0737 95 26.1258 95 26.1778 95C26.2298 95 26.2819 95 26.3339 95C26.3859 95 26.4379 95 26.4899 95C26.5419 95 26.5939 95 26.6459 95C26.6978 95 26.7498 95 26.8017 95C26.8536 95 26.9055 95 26.9575 95C27.0094 95 27.0612 95 27.1131 95C27.165 95 27.2168 95 27.2687 95C27.3205 95 27.3723 95 27.4241 95C27.476 95 27.5277 95 27.5795 95C27.6313 95 27.683 95 27.7348 95C27.7865 95 27.8382 95 27.89 95C27.9417 95 27.9933 95 28.045 95C28.0967 95 28.1483 95 28.2 95C28.2516 95 28.3032 95 28.3548 95C28.4064 95 28.458 95 28.5095 95C28.5611 95 28.6126 95 28.6641 95C28.7157 95 28.7672 95 28.8186 95C28.8701 95 28.9216 95 28.973 95C29.0245 95 29.0759 95 29.1273 95C29.1787 95 29.23 95 29.2814 95C29.3328 95 29.3841 95 29.4354 95C29.4867 95 29.538 95 29.5893 95C29.6406 95 29.6918 95 29.743 95C29.7943 95 29.8455 95 29.8966 95C29.9478 95 29.999 95 30.0501 95C30.1013 95 30.1524 95 30.2035 95C30.2546 95 30.3056 95 30.3567 95C30.4077 95 30.4587 95 30.5097 95C30.5607 95 30.6117 95 30.6627 95C30.7136 95 30.7645 95 30.8154 95C30.8663 95 30.9172 95 30.968 95C31.0189 95 31.0697 95 31.1205 95C31.1713 95 31.2221 95 31.2728 95C31.3236 95 31.3743 95 31.425 95C31.4757 95 31.5264 95 31.577 95C31.6277 95 31.6783 95 31.7289 95C31.7795 95 31.83 95 31.8806 95C31.9311 95 31.9816 95 32.0321 95C32.0826 95 32.133 95 32.1834 95C32.2339 95 32.2843 95 32.3346 95C32.385 95 32.4353 95 32.4856 95C32.536 95 32.5862 95 32.6365 95C32.6867 95 32.737 95 32.7872 95C32.8374 95 32.8875 95 32.9377 95C32.9878 95 33.0379 95 33.088 95C33.1381 95 33.1881 95 33.2381 95C33.2881 95 33.3381 95 33.3881 95C33.438 95 33.4879 95 33.5378 95C33.5877 95 33.6376 95 33.6874 95C33.7372 95 33.787 95 33.8368 95C33.8866 95 33.9363 95 33.986 95C34.0357 95 34.0854 95 34.135 95C34.1846 95 34.2342 95 34.2838 95C34.3334 95 34.3829 95 34.4324 95C34.4819 95 34.5314 95 34.5808 95C34.6302 95 34.6796 95 34.729 95C34.7784 95 34.8277 95 34.877 95C34.9263 95 34.9755 95 35.0248 95C35.074 95 35.1232 95 35.1723 95C35.2215 95 35.2706 95 35.3197 95C35.3688 95 35.4178 95 35.4668 95C35.5159 95 35.5648 95 35.6138 95C35.6627 95 35.7116 95 35.7605 95C35.8094 95 35.8582 95 35.907 95C35.9558 95 36.0045 95 36.0532 95C36.102 95 36.1506 95 36.1993 95C36.2479 95 36.2965 95 36.3451 95C36.3937 95 36.4422 95 36.4907 95C36.5392 95 36.5876 95 36.636 95C36.6844 95 36.7328 95 36.7811 95C36.8295 95 36.8777 95 36.926 95C36.9743 95 37.0225 95 37.0706 95C37.1188 95 37.1669 95 37.215 95C37.2631 95 37.3112 95 37.3592 95C37.4072 95 37.4552 95 37.5031 95C37.551 95 37.5989 95 37.6467 95C37.6946 95 37.7424 95 37.7901 95C37.8379 95 37.8856 95 37.9333 95C37.981 95 38.0286 95 38.0762 95C38.1238 95 38.1713 95 38.2188 95C38.2663 95 38.3138 95 38.3612 95C38.4086 95 38.456 95 38.5033 95C38.5507 95 38.598 95 38.6452 95C38.6924 95 38.7396 95 38.7868 95C38.834 95 38.8811 95 38.9281 95C38.9752 95 39.0222 95 39.0692 95C39.1161 95 39.1631 95 39.21 95C39.2568 95 39.3037 95 39.3505 95C39.3972 95 39.444 95 39.4907 95C39.5374 95 39.584 95 39.6306 95C39.6772 95 39.7238 95 39.7703 95C39.8168 95 39.8633 95 39.9097 95C39.9561 95 40.0025 95 40.0488 95C40.0951 95 40.1414 95 40.1876 95C40.2338 95 40.28 95 40.3261 95C40.3722 95 40.4183 95 40.4643 95C40.5104 95 40.5563 95 40.6023 95C40.6482 95 40.6941 95 40.7399 95C40.7857 95 40.8315 95 40.8772 95C40.923 95 40.9687 95 41.0143 95C41.0599 95 41.1055 95 41.151 95C41.1965 95 41.242 95 41.2874 95C41.3329 95 41.3782 95 41.4236 95C41.4689 95 41.5141 95 41.5594 95C41.6046 95 41.6497 95 41.6949 95C41.74 95 41.785 95 41.83 95C41.875 95 41.92 95 41.9649 95C42.0098 95 42.0546 95 42.0994 95C42.1442 95 42.189 95 42.2337 95C42.2783 95 42.323 95 42.3676 95C42.4121 95 42.4567 95 42.5011 95C42.5456 95 42.59 95 42.6344 95C42.6787 95 42.723 95 42.7673 95C42.8115 95 42.8557 95 42.8999 95C42.944 95 42.9881 95 43.0321 95C43.0761 95 43.1201 95 43.164 95C43.2079 95 43.2518 95 43.2956 95C43.3394 95 43.3831 95 43.4268 95C43.4705 95 43.5141 95 43.5577 95C43.6013 95 43.6448 95 43.6882 95C43.7317 95 43.7751 95 43.8184 95C43.8618 95 43.905 95 43.9483 95C43.9915 95 44.0347 95 44.0778 95C44.1209 95 44.1639 95 44.2069 95C44.2499 95 44.2928 95 44.3357 95C44.3785 95 44.4213 95 44.4641 95C44.5068 95 44.5495 95 44.5921 95C44.6348 95 44.6773 95 44.7198 95C44.7623 95 44.8048 95 44.8471 95C44.8895 95 44.9318 95 44.9741 95C45.0164 95 45.0586 95 45.1007 95C45.1428 95 45.1849 95 45.2269 95C45.2689 95 45.3109 95 45.3527 95C45.3946 95 45.4364 95 45.4782 95C45.52 95 45.5617 95 45.6033 95C45.6449 95 45.6865 95 45.728 95C45.7695 95 45.8109 95 45.8523 95C45.8937 95 45.935 95 45.9762 95C46.0175 95 46.0587 95 46.0998 95C46.1409 95 46.182 95 46.2229 95C46.2639 95 46.3048 95 46.3457 95C46.3866 95 46.4273 95 46.4681 95C46.5088 95 46.5494 95 46.59 95C46.6306 95 46.6711 95 46.7116 95C46.7521 95 46.7924 95 46.8328 95C46.8731 95 46.9133 95 46.9535 95C46.9937 95 47.0338 95 47.0739 95C47.1139 95 47.1539 95 47.1938 95C47.2338 95 47.2736 95 47.3134 95C47.3532 95 47.3929 95 47.4325 95C47.4721 95 47.5117 95 47.5512 95C47.5907 95 47.6302 95 47.6695 95C47.7089 95 47.7482 95 47.7874 95C47.8266 95 47.8658 95 47.9048 95C47.9439 95 47.9829 95 48.0219 95C48.0608 95 48.0997 95 48.1385 95C48.1773 95 48.216 95 48.2547 95C48.2933 95 48.3319 95 48.3704 95C48.4089 95 48.4474 95 48.4857 95C48.5241 95 48.5624 95 48.6006 95C48.6388 95 48.677 95 48.715 95C48.7531 95 48.7911 95 48.829 95C48.867 95 48.9048 95 48.9426 95C48.9804 95 49.0181 95 49.0557 95C49.0934 95 49.1309 95 49.1684 95C49.2059 95 49.2433 95 49.2806 95C49.318 95 49.3552 95 49.3924 95C49.4296 95 49.4667 95 49.5037 95C49.5407 95 49.5777 95 49.6146 95C49.6515 95 49.6883 95 49.725 95C49.7617 95 49.7984 95 49.8349 95C49.8715 95 49.908 95 49.9444 95C49.9808 95 50.0172 95 50.0535 95C50.0897 95 50.1259 95 50.162 95C50.1981 95 50.2341 95 50.2701 95C50.3061 95 50.3419 95 50.3777 95C50.4135 95 50.4492 95 50.4849 95C50.5205 95 50.5561 95 50.5915 95C50.627 95 50.6624 95 50.6977 95C50.7331 95 50.7683 95 50.8035 95C50.8386 95 50.8737 95 50.9087 95C50.9437 95 50.9786 95 51.0134 95C51.0483 95 51.083 95 51.1177 95C51.1524 95 51.187 95 51.2215 95C51.256 95 51.2904 95 51.3248 95C51.3591 95 51.3934 95 51.4276 95C51.4617 95 51.4958 95 51.5299 95C51.5639 95 51.5978 95 51.6317 95C51.6655 95 51.6993 95 51.733 95C51.7667 95 51.8003 95 51.8338 95C51.8673 95 51.9007 95 51.9341 95C51.9674 95 52.0007 95 52.0339 95C52.067 95 52.1001 95 52.1331 95C52.1662 95 52.1991 95 52.2319 95C52.2648 95 52.2975 95 52.3302 95C52.3629 95 52.3954 95 52.4279 95C52.4604 95 52.4928 95 52.5252 95C52.5575 95 52.5897 95 52.6219 95C52.654 95 52.6861 95 52.7181 95C52.75 95 52.7819 95 52.8137 95C52.8455 95 52.8772 95 52.9089 95C52.9405 95 52.972 95 53.0035 95C53.0349 95 53.0663 95 53.0976 95C53.1288 95 53.16 95 53.1911 95C53.2222 95 53.2532 95 53.2841 95C53.315 95 53.3459 95 53.3766 95C53.4073 95 53.438 95 53.4685 95C53.4991 95 53.5296 95 53.5599 95C53.5903 95 53.6206 95 53.6508 95C53.681 95 53.7111 95 53.7411 95C53.7711 95 53.801 95 53.8308 95C53.8607 95 53.8904 95 53.92 95C53.9497 95 53.9792 95 54.0087 95C54.0382 95 54.0675 95 54.0968 95C54.1261 95 54.1553 95 54.1843 95C54.2134 95 54.2424 95 54.2713 95C54.3002 95 54.329 95 54.3578 95C54.3865 95 54.4151 95 54.4436 95C54.4721 95 54.5006 95 54.5289 95C54.5572 95 54.5855 95 54.6136 95C54.6418 95 54.6698 95 54.6978 95C54.7257 95 54.7536 95 54.7814 95C54.8091 95 54.8368 95 54.8644 95C54.8919 95 54.9194 95 54.9468 95C54.9742 95 55.0015 95 55.0287 95C55.0558 95 55.0829 95 55.1099 95C55.1369 95 55.1638 95 55.1906 95C55.2174 95 55.2441 95 55.2707 95C55.2973 95 55.3238 95 55.3502 95C55.3766 95 55.4029 95 55.4291 95C55.4554 95 55.4815 95 55.5075 95C55.5335 95 55.5594 95 55.5852 95C55.611 95 55.6367 95 55.6623 95C55.688 95 55.7135 95 55.7389 95C55.7643 95 55.7896 95 55.8148 95C55.84 95 55.8651 95 55.8901 95C55.9152 95 55.9401 95 55.9649 95C55.9897 95 56.0144 95 56.039 95C56.0636 95 56.0881 95 56.1125 95C56.1369 95 56.1612 95 56.1854 95C56.2096 95 56.2337 95 56.2577 95C56.2817 95 56.3056 95 56.3293 95C56.3531 95 56.3768 95 56.4004 95C56.424 95 56.4474 95 56.4708 95C56.4942 95 56.5174 95 56.5406 95C56.5638 95 56.5868 95 56.6098 95C56.6327 95 56.6556 95 56.6783 95C56.7011 95 56.7237 95 56.7462 95C56.7688 95 56.7912 95 56.8135 95C56.8358 95 56.8581 95 56.8802 95C56.9023 95 56.9243 95 56.9462 95C56.9681 95 56.9899 95 57.0116 95C57.0332 95 57.0548 95 57.0763 95C57.0978 95 57.1191 95 57.1404 95C57.1616 95 57.1828 95 57.2038 95C57.2249 95 57.2458 95 57.2666 95C57.2874 95 57.3081 95 57.3287 95C57.3494 95 57.3699 95 57.3902 95C57.4106 95 57.4309 95 57.4511 95C57.4712 95 57.4913 95 57.5113 95C57.5312 95 57.551 95 57.5708 95C57.5905 95 57.6101 95 57.6296 95C57.6491 95 57.6685 95 57.6878 95C57.7071 95 57.7263 95 57.7453 95C57.7644 95 57.7834 95 57.8022 95C57.821 95 57.8398 95 57.8584 95C57.877 95 57.8955 95 57.9139 95C57.9323 95 57.9506 95 57.9688 95C57.9869 95 58.005 95 58.0229 95C58.0409 95 58.0587 95 58.0764 95C58.0941 95 58.1117 95 58.1292 95C58.1467 95 58.1641 95 58.1813 95C58.1986 95 58.2157 95 58.2328 95C58.2498 95 58.2667 95 58.2835 95C58.3003 95 58.317 95 58.3336 95C58.3501 95 58.3666 95 58.3829 95C58.3993 95 58.4155 95 58.4316 95C58.4477 95 58.4637 95 58.4796 95C58.4954 95 58.5112 95 58.5268 95C58.5425 95 58.558 95 58.5734 95C58.5888 95 58.6041 95 58.6193 95C58.6345 95 58.6495 95 58.6644 95C58.6794 95 58.6942 95 58.7089 95C58.7236 95 58.7382 95 58.7526 95C58.7671 95 58.7814 95 58.7957 95C58.8099 95 58.824 95 58.838 95C58.852 95 58.8658 95 58.8796 95C58.8933 95 58.907 95 58.9205 95C58.934 95 58.9474 95 58.9606 95C58.9739 95 58.987 95 59.0001 95C59.0131 95 59.026 95 59.0388 95C59.0515 95 59.0642 95 59.0767 95C59.0893 95 59.1017 95 59.114 95C59.1263 95 59.1385 95 59.1505 95C59.1626 95 59.1745 95 59.1863 95C59.1981 95 59.2098 95 59.2213 95C59.2329 95 59.2443 95 59.2556 95C59.267 95 59.2781 95 59.2892 95C59.3003 95 59.3112 95 59.322 95C59.3329 95 59.3435 95 59.3541 95C59.3647 95 59.3751 95 59.3854 95C59.3958 95 59.4059 95 59.416 95C59.4261 95 59.436 95 59.4458 95C59.4557 95 59.4653 95 59.4749 95C59.4845 95 59.4939 95 59.5032 95C59.5125 95 59.5217 95 59.5308 95C59.5398 95 59.5488 95 59.5576 95C59.5664 95 59.575 95 59.5836 95C59.5921 95 59.6006 95 59.6089 95C59.6172 95 59.6253 95 59.6334 95C59.6414 95 59.6493 95 59.6571 95C59.6649 95 59.6725 95 59.68 95C59.6876 95 59.6949 95 59.7022 95C59.7095 95 59.7166 95 59.7236 95C59.7306 95 59.7375 95 59.7442 95C59.751 95 59.7576 95 59.7641 95C59.7705 95 59.7769 95 59.7831 95C59.7893 95 59.7954 95 59.8014 95C59.8074 95 59.8132 95 59.8189 95C59.8246 95 59.8301 95 59.8356 95C59.841 95 59.8463 95 59.8515 95C59.8566 95 59.8617 95 59.8666 95C59.8715 95 59.8762 95 59.8809 95C59.8855 95 59.89 95 59.8944 95C59.8988 95 59.903 95 59.9071 95C59.9112 95 59.9152 95 59.919 95C59.9228 95 59.9265 95 59.9301 95C59.9337 95 59.9371 95 59.9404 95C59.9437 95 59.9468 95 59.9499 95C59.9529 95 59.9558 95 59.9585 95C59.9613 95 59.9639 95 59.9664 95C59.9689 95 59.9712 95 59.9734 95C59.9756 95 59.9777 95 59.9796 95C59.9816 95 59.9834 95 59.985 95C59.9867 95 59.9882 95 59.9896 95C59.991 95 59.9922 95 59.9933 95C59.9944 95 59.9954 95 59.9962 95C59.9971 95 59.9978 95 59.9983 95C59.9989 95 59.9993 95 59.9996 95C59.9999 95 60 95 60 94C60 93 59.9999 93 59.9996 93C59.9993 93 59.9989 93 59.9983 93C59.9978 93 59.9971 93 59.9962 93C59.9954 93 59.9944 93 59.9933 93C59.9922 93 59.991 93 59.9896 93C59.9882 93 59.9867 93 59.985 93C59.9834 93 59.9816 93 59.9796 93C59.9777 93 59.9756 93 59.9734 93C59.9712 93 59.9689 93 59.9664 93C59.9639 93 59.9613 93 59.9585 93C59.9558 93 59.9529 93 59.9499 93C59.9468 93 59.9437 93 59.9404 93C59.9371 93 59.9337 93 59.9301 93C59.9265 93 59.9228 93 59.919 93C59.9152 93 59.9112 93 59.9071 93C59.903 93 59.8988 93 59.8944 93C59.89 93 59.8855 93 59.8809 93C59.8762 93 59.8715 93 59.8666 93C59.8617 93 59.8566 93 59.8515 93C59.8463 93 59.841 93 59.8356 93C59.8301 93 59.8246 93 59.8189 93C59.8132 93 59.8074 93 59.8014 93C59.7954 93 59.7893 93 59.7831 93C59.7769 93 59.7705 93 59.7641 93C59.7576 93 59.751 93 59.7442 93C59.7375 93 59.7306 93 59.7236 93C59.7166 93 59.7095 93 59.7022 93C59.6949 93 59.6876 93 59.68 93C59.6725 93 59.6649 93 59.6571 93C59.6493 93 59.6414 93 59.6334 93C59.6253 93 59.6172 93 59.6089 93C59.6006 93 59.5921 93 59.5836 93C59.575 93 59.5664 93 59.5576 93C59.5488 93 59.5398 93 59.5308 93C59.5217 93 59.5125 93 59.5032 93C59.4939 93 59.4845 93 59.4749 93C59.4653 93 59.4557 93 59.4458 93C59.436 93 59.4261 93 59.416 93C59.4059 93 59.3958 93 59.3854 93C59.3751 93 59.3647 93 59.3541 93C59.3435 93 59.3329 93 59.322 93C59.3112 93 59.3003 93 59.2892 93C59.2781 93 59.267 93 59.2556 93C59.2443 93 59.2329 93 59.2213 93C59.2098 93 59.1981 93 59.1863 93C59.1745 93 59.1626 93 59.1505 93C59.1385 93 59.1263 93 59.114 93C59.1017 93 59.0893 93 59.0767 93C59.0642 93 59.0515 93 59.0388 93C59.026 93 59.0131 93 59.0001 93C58.987 93 58.9739 93 58.9606 93C58.9474 93 58.934 93 58.9205 93C58.907 93 58.8933 93 58.8796 93C58.8658 93 58.852 93 58.838 93C58.824 93 58.8099 93 58.7957 93C58.7814 93 58.7671 93 58.7526 93C58.7382 93 58.7236 93 58.7089 93C58.6942 93 58.6794 93 58.6644 93C58.6495 93 58.6345 93 58.6193 93C58.6041 93 58.5888 93 58.5734 93C58.558 93 58.5425 93 58.5268 93C58.5112 93 58.4954 93 58.4796 93C58.4637 93 58.4477 93 58.4316 93C58.4155 93 58.3993 93 58.3829 93C58.3666 93 58.3501 93 58.3336 93C58.317 93 58.3003 93 58.2835 93C58.2667 93 58.2498 93 58.2328 93C58.2157 93 58.1986 93 58.1813 93C58.1641 93 58.1467 93 58.1292 93C58.1117 93 58.0941 93 58.0764 93C58.0587 93 58.0409 93 58.0229 93C58.005 93 57.9869 93 57.9688 93C57.9506 93 57.9323 93 57.9139 93C57.8955 93 57.877 93 57.8584 93C57.8398 93 57.821 93 57.8022 93C57.7834 93 57.7644 93 57.7453 93C57.7263 93 57.7071 93 57.6878 93C57.6685 93 57.6491 93 57.6296 93C57.6101 93 57.5905 93 57.5708 93C57.551 93 57.5312 93 57.5113 93C57.4913 93 57.4712 93 57.4511 93C57.4309 93 57.4106 93 57.3902 93C57.3699 93 57.3494 93 57.3287 93C57.3081 93 57.2874 93 57.2666 93C57.2458 93 57.2249 93 57.2038 93C57.1828 93 57.1616 93 57.1404 93C57.1191 93 57.0978 93 57.0763 93C57.0548 93 57.0332 93 57.0116 93C56.9899 93 56.9681 93 56.9462 93C56.9243 93 56.9023 93 56.8802 93C56.8581 93 56.8358 93 56.8135 93C56.7912 93 56.7688 93 56.7462 93C56.7237 93 56.7011 93 56.6783 93C56.6556 93 56.6327 93 56.6098 93C56.5868 93 56.5638 93 56.5406 93C56.5174 93 56.4942 93 56.4708 93C56.4474 93 56.424 93 56.4004 93C56.3768 93 56.3531 93 56.3293 93C56.3056 93 56.2817 93 56.2577 93C56.2337 93 56.2096 93 56.1854 93C56.1612 93 56.1369 93 56.1125 93C56.0881 93 56.0636 93 56.039 93C56.0144 93 55.9897 93 55.9649 93C55.9401 93 55.9152 93 55.8901 93C55.8651 93 55.84 93 55.8148 93C55.7896 93 55.7643 93 55.7389 93C55.7135 93 55.688 93 55.6623 93C55.6367 93 55.611 93 55.5852 93C55.5594 93 55.5335 93 55.5075 93C55.4815 93 55.4554 93 55.4291 93C55.4029 93 55.3766 93 55.3502 93C55.3238 93 55.2973 93 55.2707 93C55.2441 93 55.2174 93 55.1906 93C55.1638 93 55.1369 93 55.1099 93C55.0829 93 55.0558 93 55.0287 93C55.0015 93 54.9742 93 54.9468 93C54.9194 93 54.8919 93 54.8644 93C54.8368 93 54.8091 93 54.7814 93C54.7536 93 54.7257 93 54.6978 93C54.6698 93 54.6418 93 54.6136 93C54.5855 93 54.5572 93 54.5289 93C54.5006 93 54.4721 93 54.4436 93C54.4151 93 54.3865 93 54.3578 93C54.329 93 54.3002 93 54.2713 93C54.2424 93 54.2134 93 54.1843 93C54.1553 93 54.1261 93 54.0968 93C54.0675 93 54.0382 93 54.0087 93C53.9792 93 53.9497 93 53.92 93C53.8904 93 53.8607 93 53.8308 93C53.801 93 53.7711 93 53.7411 93C53.7111 93 53.681 93 53.6508 93C53.6206 93 53.5903 93 53.5599 93C53.5296 93 53.4991 93 53.4685 93C53.438 93 53.4073 93 53.3766 93C53.3459 93 53.315 93 53.2841 93C53.2532 93 53.2222 93 53.1911 93C53.16 93 53.1288 93 53.0976 93C53.0663 93 53.0349 93 53.0035 93C52.972 93 52.9405 93 52.9089 93C52.8772 93 52.8455 93 52.8137 93C52.7819 93 52.75 93 52.7181 93C52.6861 93 52.654 93 52.6219 93C52.5897 93 52.5575 93 52.5252 93C52.4928 93 52.4604 93 52.4279 93C52.3954 93 52.3629 93 52.3302 93C52.2975 93 52.2648 93 52.2319 93C52.1991 93 52.1662 93 52.1331 93C52.1001 93 52.067 93 52.0339 93C52.0007 93 51.9674 93 51.9341 93C51.9007 93 51.8673 93 51.8338 93C51.8003 93 51.7667 93 51.733 93C51.6993 93 51.6655 93 51.6317 93C51.5978 93 51.5639 93 51.5299 93C51.4958 93 51.4617 93 51.4276 93C51.3934 93 51.3591 93 51.3248 93C51.2904 93 51.256 93 51.2215 93C51.187 93 51.1524 93 51.1177 93C51.083 93 51.0483 93 51.0134 93C50.9786 93 50.9437 93 50.9087 93C50.8737 93 50.8386 93 50.8035 93C50.7683 93 50.7331 93 50.6977 93C50.6624 93 50.627 93 50.5915 93C50.5561 93 50.5205 93 50.4849 93C50.4492 93 50.4135 93 50.3777 93C50.3419 93 50.3061 93 50.2701 93C50.2341 93 50.1981 93 50.162 93C50.1259 93 50.0897 93 50.0535 93C50.0172 93 49.9808 93 49.9444 93C49.908 93 49.8715 93 49.8349 93C49.7984 93 49.7617 93 49.725 93C49.6883 93 49.6515 93 49.6146 93C49.5777 93 49.5407 93 49.5037 93C49.4667 93 49.4296 93 49.3924 93C49.3552 93 49.318 93 49.2806 93C49.2433 93 49.2059 93 49.1684 93C49.1309 93 49.0934 93 49.0557 93C49.0181 93 48.9804 93 48.9426 93C48.9048 93 48.867 93 48.829 93C48.7911 93 48.7531 93 48.715 93C48.677 93 48.6388 93 48.6006 93C48.5624 93 48.5241 93 48.4857 93C48.4474 93 48.4089 93 48.3704 93C48.3319 93 48.2933 93 48.2547 93C48.216 93 48.1773 93 48.1385 93C48.0997 93 48.0608 93 48.0219 93C47.9829 93 47.9439 93 47.9048 93C47.8658 93 47.8266 93 47.7874 93C47.7482 93 47.7089 93 47.6695 93C47.6302 93 47.5907 93 47.5512 93C47.5117 93 47.4721 93 47.4325 93C47.3929 93 47.3532 93 47.3134 93C47.2736 93 47.2338 93 47.1938 93C47.1539 93 47.1139 93 47.0739 93C47.0338 93 46.9937 93 46.9535 93C46.9133 93 46.8731 93 46.8328 93C46.7924 93 46.7521 93 46.7116 93C46.6711 93 46.6306 93 46.59 93C46.5494 93 46.5088 93 46.4681 93C46.4273 93 46.3866 93 46.3457 93C46.3048 93 46.2639 93 46.2229 93C46.182 93 46.1409 93 46.0998 93C46.0587 93 46.0175 93 45.9762 93C45.935 93 45.8937 93 45.8523 93C45.8109 93 45.7695 93 45.728 93C45.6865 93 45.6449 93 45.6033 93C45.5617 93 45.52 93 45.4782 93C45.4364 93 45.3946 93 45.3527 93C45.3109 93 45.2689 93 45.2269 93C45.1849 93 45.1428 93 45.1007 93C45.0586 93 45.0164 93 44.9741 93C44.9318 93 44.8895 93 44.8471 93C44.8048 93 44.7623 93 44.7198 93C44.6773 93 44.6348 93 44.5921 93C44.5495 93 44.5068 93 44.4641 93C44.4213 93 44.3785 93 44.3357 93C44.2928 93 44.2499 93 44.2069 93C44.1639 93 44.1209 93 44.0778 93C44.0347 93 43.9915 93 43.9483 93C43.905 93 43.8618 93 43.8184 93C43.7751 93 43.7317 93 43.6882 93C43.6448 93 43.6013 93 43.5577 93C43.5141 93 43.4705 93 43.4268 93C43.3831 93 43.3394 93 43.2956 93C43.2518 93 43.2079 93 43.164 93C43.1201 93 43.0761 93 43.0321 93C42.9881 93 42.944 93 42.8999 93C42.8557 93 42.8115 93 42.7673 93C42.723 93 42.6787 93 42.6344 93C42.59 93 42.5456 93 42.5011 93C42.4567 93 42.4121 93 42.3676 93C42.323 93 42.2783 93 42.2337 93C42.189 93 42.1442 93 42.0994 93C42.0546 93 42.0098 93 41.9649 93C41.92 93 41.875 93 41.83 93C41.785 93 41.74 93 41.6949 93C41.6497 93 41.6046 93 41.5594 93C41.5141 93 41.4689 93 41.4236 93C41.3782 93 41.3329 93 41.2874 93C41.242 93 41.1965 93 41.151 93C41.1055 93 41.0599 93 41.0143 93C40.9687 93 40.923 93 40.8772 93C40.8315 93 40.7857 93 40.7399 93C40.6941 93 40.6482 93 40.6023 93C40.5563 93 40.5104 93 40.4643 93C40.4183 93 40.3722 93 40.3261 93C40.28 93 40.2338 93 40.1876 93C40.1414 93 40.0951 93 40.0488 93C40.0025 93 39.9561 93 39.9097 93C39.8633 93 39.8168 93 39.7703 93C39.7238 93 39.6772 93 39.6306 93C39.584 93 39.5374 93 39.4907 93C39.444 93 39.3972 93 39.3505 93C39.3037 93 39.2568 93 39.21 93C39.1631 93 39.1161 93 39.0692 93C39.0222 93 38.9752 93 38.9281 93C38.8811 93 38.834 93 38.7868 93C38.7396 93 38.6924 93 38.6452 93C38.598 93 38.5507 93 38.5033 93C38.456 93 38.4086 93 38.3612 93C38.3138 93 38.2663 93 38.2188 93C38.1713 93 38.1238 93 38.0762 93C38.0286 93 37.981 93 37.9333 93C37.8856 93 37.8379 93 37.7901 93C37.7424 93 37.6946 93 37.6467 93C37.5989 93 37.551 93 37.5031 93C37.4552 93 37.4072 93 37.3592 93C37.3112 93 37.2631 93 37.215 93C37.1669 93 37.1188 93 37.0706 93C37.0225 93 36.9743 93 36.926 93C36.8777 93 36.8295 93 36.7811 93C36.7328 93 36.6844 93 36.636 93C36.5876 93 36.5392 93 36.4907 93C36.4422 93 36.3937 93 36.3451 93C36.2965 93 36.2479 93 36.1993 93C36.1506 93 36.102 93 36.0532 93C36.0045 93 35.9558 93 35.907 93C35.8582 93 35.8094 93 35.7605 93C35.7116 93 35.6627 93 35.6138 93C35.5648 93 35.5159 93 35.4668 93C35.4178 93 35.3688 93 35.3197 93C35.2706 93 35.2215 93 35.1723 93C35.1232 93 35.074 93 35.0248 93C34.9755 93 34.9263 93 34.877 93C34.8277 93 34.7784 93 34.729 93C34.6796 93 34.6302 93 34.5808 93C34.5314 93 34.4819 93 34.4324 93C34.3829 93 34.3334 93 34.2838 93C34.2342 93 34.1846 93 34.135 93C34.0854 93 34.0357 93 33.986 93C33.9363 93 33.8866 93 33.8368 93C33.787 93 33.7372 93 33.6874 93C33.6376 93 33.5877 93 33.5378 93C33.4879 93 33.438 93 33.3881 93C33.3381 93 33.2881 93 33.2381 93C33.1881 93 33.1381 93 33.088 93C33.0379 93 32.9878 93 32.9377 93C32.8875 93 32.8374 93 32.7872 93C32.737 93 32.6867 93 32.6365 93C32.5862 93 32.536 93 32.4856 93C32.4353 93 32.385 93 32.3346 93C32.2843 93 32.2339 93 32.1834 93C32.133 93 32.0826 93 32.0321 93C31.9816 93 31.9311 93 31.8806 93C31.83 93 31.7795 93 31.7289 93C31.6783 93 31.6277 93 31.577 93C31.5264 93 31.4757 93 31.425 93C31.3743 93 31.3236 93 31.2728 93C31.2221 93 31.1713 93 31.1205 93C31.0697 93 31.0189 93 30.968 93C30.9172 93 30.8663 93 30.8154 93C30.7645 93 30.7136 93 30.6627 93C30.6117 93 30.5607 93 30.5097 93C30.4587 93 30.4077 93 30.3567 93C30.3056 93 30.2546 93 30.2035 93C30.1524 93 30.1013 93 30.0501 93C29.999 93 29.9478 93 29.8966 93C29.8455 93 29.7943 93 29.743 93C29.6918 93 29.6406 93 29.5893 93C29.538 93 29.4867 93 29.4354 93C29.3841 93 29.3328 93 29.2814 93C29.23 93 29.1787 93 29.1273 93C29.0759 93 29.0245 93 28.973 93C28.9216 93 28.8701 93 28.8186 93C28.7672 93 28.7157 93 28.6641 93C28.6126 93 28.5611 93 28.5095 93C28.458 93 28.4064 93 28.3548 93C28.3032 93 28.2516 93 28.2 93C28.1483 93 28.0967 93 28.045 93C27.9933 93 27.9417 93 27.89 93C27.8382 93 27.7865 93 27.7348 93C27.683 93 27.6313 93 27.5795 93C27.5277 93 27.476 93 27.4241 93C27.3723 93 27.3205 93 27.2687 93C27.2168 93 27.165 93 27.1131 93C27.0612 93 27.0094 93 26.9575 93C26.9055 93 26.8536 93 26.8017 93C26.7498 93 26.6978 93 26.6459 93C26.5939 93 26.5419 93 26.4899 93C26.4379 93 26.3859 93 26.3339 93C26.2819 93 26.2298 93 26.1778 93C26.1258 93 26.0737 93 26.0216 93C25.9695 93 25.9175 93 25.8654 93C25.8133 93 25.7611 93 25.709 93C25.6569 93 25.6047 93 25.5526 93C25.5004 93 25.4483 93 25.3961 93C25.3439 93 25.2918 93 25.2396 93C25.1874 93 25.1351 93 25.0829 93C25.0307 93 24.9785 93 24.9262 93C24.874 93 24.8217 93 24.7695 93C24.7172 93 24.6649 93 24.6127 93C24.5604 93 24.5081 93 24.4558 93C24.4035 93 24.3512 93 24.2989 93C24.2465 93 24.1942 93 24.1419 93C24.0895 93 24.0372 93 23.9848 93C23.9325 93 23.8801 93 23.8277 93C23.7754 93 23.723 93 23.6706 93C23.6182 93 23.5658 93 23.5134 93C23.461 93 23.4086 93 23.3562 93C23.3038 93 23.2513 93 23.1989 93C23.1465 93 23.094 93 23.0416 93C22.9892 93 22.9367 93 22.8842 93C22.8318 93 22.7793 93 22.7269 93C22.6744 93 22.6219 93 22.5695 93C22.517 93 22.4645 93 22.412 93C22.3595 93 22.307 93 22.2545 93C22.202 93 22.1495 93 22.097 93C22.0445 93 21.992 93 21.9395 93C21.887 93 21.8345 93 21.782 93C21.7295 93 21.6769 93 21.6244 93C21.5719 93 21.5194 93 21.4668 93C21.4143 93 21.3618 93 21.3092 93C21.2567 93 21.2042 93 21.1516 93C21.0991 93 21.0465 93 20.994 93C20.9415 93 20.8889 93 20.8364 93C20.7838 93 20.7313 93 20.6787 93C20.6262 93 20.5737 93 20.5211 93C20.4686 93 20.416 93 20.3635 93C20.3109 93 20.2584 93 20.2058 93C20.1533 93 20.1007 93 20.0482 93C19.9957 93 19.9431 93 19.8906 93C19.838 93 19.7855 93 19.7329 93C19.6804 93 19.6279 93 19.5753 93C19.5228 93 19.4703 93 19.4177 93C19.3652 93 19.3127 93 19.2601 93C19.2076 93 19.1551 93 19.1026 93C19.0501 93 18.9975 93 18.945 93C18.8925 93 18.84 93 18.7875 93C18.735 93 18.6825 93 18.63 93C18.5775 93 18.525 93 18.4725 93C18.42 93 18.3675 93 18.315 93C18.2626 93 18.2101 93 18.1576 93C18.1052 93 18.0527 93 18.0002 93C17.9478 93 17.8953 93 17.8429 93C17.7904 93 17.738 93 17.6855 93C17.6331 93 17.5807 93 17.5283 93C17.4758 93 17.4234 93 17.371 93C17.3186 93 17.2662 93 17.2138 93C17.1614 93 17.109 93 17.0567 93C17.0043 93 16.9519 93 16.8995 93C16.8472 93 16.7948 93 16.7425 93C16.6901 93 16.6378 93 16.5855 93C16.5332 93 16.4808 93 16.4285 93C16.3762 93 16.3239 93 16.2716 93C16.2193 93 16.1671 93 16.1148 93C16.0625 93 16.0103 93 15.958 93C15.9058 93 15.8535 93 15.8013 93C15.7491 93 15.6969 93 15.6446 93C15.5924 93 15.5402 93 15.4881 93C15.4359 93 15.3837 93 15.3316 93C15.2794 93 15.2272 93 15.1751 93C15.123 93 15.0709 93 15.0187 93C14.9666 93 14.9145 93 14.8625 93C14.8104 93 14.7583 93 14.7062 93C14.6542 93 14.6021 93 14.5501 93C14.4981 93 14.4461 93 14.3941 93C14.3421 93 14.2901 93 14.2381 93C14.1861 93 14.1342 93 14.0822 93C14.0303 93 13.9783 93 13.9264 93C13.8745 93 13.8226 93 13.7707 93C13.7189 93 13.667 93 13.6151 93C13.5633 93 13.5115 93 13.4596 93C13.4078 93 13.356 93 13.3042 93C13.2524 93 13.2007 93 13.1489 93C13.0972 93 13.0454 93 12.9937 93C12.942 93 12.8903 93 12.8386 93C12.7869 93 12.7353 93 12.6836 93C12.632 93 12.5804 93 12.5288 93C12.4771 93 12.4256 93 12.374 93C12.3224 93 12.2709 93 12.2193 93C12.1678 93 12.1163 93 12.0648 93C12.0133 93 11.9618 93 11.9104 93C11.8589 93 11.8075 93 11.7561 93C11.7047 93 11.6533 93 11.6019 93C11.5505 93 11.4992 93 11.4478 93C11.3965 93 11.3452 93 11.2939 93C11.2426 93 11.1914 93 11.1401 93C11.0889 93 11.0377 93 10.9865 93C10.9353 93 10.8841 93 10.8329 93C10.7818 93 10.7307 93 10.6795 93C10.6284 93 10.5774 93 10.5263 93C10.4752 93 10.4242 93 10.3732 93C10.3222 93 10.2712 93 10.2202 93C10.1692 93 10.1183 93 10.0674 93C10.0165 93 9.96558 93 9.91471 93C9.86384 93 9.813 93 9.76218 93C9.71136 93 9.66057 93 9.6098 93C9.55904 93 9.5083 93 9.45758 93C9.40687 93 9.35618 93 9.30552 93C9.25485 93 9.20422 93 9.15361 93C9.103 93 9.05242 93 9.00186 93C8.95131 93 8.90078 93 8.85028 93C8.79978 93 8.74931 93 8.69886 93C8.64841 93 8.598 93 8.54761 93C8.49722 93 8.44686 93 8.39653 93C8.3462 93 8.29589 93 8.24562 93C8.19534 93 8.1451 93 8.09488 93C8.04467 93 7.99448 93 7.94432 93C7.89417 93 7.84404 93 7.79394 93C7.74385 93 7.69378 93 7.64374 93C7.5937 93 7.5437 93 7.49372 93C7.44375 93 7.39381 93 7.34389 93C7.29398 93 7.2441 93 7.19425 93C7.1444 93 7.09458 93 7.04479 93C6.99501 93 6.94525 93 6.89553 93C6.84581 93 6.79612 93 6.74646 93C6.6968 93 6.64718 93 6.59759 93C6.548 93 6.49844 93 6.44891 93C6.39939 93 6.3499 93 6.30044 93C6.25098 93 6.20156 93 6.15217 93C6.10278 93 6.05342 93 6.0041 93C5.95478 93 5.90549 93 5.85624 93C5.80699 93 5.75777 93 5.7086 93C5.65941 93 5.61027 93 5.56116 93C5.51205 93 5.46297 93 5.41393 93C5.36489 93 5.31589 93 5.26693 93C5.21796 93 5.16903 93 5.12014 93C5.07124 93 5.02239 93 4.97357 93C4.92475 93 4.87597 93 4.82722 93C4.77848 93 4.72977 93 4.68111 93C4.63244 93 4.58381 93 4.53521 93C4.48662 93 4.43806 93 4.38955 93C4.34103 93 4.29256 93 4.24412 93C4.19568 93 4.14728 93 4.09892 93C4.05056 93 4.00224 93 3.95396 93C3.90568 93 3.85744 93 3.80924 93C3.76104 93 3.71288 93 3.66476 93C3.61664 93 3.56856 93 3.52052 93C3.47248 93 3.42448 93 3.37653 93C3.32857 93 3.28065 93 3.23278 93C3.18491 93 3.13707 93 3.08928 93C3.04149 93 2.99374 93 2.94604 93C2.89833 93 2.85067 93 2.80305 93C2.75543 93 2.70785 93 2.66031 93C2.61278 93 2.56528 93 2.51784 93C2.47039 93 2.42299 93 2.37562 93C2.32826 93 2.28094 93 2.23367 93C2.1864 93 2.13917 93 2.09198 93C2.0448 93 1.99766 93 1.95056 93C1.90347 93 1.85642 93 1.80941 93C1.76241 93 1.71545 93 1.66853 93C1.62162 93 1.57475 93 1.52793 93C1.48111 93 1.43433 93 1.3876 93C1.34087 93 1.29419 93 1.24755 93C1.20091 93 1.15432 93 1.10778 93C1.06124 93 1.01474 93 0.968296 93C0.921848 93 0.875446 93 0.829094 93C0.782742 93 0.736439 93 0.690182 93C0.643925 93 0.597717 93 0.551556 93C0.505398 93 0.459286 93 0.413223 93C0.367161 93 0.321148 93 0.275185 93C0.229221 93 0.183308 93 0.137444 93C0.0915794 93 0.0457649 93 0 93V95Z" fill="#00AB8C"/>
</g>
<defs>
<clipPath id="clip0">
<rect width="375" height="220" fill="white"/>
</clipPath>
</defs>
</svg>
