<svg width="60" height="61" viewBox="0 0 60 61" fill="none" xmlns="http://www.w3.org/2000/svg">
<path d="M53.4086 36.4638C53.4086 40.7315 49.949 44.1911 45.6814 44.1911C41.4137 44.1911 37.9541 40.7315 37.9541 36.4638C37.9541 32.1962 41.4137 28.7365 45.6814 28.7365C49.949 28.7365 53.4086 32.1962 53.4086 36.4638Z" stroke="#C8A67C" stroke-width="5"/>
<path d="M20.6816 36.4638C20.6816 40.7315 17.222 44.1911 12.9543 44.1911C8.68667 44.1911 5.22705 40.7315 5.22705 36.4638C5.22705 32.1962 8.68667 28.7365 12.9543 28.7365C17.222 28.7365 20.6816 32.1962 20.6816 36.4638Z" stroke="#C8A67C" stroke-width="5"/>
<path d="M42.9995 29.5L40.2271 21.4638H19.0908L15.4995 29.5M41.5908 12.3275H34.7726M32.3177 30.5H25.4995" stroke="#C8A67C" stroke-width="5"/>
</svg>
