<svg width="13" height="39" viewBox="0 0 13 39" fill="none" xmlns="http://www.w3.org/2000/svg">
<path d="M8.15116 1.00439C6.43114 1.1988 0.180696 4.09162 0.00408663 19.0067C-0.18788 34.715 6.43882 38.0199 8.1742 37.9888V27.6074C6.74597 27.6074 6.45418 26.0288 6.13167 22.7782C5.91667 20.6242 5.85524 17.9647 6.13167 15.3129C6.33132 13.4544 6.66918 11.6425 8.16652 11.6425L8.15116 1.00439Z" fill="black"/>
<path d="M11.8518 38.004C12.5121 38.004 12.9882 37.4596 12.9882 36.8453L12.9959 36.8375C12.9959 36.8375 12.9882 28.7501 12.9882 28.7423C12.9882 28.1047 12.4737 27.5914 11.8518 27.5914H8.94922V37.9962C8.94922 38.004 11.8441 38.004 11.8518 38.004Z" fill="black"/>
<path d="M11.8518 11.6418C12.5121 11.6418 12.9882 11.0975 12.9882 10.4832L12.9959 10.4754C12.9959 10.4754 12.9882 2.15465 12.9882 2.14688C12.9882 1.50921 12.4737 0.995972 11.8518 0.995972H8.94922V11.6341C8.94922 11.6418 11.8441 11.6418 11.8518 11.6418Z" fill="black"/>
</svg>
