<svg width="23" height="22" viewBox="0 0 23 22" fill="none" xmlns="http://www.w3.org/2000/svg">
<path fill-rule="evenodd" clip-rule="evenodd" d="M2.18358 0C1.5129 0 0.96936 0.543534 0.96936 1.21427V20.7858C0.96936 21.4563 1.5129 22 2.18358 22H12.7202V13.4805H9.8533V10.1602H12.7202V7.71162C12.7202 4.8701 14.4558 3.32281 16.9907 3.32281C18.2048 3.32281 19.2484 3.41323 19.5526 3.45361V6.42321L17.7945 6.42401C16.416 6.42401 16.149 7.07911 16.149 8.04041V10.1602H19.4368L19.0087 13.4805H16.149V22H21.7551C22.4257 22 22.9694 21.4563 22.9694 20.7858V1.21427C22.9694 0.543534 22.4257 0 21.7551 0H2.18358Z" fill="#C8A67C"/>
</svg>
