<svg width="164" height="32" viewBox="0 0 164 32" fill="none" xmlns="http://www.w3.org/2000/svg">
<path d="M156.751 30.3966H153.654V18.1151H156.751C160.29 18.1151 162.775 20.6738 162.775 24.1876C162.775 27.7015 160.325 30.3966 156.751 30.3966ZM156.751 16.9552H152.463V31.5906H156.785C161.073 31.5906 164 28.452 164 24.2217C164 19.9232 161.039 16.9552 156.751 16.9552Z" fill="black"/>
<path d="M140.212 16.9552H139.021V31.5565H148.686V30.3966H140.212V16.9552Z" fill="black"/>
<path d="M123.57 31.5565H133.031V30.3966H124.761V24.7676H132.589V23.6077H124.761V18.1151H133.031V16.9552H123.57V31.5565Z" fill="black"/>
<path d="M117.172 16.9552H115.981V31.5906H117.172V16.9552Z" fill="black"/>
<path d="M101.075 31.5565H102.266V24.7676H110.093V23.6077H102.266V18.1151H110.536V16.9552H101.075V31.5565Z" fill="black"/>
<path d="M85.8967 24.1876V19.275H89.5381C91.2056 19.275 92.2947 20.2303 92.2947 21.7654C92.2947 23.3006 91.1716 24.1876 89.5381 24.1876H85.8967ZM94.745 21.7654C94.745 18.8998 92.7031 16.9552 89.7082 16.9552H83.5485V31.5906H85.9307V26.5074H88.6192L92.4989 31.5565H95.2895L91.2737 26.3369C93.3837 25.791 94.745 24.0853 94.745 21.7654Z" fill="black"/>
<path d="M67.5194 31.5906H78.0012V29.2367H69.9016V25.3475H77.3546V23.0277H69.9016V19.275H78.0012V16.9552H67.5194V31.5906Z" fill="black"/>
<path d="M63.0952 16.9552H50.4694V19.275H55.6082V31.5906H57.9904V19.275H63.0952V16.9552Z" fill="black"/>
<path d="M43.6971 27.1897L36.176 16.9552H34.1001V31.5906H36.4823V21.3561L43.9694 31.5906H46.0793V16.9552H43.6971V27.1897Z" fill="black"/>
<path d="M18.0709 31.5906H28.5868V29.2367H20.4532V25.3475H27.9402V23.0277H20.4532V19.275H28.5868V16.9552H18.0709V31.5906Z" fill="black"/>
<path d="M11.6049 27.8379C10.652 28.8613 9.32476 29.5437 7.72525 29.5437C4.79851 29.5437 2.4503 27.1556 2.4503 24.2558C2.4503 21.356 4.83254 18.968 7.72525 18.968C9.18863 18.968 10.5839 19.5479 11.6049 20.6737L13.3746 19.0021C11.8772 17.3987 9.9033 16.5458 7.72525 16.5458C3.47126 16.5117 0 19.9914 0 24.2558C0 28.5202 3.47126 31.9999 7.72525 31.9999C9.86927 31.9999 11.8772 31.1129 13.3746 29.5095L11.6049 27.8379Z" fill="black"/>
<path d="M120.575 0.272827V1.60332H123.196V8.01696H124.625V1.60332H127.245V0.272827H120.575Z" fill="black"/>
<path d="M116.287 1.91035L117.717 5.21952H114.858L116.287 1.91035ZM115.505 0.272827L112.067 8.01696H113.633L114.279 6.55001H118.295L118.942 8.01696H120.507L117.07 0.272827H115.505Z" fill="black"/>
<path d="M106.078 2.14925C105.805 1.70576 105.091 1.29638 104.274 1.29638C103.219 1.29638 102.674 1.73987 102.674 2.31983C102.674 3.00213 103.457 3.17271 104.376 3.30917C105.976 3.51386 107.473 3.92324 107.473 5.76546C107.473 7.50533 105.976 8.22175 104.274 8.22175C102.708 8.22175 101.517 7.74414 100.939 6.3113L102.13 5.66311C102.47 6.51599 103.355 6.89126 104.274 6.89126C105.193 6.89126 106.044 6.58422 106.044 5.73134C106.044 5.01493 105.295 4.70789 104.274 4.60554C102.708 4.40085 101.279 3.99147 101.279 2.2516C101.279 0.648188 102.845 0 104.24 0C105.431 0 106.656 0.341151 107.235 1.53518L106.078 2.14925Z" fill="black"/>
<path d="M94.0984 4.40092H96.2764C98.1142 4.40092 98.1142 1.63759 96.2764 1.63759H94.0984V4.40092ZM96.2764 5.73141H94.0984V8.01712H92.6691V0.272985C93.8602 0.272985 95.0853 0.272985 96.2764 0.272985C100.02 0.23887 100.02 5.73141 96.2764 5.73141Z" fill="black"/>
<path d="M83.8549 4.23022C83.8889 5.49248 84.5695 6.85709 86.3732 6.85709C88.1769 6.85709 88.8576 5.49248 88.8916 4.19611C88.9256 2.89973 88.1769 1.43278 86.3732 1.43278C84.5355 1.43278 83.8208 2.89973 83.8549 4.23022ZM90.2869 4.19611C90.2529 6.2089 89.0618 8.22169 86.3732 8.22169C83.6847 8.22169 82.4255 6.27713 82.4255 4.23022C82.4255 2.18331 83.7188 0.136407 86.3732 0.136407C88.9937 0.102292 90.2869 2.1492 90.2869 4.19611Z" fill="black"/>
<path d="M78.6479 8.01696V4.91249H74.9044V8.01696H73.441V0.272827H74.9044V3.54788H78.6479V0.272827H80.0772V8.01696H78.6479Z" fill="black"/>
<path d="M69.6294 2.14925C69.3572 1.70576 68.6425 1.29638 67.8257 1.29638C66.7707 1.29638 66.2262 1.73987 66.2262 2.31983C66.2262 3.00213 67.009 3.17271 67.9278 3.30917C69.5273 3.51386 71.0247 3.92324 71.0247 5.76546C71.0247 7.50533 69.5273 8.22175 67.8257 8.22175C66.2603 8.22175 65.0691 7.74414 64.4906 6.3113L65.6817 5.66311C66.022 6.51599 66.9069 6.89126 67.8257 6.89126C68.7446 6.89126 69.5954 6.58422 69.5954 5.73134C69.5954 5.01493 68.8467 4.70789 67.8257 4.60554C66.2603 4.40085 64.8309 3.99147 64.8309 2.2516C64.8309 0.648188 66.3964 0 67.7917 0C68.9828 0 70.208 0.341151 70.7865 1.53518L69.6294 2.14925Z" fill="black"/>
<path d="M48.8019 8.01696V4.91249H45.0243V8.01696H43.595V0.272827H45.0243V3.54788H48.8019V0.272827H50.2312V8.01696H48.8019Z" fill="black"/>
<path d="M52.8857 0.272827V8.01696H58.5691V6.58413H54.3151V4.84426H58.1947V3.47965H54.3151V1.67155H58.5691V0.272827H52.8857Z" fill="black"/>
<path d="M34.8828 0.272827V1.60332H37.5033V8.01696H38.9326V1.60332H41.5531V0.272827H34.8828Z" fill="black"/>
</svg>
