<svg width="285" height="322" viewBox="0 0 285 322" fill="none" xmlns="http://www.w3.org/2000/svg">
<g clip-path="url(#clip0)">
<path d="M168.869 210.992H167.369V212.492V319.951H1.93298V147.924H86.3485H87.8485V146.424V98.2981H145.945H147.445V96.7981V32.9216H186.803H188.303V31.4216V1.93176H283.067V162.216H168.869H167.369V163.716V183.695V185.195H168.869H193.409V210.992H168.869Z" fill="white" stroke="black" stroke-width="3" stroke-miterlimit="10"/>
<path d="M152.078 121.631L229.98 121.631V86.6676H152.078V121.631Z" fill="black"/>
<path d="M129.788 121.609H148.97V102.493H129.788V121.609Z" fill="black"/>
<path d="M141.592 109.206C141.963 109.206 142.272 108.897 142.272 108.527C142.272 108.157 141.963 107.849 141.592 107.849C141.22 107.849 140.911 108.157 140.911 108.527C140.911 108.897 141.22 109.206 141.592 109.206Z" fill="white"/>
<path d="M141.468 113.584V115.989C141.468 116.42 140.849 116.42 140.849 115.989V113.584H139.983L140.911 110.377H140.725L140.168 112.165C140.045 112.535 139.488 112.412 139.611 111.98L140.23 110.007C140.292 109.761 140.601 109.391 141.096 109.391H141.53H142.025C142.52 109.391 142.829 109.822 142.891 110.007L143.51 111.98C143.633 112.412 143.077 112.597 142.953 112.165L142.396 110.377H142.21L143.138 113.584H142.272V115.989C142.272 116.42 141.653 116.42 141.653 115.989V113.584H141.468Z" fill="white"/>
<path d="M136.242 109.452C135.747 109.452 135.376 109.822 135.376 110.377V112.474C135.376 112.906 135.995 112.906 135.995 112.474V110.562H136.119V115.927C136.119 116.482 136.923 116.482 136.923 115.927V112.782H137.047V115.927C137.047 116.482 137.851 116.482 137.851 115.927V110.562H137.975V112.474C137.975 112.906 138.594 112.906 138.594 112.474V110.377C138.594 109.946 138.222 109.452 137.727 109.452H136.242Z" fill="white"/>
<path d="M136.985 109.206C137.361 109.206 137.665 108.902 137.665 108.527C137.665 108.153 137.361 107.849 136.985 107.849C136.609 107.849 136.304 108.153 136.304 108.527C136.304 108.902 136.609 109.206 136.985 109.206Z" fill="white"/>
<path d="M6.8224 233.202H26.0039L26.0039 214.086H6.8224L6.8224 233.202Z" fill="black"/>
<path d="M18.6654 220.816C19.0366 220.816 19.346 220.508 19.346 220.138C19.346 219.768 19.0366 219.459 18.6654 219.459C18.2941 219.459 17.9847 219.768 17.9847 220.138C17.9847 220.508 18.2941 220.816 18.6654 220.816Z" fill="white"/>
<path d="M18.5412 225.133V227.537C18.5412 227.969 17.9225 227.969 17.9225 227.537V225.133H17.0562L17.9843 221.926H17.8606L17.3037 223.714C17.18 224.084 16.6231 223.961 16.7468 223.529L17.3656 221.556C17.4275 221.309 17.7368 220.939 18.2318 220.939H18.665H19.16C19.655 220.939 19.9644 221.371 20.0263 221.556L20.645 223.529C20.7688 223.961 20.2119 224.146 20.0881 223.714L19.5312 221.926H19.3456L20.2738 225.133H19.4075V227.537C19.4075 227.969 18.7887 227.969 18.7887 227.537V225.133H18.5412Z" fill="white"/>
<path d="M13.3777 221.001C12.8827 221.001 12.5115 221.371 12.5115 221.926V224.022C12.5115 224.454 13.1302 224.454 13.1302 224.022V222.111H13.254V227.476C13.254 228.03 14.0584 228.03 14.0584 227.476V224.331H14.1821V227.476C14.1821 228.03 14.9865 228.03 14.9865 227.476V222.111H15.1103V224.022C15.1103 224.454 15.729 224.454 15.729 224.022V221.926C15.729 221.494 15.3578 221.001 14.8628 221.001H13.3777Z" fill="white"/>
<path d="M14.0581 220.816C14.434 220.816 14.7387 220.512 14.7387 220.138C14.7387 219.763 14.434 219.459 14.0581 219.459C13.6822 219.459 13.3774 219.763 13.3774 220.138C13.3774 220.512 13.6822 220.816 14.0581 220.816Z" fill="white"/>
<path d="M7 281H103V246H7V281Z" fill="black"/>
<path d="M105.192 280.854H117.629V245.891H105.192V280.854Z" fill="black"/>
<path d="M163.466 214.588V280.876H153.504L138.159 264.227V240.487L163.466 214.588Z" fill="#C8A67C"/>
<path d="M115.028 269.099V263.796C115.028 263.241 114.594 262.809 114.038 262.809H108.716C108.159 262.809 107.726 263.241 107.726 263.796V269.099C107.726 269.654 108.159 270.085 108.716 270.085H114.038C114.594 270.024 115.028 269.654 115.028 269.099ZM114.223 269.222H108.531V263.611H114.223V269.222Z" fill="white"/>
<path d="M112.305 259.356C112.305 258.924 112.924 258.924 112.924 259.356V261.083L113.233 260.713C113.481 260.466 113.852 260.836 113.605 261.083L112.8 262.007C112.676 262.131 112.491 262.131 112.367 262.007L111.563 261.083C111.315 260.774 111.748 260.466 111.934 260.713L112.243 261.144L112.305 259.356Z" fill="white"/>
<path d="M109.892 261.824C109.892 262.256 110.511 262.256 110.511 261.824V260.098L110.82 260.468C111.068 260.714 111.439 260.344 111.192 260.098L110.387 259.173C110.263 259.049 110.078 259.049 109.954 259.173L109.15 260.098C108.902 260.406 109.335 260.714 109.521 260.468L109.83 260.036L109.892 261.824Z" fill="white"/>
<path d="M113.048 265.276H111.996C111.873 265.276 111.749 265.399 111.749 265.522V266.817C111.749 266.94 111.811 267.002 111.934 267.002C111.934 267.002 111.996 267.002 112.058 267.002V268.667C112.058 268.975 112.491 268.975 112.491 268.667V267.002H112.553V268.667C112.553 268.975 112.986 268.975 112.986 268.667V267.002C113.048 267.002 113.11 267.002 113.11 267.002C113.234 267.002 113.296 266.94 113.296 266.817V265.522C113.296 265.399 113.172 265.276 113.048 265.276Z" fill="white"/>
<path d="M112.553 265.152C112.724 265.152 112.863 265.014 112.863 264.844C112.863 264.674 112.724 264.536 112.553 264.536C112.382 264.536 112.244 264.674 112.244 264.844C112.244 265.014 112.382 265.152 112.553 265.152Z" fill="white"/>
<path d="M110.82 265.276H109.768C109.645 265.276 109.521 265.399 109.521 265.522V266.817C109.521 266.94 109.583 267.002 109.707 267.002C109.707 267.002 109.768 267.002 109.83 267.002V268.667C109.83 268.975 110.263 268.975 110.263 268.667V267.002H110.325V268.667C110.325 268.975 110.759 268.975 110.759 268.667V267.002C110.82 267.002 110.882 267.002 110.882 267.002C111.006 267.002 111.068 266.94 111.068 266.817V265.522C111.068 265.399 110.944 265.276 110.82 265.276Z" fill="white"/>
<path d="M110.326 265.152C110.496 265.152 110.635 265.014 110.635 264.844C110.635 264.674 110.496 264.536 110.326 264.536C110.155 264.536 110.016 264.674 110.016 264.844C110.016 265.014 110.155 265.152 110.326 265.152Z" fill="white"/>
<path d="M171.392 207.804H190.574V188.01H171.392V207.804Z" fill="black"/>
<path d="M184.637 202.44V197.137C184.637 196.582 184.204 196.151 183.647 196.151H178.326C177.769 196.151 177.336 196.582 177.336 197.137V202.44C177.336 202.995 177.769 203.427 178.326 203.427H183.647C184.204 203.427 184.637 202.995 184.637 202.44ZM183.833 202.625H178.141V197.014H183.833V202.625Z" fill="white"/>
<path d="M181.854 192.698C181.854 192.266 182.472 192.266 182.472 192.698V194.424L182.782 194.054C183.029 193.808 183.4 194.178 183.153 194.424L182.349 195.349C182.225 195.472 182.039 195.472 181.915 195.349L181.111 194.424C180.863 194.116 181.297 193.808 181.482 194.054L181.792 194.486L181.854 192.698Z" fill="white"/>
<path d="M179.502 195.166C179.502 195.598 180.121 195.598 180.121 195.166V193.44L180.43 193.809C180.678 194.056 181.049 193.686 180.801 193.44L179.997 192.515C179.873 192.391 179.688 192.391 179.564 192.515L178.76 193.44C178.512 193.748 178.945 194.056 179.131 193.809L179.44 193.378L179.502 195.166Z" fill="white"/>
<path d="M182.657 198.679H181.606C181.482 198.679 181.358 198.802 181.358 198.926V200.221C181.358 200.344 181.42 200.406 181.544 200.406C181.544 200.406 181.606 200.406 181.667 200.406V202.07C181.667 202.379 182.101 202.379 182.101 202.07V200.406H182.162V202.07C182.162 202.379 182.596 202.379 182.596 202.07V200.406C182.657 200.406 182.719 200.406 182.719 200.406C182.843 200.406 182.905 200.344 182.905 200.221V198.926C182.905 198.741 182.781 198.679 182.657 198.679Z" fill="white"/>
<path d="M182.1 198.494C182.271 198.494 182.41 198.356 182.41 198.186C182.41 198.015 182.271 197.877 182.1 197.877C181.93 197.877 181.791 198.015 181.791 198.186C181.791 198.356 181.93 198.494 182.1 198.494Z" fill="white"/>
<path d="M180.368 198.679H179.316C179.192 198.679 179.069 198.802 179.069 198.926V200.221C179.069 200.344 179.131 200.406 179.254 200.406C179.254 200.406 179.316 200.406 179.378 200.406V202.07C179.378 202.379 179.811 202.379 179.811 202.07V200.406H179.873V202.07C179.873 202.379 180.306 202.379 180.306 202.07V200.406C180.368 200.406 180.43 200.406 180.43 200.406C180.554 200.406 180.616 200.344 180.616 200.221V198.926C180.616 198.741 180.554 198.679 180.368 198.679Z" fill="white"/>
<path d="M179.873 198.494C180.044 198.494 180.183 198.356 180.183 198.186C180.183 198.015 180.044 197.877 179.873 197.877C179.702 197.877 179.564 198.015 179.564 198.186C179.564 198.356 179.702 198.494 179.873 198.494Z" fill="white"/>
<path d="M60.6136 233.199H89.324V213.343H60.6136V233.199Z" fill="black"/>
<path d="M35.7021 210.888V233.211H58.4724V210.888H89.3485V151.815H6.89795V210.888H35.7021Z" fill="black"/>
<path d="M78.6442 227.846V222.543C78.6442 221.988 78.2111 221.556 77.6542 221.556H72.3948C71.8379 221.556 71.4048 221.988 71.4048 222.543V227.846C71.4048 228.401 71.8379 228.832 72.3948 228.832H77.7161C78.2111 228.771 78.6442 228.401 78.6442 227.846ZM77.8399 227.969H72.1473V222.358H77.8399V227.969Z" fill="white"/>
<path d="M75.9215 218.103C75.9215 217.671 76.5403 217.671 76.5403 218.103V219.83L76.8496 219.46C77.0971 219.213 77.4684 219.583 77.2209 219.83L76.4165 220.755C76.2928 220.878 76.1071 220.878 75.9834 220.755L75.179 219.83C74.9315 219.521 75.3646 219.213 75.5502 219.46L75.8596 219.891L75.9215 218.103Z" fill="white"/>
<path d="M73.5085 220.571C73.5085 221.003 74.1273 221.003 74.1273 220.571V218.845L74.4367 219.215C74.6842 219.461 75.0554 219.091 74.8079 218.845L74.0035 217.92C73.8798 217.796 73.6942 217.796 73.5704 217.92L72.766 218.845C72.5185 219.153 72.9516 219.461 73.1373 219.215L73.4466 218.783L73.5085 220.571Z" fill="white"/>
<path d="M76.6646 224.023H75.6127C75.489 224.023 75.3652 224.146 75.3652 224.269V225.564C75.3652 225.687 75.4271 225.749 75.5509 225.749C75.5509 225.749 75.6127 225.749 75.6746 225.749V227.414C75.6746 227.722 76.1077 227.722 76.1077 227.414V225.749H76.1696V227.414C76.1696 227.722 76.6028 227.722 76.6028 227.414V225.749C76.6646 225.749 76.7265 225.749 76.7265 225.749C76.8503 225.749 76.9121 225.687 76.9121 225.564V224.269C76.9121 224.146 76.7884 224.023 76.6646 224.023Z" fill="white"/>
<path d="M76.1697 223.899C76.3406 223.899 76.4791 223.761 76.4791 223.591C76.4791 223.421 76.3406 223.283 76.1697 223.283C75.9989 223.283 75.8604 223.421 75.8604 223.591C75.8604 223.761 75.9989 223.899 76.1697 223.899Z" fill="white"/>
<path d="M74.4369 224.023H73.385C73.2612 224.023 73.1375 224.146 73.1375 224.269V225.564C73.1375 225.687 73.1993 225.749 73.3231 225.749C73.3231 225.749 73.385 225.749 73.4468 225.749V227.414C73.4468 227.722 73.88 227.722 73.88 227.414V225.749H73.9419V227.414C73.9419 227.722 74.375 227.722 74.375 227.414V225.749C74.4369 225.749 74.4987 225.749 74.4987 225.749C74.6225 225.749 74.6844 225.687 74.6844 225.564V224.269C74.6844 224.146 74.5606 224.023 74.4369 224.023Z" fill="white"/>
<path d="M73.9419 223.899C74.1128 223.899 74.2513 223.761 74.2513 223.591C74.2513 223.421 74.1128 223.283 73.9419 223.283C73.7711 223.283 73.6326 223.421 73.6326 223.591C73.6326 223.761 73.7711 223.899 73.9419 223.899Z" fill="white"/>
<path d="M152.065 75.5087H186.777V37.5241L152.065 37.5241V75.5087Z" fill="black"/>
<path d="M231.823 121.631H244.26V86.6676H231.823V121.631Z" fill="black"/>
<path d="M241.687 109.822V104.519C241.687 103.964 241.254 103.533 240.697 103.533H235.376C234.819 103.533 234.386 103.964 234.386 104.519V109.822C234.386 110.377 234.819 110.809 235.376 110.809H240.697C241.254 110.809 241.687 110.377 241.687 109.822ZM240.883 110.007H235.19V104.396H240.883V110.007Z" fill="white"/>
<path d="M238.965 100.08C238.965 99.6479 239.583 99.6479 239.583 100.08V101.806L239.893 101.436C240.14 101.19 240.512 101.56 240.264 101.806L239.46 102.731C239.336 102.854 239.15 102.854 239.027 102.731L238.222 101.806C237.975 101.498 238.408 101.19 238.593 101.436L238.903 101.868L238.965 100.08Z" fill="white"/>
<path d="M236.552 102.548C236.552 102.979 237.17 102.979 237.17 102.548V100.821L237.48 101.191C237.727 101.438 238.099 101.068 237.851 100.821L237.047 99.8963C236.923 99.7729 236.737 99.7729 236.614 99.8963L235.809 100.821C235.562 101.13 235.995 101.438 236.18 101.191L236.49 100.76L236.552 102.548Z" fill="white"/>
<path d="M239.708 106.061H238.656C238.532 106.061 238.408 106.184 238.408 106.308V107.603C238.408 107.726 238.47 107.788 238.594 107.788C238.594 107.788 238.656 107.788 238.718 107.788V109.453C238.718 109.761 239.151 109.761 239.151 109.453V107.788H239.213V109.453C239.213 109.761 239.646 109.761 239.646 109.453V107.788C239.708 107.788 239.77 107.788 239.77 107.788C239.893 107.788 239.955 107.726 239.955 107.603V106.308C239.955 106.123 239.831 106.061 239.708 106.061Z" fill="white"/>
<path d="M239.213 105.876C239.384 105.876 239.522 105.738 239.522 105.568C239.522 105.397 239.384 105.259 239.213 105.259C239.042 105.259 238.903 105.397 238.903 105.568C238.903 105.738 239.042 105.876 239.213 105.876Z" fill="white"/>
<path d="M237.48 106.061H236.428C236.304 106.061 236.181 106.184 236.181 106.308V107.603C236.181 107.726 236.242 107.788 236.366 107.788C236.366 107.788 236.428 107.788 236.49 107.788V109.453C236.49 109.761 236.923 109.761 236.923 109.453V107.788H236.985V109.453C236.985 109.761 237.418 109.761 237.418 109.453V107.788C237.48 107.788 237.542 107.788 237.542 107.788C237.666 107.788 237.727 107.726 237.727 107.603V106.308C237.727 106.123 237.604 106.061 237.48 106.061Z" fill="white"/>
<path d="M236.923 105.876C237.094 105.876 237.232 105.738 237.232 105.568C237.232 105.397 237.094 105.259 236.923 105.259C236.752 105.259 236.614 105.397 236.614 105.568C236.614 105.738 236.752 105.876 236.923 105.876Z" fill="white"/>
<path d="M210.496 141.619H244.28V128.793H210.496V141.619Z" fill="black"/>
<path d="M230 158H279V123H251.982V144.116H230V158Z" fill="black"/>
<path d="M252 122H279V87H252V122Z" fill="#DAC452"/>
<path d="M252 84H279V63H252V84Z" fill="#DAC452"/>
<path d="M240 53L279 53V6L240 6V53Z" fill="#DAC452"/>
<path d="M193 53L235 53V6L193 6V53Z" fill="#DAC452"/>
<path d="M226.651 132.7C227.022 132.7 227.331 132.391 227.331 132.021C227.331 131.651 227.022 131.343 226.651 131.343C226.28 131.343 225.97 131.651 225.97 132.021C225.97 132.391 226.28 132.7 226.651 132.7Z" fill="white"/>
<path d="M231.168 132.083H229.621C229.312 132.083 228.879 132.206 228.631 132.453L227.208 133.871V133.439C227.208 132.576 225.909 132.576 225.909 133.439V135.104L224.671 136.338C224.547 136.461 224.547 136.461 224.3 136.461H223.557C222.815 136.461 222.32 137.139 222.32 137.694C222.32 138.249 222.753 138.989 223.619 138.989C223.619 138.989 224.671 138.989 224.981 138.989C225.29 138.989 225.661 138.866 225.971 138.557L229.931 134.673C229.992 134.611 230.054 134.549 230.178 134.549C230.178 134.549 230.735 134.549 231.168 134.549C231.663 134.549 232.282 133.994 232.282 133.254C232.344 132.576 231.725 132.083 231.168 132.083ZM231.106 133.994H230.302C229.931 133.994 229.807 134.056 229.621 134.241L225.661 138.188C225.476 138.373 225.29 138.434 225.042 138.434H223.743C223.434 138.434 223.124 138.126 223.124 137.756C223.124 137.386 223.434 137.201 223.681 137.201H224.547C224.795 137.201 224.98 137.139 225.104 136.954L229.126 132.946C229.312 132.761 229.436 132.761 229.745 132.761H231.106C231.416 132.761 231.663 133.131 231.663 133.378C231.663 133.624 231.539 133.994 231.106 133.994Z" fill="white"/>
<path d="M105.171 316.742H138.955V303.916H105.171V316.742Z" fill="black"/>
<path d="M121.338 307.81C121.71 307.81 122.019 307.501 122.019 307.131C122.019 306.761 121.71 306.453 121.338 306.453C120.967 306.453 120.658 306.761 120.658 307.131C120.658 307.501 120.967 307.81 121.338 307.81Z" fill="white"/>
<path d="M125.855 307.193H124.37C124.061 307.193 123.628 307.316 123.38 307.563L121.957 308.981V308.55C121.957 307.686 120.658 307.686 120.658 308.55V310.214L119.42 311.448C119.296 311.571 119.296 311.571 119.049 311.571H118.306C117.564 311.571 117.069 312.249 117.069 312.804C117.069 313.359 117.502 314.099 118.368 314.099C118.368 314.099 119.42 314.099 119.73 314.099C120.039 314.099 120.41 313.976 120.72 313.668L124.68 309.783C124.741 309.721 124.803 309.659 124.927 309.659C124.927 309.659 125.484 309.659 125.917 309.659C126.412 309.659 127.031 309.105 127.031 308.365C127.031 307.686 126.35 307.193 125.855 307.193ZM125.793 309.105H124.989C124.618 309.105 124.494 309.166 124.308 309.351L120.348 313.298C120.163 313.483 119.977 313.544 119.73 313.544H118.43C118.121 313.544 117.811 313.236 117.811 312.866C117.811 312.496 118.121 312.311 118.368 312.311H119.235C119.482 312.311 119.668 312.249 119.791 312.064L123.813 308.056C123.999 307.871 124.123 307.871 124.432 307.871H125.793C126.103 307.871 126.35 308.241 126.35 308.488C126.35 308.735 126.226 309.105 125.793 309.105Z" fill="white"/>
<path d="M171.536 179.872H205.32V167.046H171.536V179.872Z" fill="black"/>
<path d="M187.669 170.931C188.041 170.931 188.35 170.623 188.35 170.253C188.35 169.883 188.041 169.574 187.669 169.574C187.298 169.574 186.989 169.883 186.989 170.253C186.989 170.623 187.298 170.931 187.669 170.931Z" fill="white"/>
<path d="M192.248 170.314H190.701C190.392 170.314 189.959 170.438 189.711 170.684L188.288 172.102V171.671C188.288 170.808 186.989 170.808 186.989 171.671V173.336L185.751 174.569C185.628 174.692 185.628 174.692 185.38 174.692H184.638C183.895 174.692 183.4 175.371 183.4 175.926C183.4 176.481 183.833 177.221 184.699 177.221C184.699 177.221 185.751 177.221 186.061 177.221C186.37 177.221 186.741 177.097 187.051 176.789L191.011 172.904C191.073 172.842 191.135 172.781 191.258 172.781C191.258 172.781 191.815 172.781 192.248 172.781C192.743 172.781 193.362 172.226 193.362 171.486C193.362 170.808 192.743 170.314 192.248 170.314ZM192.125 172.226H191.32C190.949 172.226 190.825 172.287 190.64 172.472L186.679 176.419C186.494 176.604 186.308 176.666 186.061 176.666H184.761C184.452 176.666 184.143 176.357 184.143 175.987C184.143 175.617 184.452 175.432 184.699 175.432H185.566C185.813 175.432 185.999 175.371 186.123 175.186L190.144 171.177C190.33 170.993 190.454 170.992 190.763 170.992H192.125C192.434 170.992 192.681 171.362 192.681 171.609C192.681 171.856 192.558 172.226 192.125 172.226Z" fill="white"/>
<path d="M210.496 75.4247H244.28V62.5987H210.496V75.4247Z" fill="black"/>
<path d="M226.651 66.5347C227.022 66.5347 227.331 66.2263 227.331 65.8563C227.331 65.4864 227.022 65.178 226.651 65.178C226.28 65.178 225.97 65.4864 225.97 65.8563C225.97 66.2263 226.28 66.5347 226.651 66.5347Z" fill="white"/>
<path d="M231.168 65.918H229.621C229.312 65.918 228.879 66.0413 228.631 66.2879L227.208 67.7062V67.2746C227.208 66.4113 225.909 66.4113 225.909 67.2746V68.9395L224.671 70.1727C224.547 70.2961 224.547 70.2961 224.3 70.2961H223.557C222.815 70.2961 222.32 70.9744 222.32 71.5293C222.32 72.0843 222.753 72.8242 223.619 72.8242C223.619 72.8242 224.671 72.8242 224.981 72.8242C225.29 72.8242 225.661 72.7009 225.971 72.3926L229.931 68.5078C229.992 68.4462 230.054 68.3845 230.178 68.3845C230.178 68.3845 230.735 68.3845 231.168 68.3845C231.663 68.3845 232.282 67.8295 232.282 67.0896C232.344 66.4113 231.725 65.918 231.168 65.918ZM231.106 67.7679H230.302C229.931 67.7679 229.807 67.8295 229.621 68.0145L225.661 71.961C225.476 72.146 225.29 72.2076 225.042 72.2076H223.743C223.434 72.2076 223.124 71.8993 223.124 71.5293C223.124 71.1593 223.434 70.9744 223.681 70.9744H224.547C224.795 70.9744 224.98 70.9127 225.104 70.7277L229.126 66.7196C229.312 66.5346 229.436 66.5346 229.745 66.5346H231.106C231.416 66.5346 231.663 66.9046 231.663 67.1512C231.663 67.3979 231.539 67.7679 231.106 67.7679Z" fill="white"/>
<path d="M92.0493 168.751H135.301V151.794H92.0493V168.751Z" fill="#C8A67C"/>
<path d="M92.0493 210.891H135.301V198.496H92.0493V210.891Z" fill="#C8A67C"/>
<path d="M108.719 195.998H135.325V185.577H108.719V195.998Z" fill="#C8A67C"/>
<path d="M92.1333 213.355H135.323V215.39L117.626 233.211H92.1333V213.355Z" fill="#C8A67C"/>
<path d="M92.1333 144.107L116.884 126.102L135.323 134.118V149.349H92.1333V144.107Z" fill="#C8A67C"/>
<path d="M106.117 196.028V183.079H135.323V171.239H92.1333V196.028H106.117Z" fill="#C8A67C"/>
<path d="M153.607 10H158.522V8.73224H155.144V6.99574H158.255V5.72798H155.144V3.99503H158.507V2.72727H153.607V10ZM160.983 10L161.523 8.34162H164.147L164.687 10H166.335L163.828 2.72727H161.846L159.336 10H160.983ZM161.914 7.14134L162.809 4.3892H162.865L163.76 7.14134H161.914ZM170.99 4.81889H172.463C172.442 3.52273 171.377 2.62784 169.757 2.62784C168.163 2.62784 166.995 3.50852 167.002 4.82955C166.998 5.90199 167.754 6.51634 168.983 6.81108L169.775 7.00994C170.567 7.2017 171.007 7.42898 171.011 7.91903C171.007 8.4517 170.503 8.81392 169.722 8.81392C168.923 8.81392 168.348 8.4446 168.298 7.71662H166.81C166.849 9.28977 167.975 10.103 169.74 10.103C171.515 10.103 172.559 9.25426 172.563 7.92259C172.559 6.71165 171.647 6.06889 170.382 5.7848L169.729 5.62855C169.097 5.48295 168.568 5.24858 168.578 4.72656C168.578 4.25781 168.994 3.91335 169.747 3.91335C170.482 3.91335 170.933 4.24716 170.99 4.81889ZM173.32 3.99503H175.547V10H177.066V3.99503H179.293V2.72727H173.32V3.99503ZM143.047 15.995H145.273V22H146.793V15.995H149.02V14.7273H143.047V15.995ZM156.364 18.3636C156.364 15.9844 154.887 14.6278 152.959 14.6278C151.02 14.6278 149.553 15.9844 149.553 18.3636C149.553 20.7322 151.02 22.0994 152.959 22.0994C154.887 22.0994 156.364 20.7429 156.364 18.3636ZM154.805 18.3636C154.805 19.9048 154.074 20.7393 152.959 20.7393C151.84 20.7393 151.112 19.9048 151.112 18.3636C151.112 16.8224 151.84 15.9879 152.959 15.9879C154.074 15.9879 154.805 16.8224 154.805 18.3636ZM158.867 22H160.365L161.747 17.245H161.804L163.189 22H164.687L166.768 14.7273H165.088L163.885 19.7912H163.821L162.496 14.7273H161.058L159.73 19.7805H159.669L158.466 14.7273H156.786L158.867 22ZM167.591 22H172.506V20.7322H169.129V18.9957H172.24V17.728H169.129V15.995H172.492V14.7273H167.591V22ZM173.714 22H175.252V19.4219H176.374L177.752 22H179.449L177.905 19.1733C178.732 18.8182 179.19 18.0973 179.19 17.103C179.19 15.6577 178.235 14.7273 176.584 14.7273H173.714V22ZM175.252 18.1861V15.9844H176.289C177.177 15.9844 177.606 16.3786 177.606 17.103C177.606 17.8239 177.177 18.1861 176.296 18.1861H175.252Z" fill="black"/>
<path d="M176.97 307.443H178.468L179.85 302.688H179.907L181.292 307.443H182.79L184.871 300.171H183.191L181.988 305.235H181.924L180.599 300.171H179.161L177.833 305.224H177.772L176.569 300.171H174.889L176.97 307.443ZM185.694 307.443H190.609V306.176H187.232V304.439H190.343V303.171H187.232V301.438H190.595V300.171H185.694V307.443ZM195.762 302.262H197.236C197.215 300.966 196.15 300.071 194.53 300.071C192.936 300.071 191.767 300.952 191.775 302.273C191.771 303.345 192.527 303.96 193.756 304.254L194.548 304.453C195.34 304.645 195.78 304.872 195.784 305.362C195.78 305.895 195.276 306.257 194.495 306.257C193.696 306.257 193.12 305.888 193.071 305.16H191.583C191.622 306.733 192.748 307.546 194.512 307.546C196.288 307.546 197.332 306.698 197.336 305.366C197.332 304.155 196.419 303.512 195.155 303.228L194.502 303.072C193.87 302.926 193.341 302.692 193.351 302.17C193.351 301.701 193.767 301.357 194.52 301.357C195.255 301.357 195.706 301.691 195.762 302.262ZM198.093 301.438H200.319V307.443H201.839V301.438H204.066V300.171H198.093V301.438ZM175.056 313.438H177.282V319.443H178.802V313.438H181.029V312.171H175.056V313.438ZM188.373 315.807C188.373 313.428 186.896 312.071 184.968 312.071C183.029 312.071 181.562 313.428 181.562 315.807C181.562 318.176 183.029 319.543 184.968 319.543C186.896 319.543 188.373 318.186 188.373 315.807ZM186.814 315.807C186.814 317.348 186.083 318.183 184.968 318.183C183.849 318.183 183.121 317.348 183.121 315.807C183.121 314.266 183.849 313.431 184.968 313.431C186.083 313.431 186.814 314.266 186.814 315.807ZM190.876 319.443H192.375L193.756 314.688H193.813L195.198 319.443H196.696L198.777 312.171H197.098L195.894 317.235H195.83L194.505 312.171H193.067L191.739 317.224H191.679L190.475 312.171H188.795L190.876 319.443ZM199.6 319.443H204.515V318.176H201.138V316.439H204.249V315.171H201.138V313.438H204.501V312.171H199.6V319.443ZM205.723 319.443H207.261V316.865H208.383L209.761 319.443H211.458L209.914 316.617C210.741 316.262 211.199 315.541 211.199 314.546C211.199 313.101 210.244 312.171 208.593 312.171H205.723V319.443ZM207.261 315.629V313.428H208.298C209.186 313.428 209.615 313.822 209.615 314.546C209.615 315.267 209.186 315.629 208.305 315.629H207.261Z" fill="black"/>
<path fill-rule="evenodd" clip-rule="evenodd" d="M117.789 134.844C121.317 134.235 124 131.168 124 127.477C124 123.348 120.642 120 116.5 120C112.358 120 109 123.348 109 127.477C109 131.168 111.683 134.235 115.211 134.844L116.5 140L117.789 134.844Z" fill="black"/>
<path fill-rule="evenodd" clip-rule="evenodd" d="M117.789 132.844C121.317 132.235 124 129.168 124 125.477C124 121.348 120.642 118 116.5 118C112.358 118 109 121.348 109 125.477C109 129.168 111.683 132.235 115.211 132.844L116.5 138L117.789 132.844Z" fill="#FF0000"/>
<ellipse cx="116.5" cy="125.477" rx="2.5" ry="2.49231" fill="white"/>
</g>
<defs>
<clipPath id="clip0">
<rect width="285" height="321.882" fill="white"/>
</clipPath>
</defs>
</svg>
